<svg width="1118" height="660" viewBox="0 0 1118 660" fill="none" xmlns="http://www.w3.org/2000/svg">
<path d="M633.915 369.59C630.504 364.655 627.136 359.259 618.05 342.412C612.056 331.293 609.06 325.732 606.508 320.522C602.253 311.838 596.822 299.885 591.358 285.077C592.024 284.461 592.691 283.849 593.36 283.233L591.96 282.803C591.97 282.531 592.05 281.339 593.025 280.363C594.067 279.32 595.364 279.294 595.613 279.294C595.613 278.818 595.605 278.141 595.562 277.328C595.482 275.77 595.441 274.993 595.243 274.498C594.6 272.889 592.22 272.382 591.091 272.217C591.101 273.072 590.653 273.85 589.951 274.182C589.033 274.617 587.811 274.236 587.211 273.214C586.975 272.575 586.741 271.934 586.504 271.296L587.806 269.37C587.903 269.349 588.04 269.316 588.194 269.257C588.433 269.169 588.806 269.028 589.004 268.75C589.074 268.652 589.161 268.482 589.112 267.712C589.092 267.385 589.046 266.932 588.93 266.397C588.832 266.129 588.696 265.714 588.598 265.192C588.351 263.856 588.636 263.279 588.392 262.532C588.233 262.038 587.816 261.389 586.64 260.815C586.26 260.143 585.552 259.098 584.343 258.176C583.471 257.51 582.625 257.126 581.999 256.902C581.56 256.148 581.12 255.391 580.68 254.636C581.215 254.387 582.007 253.934 582.756 253.138C583.255 252.605 583.589 252.075 583.81 251.655C583.651 249.825 583.373 248.309 583.124 247.191C582.218 243.124 581.181 242.001 580.597 241.486C580.142 241.085 579.707 240.825 579.404 240.668C579.751 240.068 580.23 239.19 580.741 238.088C581.184 237.128 581.408 236.639 581.482 236.119C581.688 234.672 581.076 233.469 580.772 232.89C580.17 231.745 579.628 231.474 578.792 230.478C578.118 229.68 577.269 228.429 576.646 226.529C576.682 225.594 576.71 224.176 576.626 222.443C576.507 219.995 576.265 218.965 576.788 218.651C577.474 218.242 578.897 219.416 579.959 220.293C581.431 221.509 582.437 222.765 583.093 223.71C583.028 222.036 582.776 219.809 582.012 217.297C581.282 214.895 580.309 212.979 579.468 211.584C579.998 211.576 580.698 211.62 581.493 211.818C582.45 212.055 583.193 212.429 583.702 212.735C581.719 208.23 579.039 205.31 577.395 205.212C576.278 205.145 574.923 205.364 574.923 205.364C574.218 205.48 573.644 205.635 573.248 205.756C573.361 204.852 573.474 203.951 573.587 203.047L572.71 202.265C573.039 202.072 573.582 201.683 573.755 201.037C573.845 200.692 573.793 200.403 573.765 200.244C573.605 199.343 573.423 198.285 573.214 197.111C572.764 194.747 571.995 190.937 570.994 187.075C570.814 186.383 570.552 185.4 569.793 184.385C568.643 182.848 567.143 182.284 565.214 181.507C563.634 180.871 561.293 179.903 558.307 178.564L557.077 176.211L555.418 176.216L548.59 171.266L547.605 164.456V163.671C547.806 163.671 548.009 163.671 548.212 163.671C548.279 164.755 548.346 165.836 548.413 166.92C548.403 167.118 548.542 167.293 548.735 167.327C548.922 167.358 549.11 167.247 549.169 167.062C549.195 167.1 549.288 167.221 549.432 167.237C549.622 167.257 549.838 167.085 549.895 166.807C549.918 166.825 550.07 166.951 550.275 166.912C550.419 166.887 550.507 166.797 550.533 166.766C550.304 165.247 550.072 163.73 549.841 162.214C549.967 161.869 550.137 161.377 550.317 160.775C550.924 158.739 550.8 158.203 550.705 157.928C550.612 157.665 550.414 157.261 549.933 156.852V155.194H550.798L549.933 154.321L551.317 153.791L549.933 152.66H550.625L549.933 150.652V149.952L549.028 148.994L550.769 147.591H549.028L549.54 145.588L547.883 146.379L546.738 143.24V145.336L543.764 142.028L544.207 143.598C543.919 143.238 543.474 142.767 542.838 142.342C541.974 141.765 541.146 141.534 540.621 141.431V142.563L537.215 140.743L538.27 142.749C537.593 142.507 536.793 142.27 535.882 142.095C534.738 141.876 533.709 141.809 532.857 141.809C533.382 142.185 533.907 142.561 534.431 142.939C533.757 143.266 532.811 143.632 531.638 143.812C530.915 143.923 530.264 143.941 529.721 143.918C529.986 144.353 530.249 144.788 530.514 145.225L528.247 146.018L529.559 146.626L525.556 149.61L528.347 149.599L526.174 151.53L527.221 151.525C526.845 151.885 526.467 152.243 526.091 152.604C526.482 152.81 526.871 153.018 527.262 153.227C527.154 153.608 526.994 154.053 526.755 154.527C526.374 155.284 525.927 155.85 525.556 156.247C526.233 156.012 526.909 155.778 527.586 155.541L526.284 157.642H527.506L526.992 159.998C527.483 160.224 527.972 160.453 528.463 160.68C528.399 161.115 528.278 162.369 528.993 163.658C530.022 165.515 531.952 165.942 532.25 166.004C532.314 167.577 532.379 169.147 532.443 170.72L530.532 172.911L524.836 166.992C525.114 166.838 525.762 166.428 526.215 165.615C526.683 164.776 526.675 163.985 526.657 163.669C527.12 163.172 527.583 162.675 528.047 162.178L525.68 159.13C525.479 159.014 524.972 158.754 524.311 158.816C523.21 158.916 522.619 159.807 522.541 159.928C521.788 160.512 521.031 161.099 520.278 161.684L519.928 161.511L521.492 159.583C521.577 159.501 521.963 159.112 521.978 158.499C521.986 158.09 521.824 157.789 521.746 157.66C520.566 156.862 519.385 156.064 518.204 155.263C518.011 154.468 517.818 153.67 517.625 152.871C517.507 152.75 517.265 152.539 516.9 152.426C516.282 152.236 515.755 152.465 515.616 152.532C515.57 152.066 515.413 151.18 514.839 150.938C514.785 150.915 514.672 150.876 513.97 150.853C513.535 150.838 513.177 150.84 512.936 150.845C512.848 150.539 512.761 150.233 512.676 149.926C512.578 149.764 512.467 149.651 512.37 149.571C511.655 148.984 510.584 149.36 510.456 149.406C509.702 149.731 508.946 150.052 508.192 150.377L499.692 141.935C499.891 141.58 499.826 141.147 499.554 140.9C499.34 140.702 499.021 140.643 498.73 140.741C497.3 139.546 495.87 138.349 494.439 137.152C494.262 137.098 492.86 136.683 491.733 137.507C490.601 138.336 490.21 140.077 490.964 141.619C492.16 142.692 493.359 143.766 494.555 144.837C494.46 145.084 494.529 145.364 494.728 145.537C494.923 145.704 495.201 145.738 495.43 145.619C498.419 148.621 501.406 151.623 504.392 154.625C503.824 155.235 503.014 156.249 502.414 157.688C501.725 159.346 501.622 160.824 501.63 161.704C501.2 161.923 500.737 162.204 500.264 162.567C498.764 163.723 497.959 165.134 497.542 166.055C497.189 165.903 496.67 165.726 496.022 165.659C495.422 165.594 494.913 165.646 494.547 165.71C492.96 168.117 491.37 170.527 489.781 172.934C489.752 173.397 489.721 173.863 489.693 174.329C487.463 176.507 485.23 178.685 483 180.866C482.696 181.154 482.254 181.638 481.911 182.333C481.562 183.036 481.474 183.631 481.286 185.436C481.176 186.512 481.088 187.449 481.021 188.208C480.682 190.453 480.34 192.695 480 194.938C480.193 195.391 480.504 195.978 481.011 196.573C481.865 197.571 482.835 198.073 483.403 198.313C485.68 198.385 487.959 198.454 490.239 198.524C489.626 199.531 489.014 200.537 488.404 201.544L505.679 223.136C505.442 223.36 503.855 224.912 504.014 227.244C504.115 228.725 504.866 229.742 505.182 230.125C505.339 230.496 505.692 231.178 506.422 231.709C507.881 232.772 509.594 232.321 509.841 232.252C509.892 232.877 509.946 233.5 509.998 234.123L511.137 235.341C510.718 235.189 510.312 235.447 510.253 235.75C510.193 236.046 510.458 236.43 510.891 236.464C510.893 237.313 510.896 238.16 510.901 239.01C511.696 239.643 512.493 240.276 513.291 240.907C513.311 241.963 513.332 243.015 513.352 244.068C513.347 244.189 513.334 244.784 513.785 245.281C514.155 245.688 514.613 245.786 514.757 245.809C514.76 246.334 514.76 246.857 514.762 247.382L514.772 249.652L515.3 250.698L515.217 252.096L515.657 252.528C514.883 257.682 513.931 263.073 512.763 268.667C511.822 273.175 510.808 277.5 509.746 281.637C508.771 284.577 507.837 287.687 506.967 290.962C505.396 296.888 504.274 302.498 503.477 307.688C502.031 313.238 500.696 319.381 499.633 326.064C498.656 332.22 498.041 338.007 497.678 343.344C498.224 343.797 499.029 344.371 500.101 344.835C501.29 345.344 502.358 345.527 503.098 345.594C502.967 345.908 502.612 346.866 503.055 347.684C503.24 348.029 503.61 348.431 505.126 348.871C506.021 349.131 507.384 349.425 509.136 349.414C508.966 350.869 508.797 352.326 508.629 353.783C508.141 354.88 507.572 355.58 507.14 356.02C506.764 356.402 506.35 356.731 506.27 357.297C506.196 357.838 506.471 358.286 506.592 358.489C507.472 359.929 509.717 360.052 510.049 360.065C509.849 361.056 509.651 362.047 509.45 363.036L510.759 363.468C510.265 366.71 509.769 369.951 509.272 373.192C509.594 374.186 509.344 375.228 508.647 375.821C508.066 376.312 507.374 376.325 507.145 376.32C507.088 376.786 507.032 377.252 506.975 377.718L497.503 388.062C496.047 389.388 494.692 390.142 493.683 390.593C491.81 391.427 490.316 391.579 489.796 392.755C489.493 393.445 489.657 394.194 489.848 394.73C491.494 395.209 493.729 395.682 496.405 395.752C499.348 395.826 501.802 395.384 503.554 394.928C504.735 394.542 506.265 393.893 507.84 392.763C508.627 392.199 509.283 391.615 509.82 391.072C510.474 390.698 511.451 390.158 512.673 389.563C514.667 388.592 515.287 388.458 515.845 387.802C516.334 387.23 516.928 386.085 516.511 383.709C516.473 381.263 516.434 378.817 516.396 376.371L517.44 375.321C517.247 374.786 517.047 374.052 516.982 373.161C516.897 372.013 517.075 371.063 517.245 370.43C517.525 369.472 517.8 368.499 518.073 367.51C518.387 366.372 518.683 365.245 518.966 364.135C519.3 363.986 519.632 363.837 519.966 363.687C519.948 362.874 519.933 362.063 519.915 361.249L522.526 359.581C522.721 359.473 523.503 359.012 523.838 358.023C524.247 356.813 523.648 355.791 523.56 355.645C523.506 355.029 523.498 354.133 523.74 353.093C524.013 351.919 524.491 351.036 524.849 350.488C525.749 349.955 527.244 349.239 529.207 349.015C532.798 348.606 535.527 350.128 536.456 350.704C537.781 351.325 540.109 352.205 543.129 352.303C546.458 352.409 549.041 351.51 550.419 350.913C551.122 350.588 552.004 350.259 553.054 350.038C554.952 349.636 556.586 349.759 557.674 349.937C557.934 351.096 558.196 352.257 558.459 353.415L557.255 357.699L562.33 361.61V363.705C562.572 363.793 562.811 363.88 563.053 363.968C563.369 367.487 563.683 371.009 564 374.528C563.907 374.605 563.238 375.192 563.249 376.165C563.256 377.113 563.905 377.679 564 377.762C563.871 377.818 563.686 377.916 563.493 378.073C562.778 378.663 562.412 379.739 562.639 383.086C562.719 384.272 562.878 385.822 563.218 387.632C563.804 387.696 564.548 387.843 565.361 388.168C566.84 388.754 567.828 389.648 568.376 390.232C569.654 391.352 571.246 392.59 573.171 393.782C575.077 394.967 576.878 395.837 578.437 396.483C582.288 396.728 585.4 396.56 587.566 396.352C590.63 396.058 591.698 395.693 591.958 394.946C592.408 393.643 590.19 391.821 589.851 391.548L583.291 387.992C582.583 387.385 581.534 386.438 580.371 385.166C578.717 383.356 578.138 382.349 576.937 380.964C575.957 379.831 574.447 378.325 572.203 376.827C572.209 376.07 572.126 375.082 571.789 373.98C571.637 373.486 571.457 373.048 571.275 372.667C571.18 369.619 571.084 366.568 570.989 363.52C571.254 363.296 571.517 363.072 571.781 362.848C571.684 361.813 571.586 360.775 571.488 359.741C572.759 358.708 574.03 357.676 575.303 356.646C575.386 356.136 575.458 355.305 575.247 354.321C575.015 353.253 574.555 352.478 574.251 352.043C574.246 350.879 574.241 349.713 574.236 348.549L575.63 347.584C575.566 346.523 575.501 345.46 575.437 344.399C576.631 343.29 577.824 342.18 579.021 341.071C578.357 336.282 577.696 331.494 577.032 326.705L585.462 339.773L587.031 339.765L590.247 336.347C589.105 334.954 587.96 333.561 586.818 332.171C586.705 332.171 586.591 332.171 586.478 332.171C586.488 332.14 586.725 331.409 586.241 330.855C585.902 330.472 585.439 330.433 585.339 330.428C581.943 325.083 578.547 319.741 575.151 314.397L574.166 307.415L588.552 326.311L588.292 327.359L591.958 331.538L594.836 327.158L592.732 324.285L591.42 323.33L586.324 314.791L592.027 322.28L593.684 322.36L595.677 318.683L595.15 317.726L576.561 295.439L579.617 295.516L570.05 258.696L573.626 258.246L574.776 262.169C574.03 264.612 574.161 265.416 574.467 265.655C574.524 265.699 574.735 265.843 574.977 266.103C575.229 266.371 575.391 266.633 575.491 266.816C575.337 267.161 574.755 268.541 575.321 269.324C575.491 269.555 575.887 269.908 575.98 269.99C576.307 270.281 576.602 270.492 576.816 270.634C576.062 271.538 576.132 272.202 576.168 272.413C576.242 272.83 576.631 273.283 577.402 274.174C577.709 274.529 577.968 274.812 578.141 274.995C577.853 275.657 577.217 277.284 577.837 277.879C578.007 278.038 578.195 278.056 579.63 278.357C580.111 278.455 580.5 278.54 580.739 278.592C581.277 279.488 581.266 280.556 580.718 281.285C580.266 281.887 579.602 282.052 579.376 282.098C579.09 282.119 578.804 282.137 578.519 282.157C578.419 282.582 578.082 284.266 579.033 285.991C580.232 288.169 582.501 288.632 582.82 288.691C582.938 288.328 583.353 287.213 584.508 286.477C585.176 286.052 585.825 285.926 586.213 285.882C592.238 302.016 599.986 319.824 610.014 338.571C617.027 351.68 624.245 363.543 631.324 374.181C632.49 375.746 634.352 377.883 637.105 379.847C639.978 381.899 642.723 382.977 644.627 383.562C642.054 380.529 638.183 375.761 633.915 369.59ZM517.448 218.489C517.273 219.233 516.98 219.802 516.756 220.17C516.174 219.632 515.593 219.096 515.012 218.558C514.796 218.067 514.515 217.783 514.289 217.613C513.175 216.782 511.207 217.101 509.406 218.445L493.645 198.465H516.756C516.614 202.563 516.681 206.996 517.065 211.713C517.203 213.412 517.376 215.062 517.576 216.661C517.615 217.093 517.623 217.737 517.448 218.489ZM514.808 175.817L507.788 181.038L504.879 180.539L503.05 182.181L499.736 182.653L501.058 181.167L502.28 180.856L506.288 175.176C506.404 174.893 506.535 174.494 506.589 174C506.656 173.374 506.566 172.854 506.481 172.52C506.121 171.909 505.581 171.14 504.789 170.383C504.269 169.886 503.757 169.505 503.307 169.214C504.187 168.259 505.066 167.304 505.946 166.346L506.198 165.427C506.394 165.435 506.684 165.463 507.014 165.576C507.418 165.715 507.68 165.914 507.747 165.96C508.547 166.524 510.731 166.307 511.76 166.223C512.606 166.15 513.857 166.071 515.431 166.055C515.001 166.513 514.621 166.848 514.345 167.072C513.936 167.409 513.679 167.572 513.607 167.896C513.535 168.218 513.687 168.524 513.81 168.715L512.591 169.842C512.537 169.901 512.074 170.429 512.218 171.129C512.308 171.577 512.596 171.845 512.702 171.935C513.041 172.308 513.383 172.682 513.725 173.055C513.903 173.279 514.559 174.067 515.259 173.966C515.462 173.938 515.704 173.827 515.971 173.709C516.298 173.562 516.555 173.41 516.735 173.297C517.016 173.315 517.427 173.31 517.908 173.192C518.657 173.006 519.151 172.646 519.385 172.471C520.061 171.964 520.447 171.369 520.653 170.985C522.089 172.597 523.521 174.206 524.957 175.817H514.808Z" fill="black" fill-opacity="0.5"/>
<path d="M824.79 213.933C824.241 213.119 823.693 212.303 823.145 211.489C821.968 211.71 820.791 211.932 819.613 212.153C817.271 210.266 815.267 209.908 813.955 209.907C813.855 209.907 813.758 209.908 813.66 209.913C813.636 209.674 813.585 209.305 813.467 208.868C813.265 208.119 813.008 207.695 812.68 206.976C812.498 206.578 812.249 205.987 812.004 205.231C812.906 204.56 813.808 203.888 814.71 203.216C814.867 203.046 815.156 202.683 815.299 202.134C815.454 201.542 815.357 201.049 815.298 200.824L818.262 198.9H816.366C817.241 197.592 818.139 196.09 818.988 194.387C820.414 191.527 821.332 188.85 821.937 186.575C820.799 187.483 819.661 188.389 818.523 189.297C818.657 186.243 818.791 183.187 818.925 180.133C818.238 181.12 817.551 182.109 816.864 183.097C816.393 179.876 815.922 176.657 815.45 173.437L812.937 176.867C812.945 175.74 812.952 174.611 812.96 173.484C812.332 174.367 811.703 175.248 811.075 176.131C810.546 173.754 810.016 171.377 809.486 169C808.081 170.458 806.677 171.916 805.272 173.374C804.306 174.169 803.341 174.962 802.375 175.756L802.43 171.035C801.295 172.104 800.158 173.174 799.023 174.245L799.182 171.486C797.793 172.68 796.093 174.421 794.61 176.828C793.921 177.945 793.394 179.02 792.987 179.996C792.772 179.055 792.558 178.114 792.343 177.171C791.681 178.742 790.612 181.902 791.077 185.874C791.349 188.199 792.059 190.053 792.672 191.315C792.004 190.685 791.309 189.976 790.606 189.184C789.626 188.077 788.8 186.994 788.111 185.99C788.879 188.974 789.648 191.96 790.416 194.945C790.295 196.627 790.302 198.559 790.577 200.669C790.661 201.316 790.764 201.936 790.881 202.526C791.201 201.795 791.519 201.061 791.839 200.33L793.005 203.894C793.268 204.166 793.589 204.459 793.975 204.744C794.711 205.287 795.426 205.614 795.986 205.814C796.201 206.311 796.555 206.973 797.145 207.631C797.478 208.004 797.815 208.295 798.115 208.519C798.269 209.621 798.421 210.723 798.575 211.826C797.805 211.866 796.625 212.02 795.307 212.581C793.887 213.186 792.908 214.007 792.341 214.563C792.124 214.557 791.888 214.569 791.634 214.604C790.655 214.739 789.923 215.176 789.482 215.504C788.423 215.76 787.133 216.163 785.732 216.82C784.368 217.458 783.256 218.169 782.395 218.803C781.195 219.402 779.995 220.001 778.796 220.602C778.49 221.391 778.093 222.726 778.178 224.396C778.31 226.984 779.516 228.798 780.057 229.518C779.984 229.919 779.93 230.488 780.026 231.154C780.085 231.563 780.187 231.912 780.29 232.194C780.192 232.834 780.027 233.891 779.818 235.206C779.428 237.65 779.343 238.089 779.349 238.777C779.356 239.699 779.523 241.086 780.368 242.788C779.569 242.478 778.437 242.15 777.057 242.094C774.358 241.987 772.31 242.989 771.376 243.528C771.048 243.315 770.544 243.041 769.887 242.903C768.6 242.63 767.844 243.115 766.617 243.139C765.917 243.151 764.927 243.017 763.715 242.332V239.73L763.294 239.286L763.479 238.727C763.416 238.317 763.278 237.731 762.952 237.093C762.687 236.574 762.381 236.181 762.13 235.907C761.93 235.723 761.575 235.456 761.086 235.391C760.222 235.275 759.3 235.838 758.788 236.812C758.564 236.652 758.088 236.356 757.411 236.261C756.726 236.164 756.185 236.321 755.925 236.416C754.999 237.324 754.073 238.231 753.147 239.14C752.267 239.484 751.851 240.302 752.048 240.896C752.211 241.389 752.755 241.594 752.859 241.632V242.153L752.047 242.899C752.073 243.102 752.143 243.435 752.347 243.789C752.582 244.197 752.88 244.443 753.056 244.567H753.278L753.838 245.196C753.885 245.432 754.002 245.844 754.326 246.235C754.963 247.003 755.893 247.073 756.076 247.082C756.069 247.196 756.066 247.5 756.264 247.788C756.615 248.295 757.264 248.27 757.307 248.267C757.891 248.648 758.475 249.031 759.059 249.412C759.109 249.693 759.299 250.553 760.07 251.266C760.778 251.923 761.565 252.074 761.857 252.114C763.613 252.335 764.627 252.947 765.234 253.481C765.73 253.918 766.202 254.523 767.146 254.807C767.721 254.98 768.318 254.985 768.521 254.987C769.122 254.99 769.621 254.896 769.97 254.807C770.486 255.161 771.306 255.649 772.391 255.976C773.987 256.456 774.624 256.126 777.558 256.142C780.396 256.156 780.962 256.469 782.8 256.121C783.809 255.929 784.614 255.65 785.139 255.442L785.625 255.974L785.069 256.52L785.038 258.23L785.559 258.488L785.119 259.903L786.126 260.605L782.841 266.713C782.522 267.9 782.073 269.702 781.673 271.922C780.752 277.024 780.744 280.68 780.606 284.23C780.48 287.438 780.187 292.055 779.431 297.765C778.863 300.054 778.371 302.969 778.349 306.357C778.336 308.43 778.501 310.305 778.743 311.93C778.4 314.415 778.155 317.113 778.068 319.999C778.032 321.225 778.025 322.415 778.044 323.567C777.811 325.176 777.659 327.184 777.807 329.479C777.989 332.296 778.561 334.654 779.135 336.425C779.191 337.122 779.269 338.209 779.333 339.546C779.437 341.726 779.391 342.282 779.607 343.151C779.819 344 780.303 345.223 781.554 346.563L782.642 349.124L782.467 352.21L784.033 353.393L782.101 353.697C781.871 354.035 781.614 354.495 781.438 355.076C781.012 356.474 781.314 357.693 781.487 358.235L782.196 359.124L782.166 360.648C782.101 360.743 781.91 361.05 781.946 361.466C781.999 362.07 782.483 362.391 782.545 362.43C782.269 363.04 781.899 363.741 781.402 364.479C780.965 365.127 780.518 365.671 780.107 366.119C779.198 366.983 778.152 367.88 776.958 368.771C774.764 370.407 772.64 371.585 770.802 372.439C770.417 372.611 768.598 373.467 767.988 375.423C767.788 376.066 767.773 376.653 767.809 377.096L767.89 378.769C769.977 379.17 773.092 379.523 776.813 379.032C780.733 378.515 783.779 377.264 785.722 376.283C788.876 375.031 790.591 374.616 791.591 374.504C791.856 374.475 792.653 374.402 793.444 373.874C793.994 373.507 794.343 373.05 794.554 372.718L794.512 371.342C794.852 370.562 795.303 369.252 795.315 367.584C795.333 365.254 794.488 363.518 794.033 362.72L794.543 360.116L794.319 359.894L794.465 359.149L796.06 358.363L796.717 355.535C796.413 355.271 795.955 354.939 795.339 354.686C794.966 354.534 794.623 354.445 794.335 354.393C794.359 354.182 794.382 353.971 794.406 353.76L795.853 353.048L795.847 351.672C796.762 351.334 798.037 350.787 799.446 349.911C800.588 349.202 801.288 348.768 801.929 348.007C802.482 347.349 803.023 346.413 803.546 343.168C803.785 341.687 804.027 339.69 804.081 337.292C803.78 336.69 803.341 335.709 803.03 334.434C802.675 332.987 802.745 332.234 802.457 330.645C802.313 329.848 802.046 328.66 801.514 327.229C801.97 325.807 802.415 323.984 802.609 321.834C802.842 319.26 802.64 317.055 802.361 315.405C802.773 313.11 803.186 310.817 803.598 308.523L805.619 311.934C806.095 313.948 806.758 316.205 807.688 318.617C808.427 320.531 809.223 322.252 810.014 323.774C810.152 325.212 810.405 326.87 810.85 328.677C811.307 330.526 811.87 332.143 812.43 333.504C812.312 334.643 812.269 336.15 812.52 337.89C812.755 339.503 813.175 340.847 813.576 341.863L812.89 347.331C812.769 347.695 812.562 348.491 812.787 349.449C813.132 350.921 814.241 351.685 814.506 351.858C816.232 352.929 817.958 354 819.686 355.072L821.242 353.764C821.277 353.728 821.42 353.591 821.649 353.577C821.925 353.561 822.105 353.734 822.134 353.762L822.779 357.179L824.794 357.171L825.24 358.916L822.941 360.412L823.508 362.677L824.849 363.266L824.926 363.935C824.882 364.097 824.853 364.303 824.891 364.53C825.028 365.368 825.919 365.752 826.011 365.79C825.913 365.963 825.814 366.138 825.716 366.311L826.465 367.498C826.317 368.847 826.275 370.566 826.596 372.516C826.743 373.405 826.942 374.212 827.163 374.93L827.836 376.043C827.67 377.413 827.585 378.974 827.668 380.691C827.702 381.379 827.761 382.037 827.836 382.66V383.886C828.287 384.267 831.217 386.658 835.309 386.051C838.684 385.549 840.649 383.336 841.132 382.758V380.601C841.124 380.043 841.056 379.31 840.818 378.484C840.498 377.37 840.001 376.536 839.619 375.998C839.489 374.482 839.181 372.562 838.482 370.428C837.89 368.622 837.165 367.119 836.495 365.938C836.503 364.984 836.511 364.03 836.521 363.075L835.891 363.487L836.446 362.779L836.441 361.627L836.029 360.959L837.067 360.174L836.573 357.129L834.084 357.436L833.742 355.467L835.375 354.829L834.841 351.411C835.013 351.355 835.379 351.209 835.694 350.85C835.944 350.565 836.052 350.273 836.101 350.106C837.049 350.047 838.651 349.787 840.021 348.65C840.582 348.185 841.053 347.491 841.995 346.106C842.497 345.368 842.743 344.922 842.843 344.318C842.966 343.584 842.817 342.957 842.688 342.571C842.118 341.475 841.181 339.729 839.919 337.639C837.845 334.206 836.793 332.987 835.243 330.26C834.45 328.864 833.336 326.737 832.245 323.951C832.175 322.08 832.107 320.21 832.037 318.339L826.811 303.267C826.631 302.283 826.48 301.188 826.389 299.998C826.312 298.975 826.29 298.017 826.304 297.137C825.434 293.101 824.563 289.065 823.693 285.029C823.345 283.617 823.052 282.012 822.894 280.237C822.824 279.46 822.786 278.712 822.774 278.002C822.735 275.361 822.321 271.251 820.314 266.754C819.218 264.297 817.919 262.338 816.76 260.858L816.868 259.78C816.926 259.683 817.073 259.41 817.051 259.035C817.028 258.669 816.857 258.421 816.788 258.33C816.809 257.326 816.83 256.323 816.851 255.319L816.848 254.762C817.206 254.65 817.431 254.33 817.403 254.016C817.375 253.699 817.102 253.52 817.066 253.497C817.115 253.212 817.162 252.927 817.211 252.641C817.308 252.602 817.572 252.48 817.729 252.192C817.914 251.856 817.88 251.427 817.651 251.078C818.08 251.113 818.418 250.785 818.414 250.447C818.411 250.187 818.206 249.934 817.907 249.85C818.154 249.638 818.401 249.427 818.648 249.215C818.686 249.215 819.267 249.194 819.576 248.691C819.789 248.341 819.788 247.895 819.571 247.539C819.96 247.106 820.471 246.606 821.127 246.12C821.672 245.717 822.193 245.414 822.648 245.185C822.89 246.214 823.332 247.559 824.187 248.971C824.591 249.637 825.016 250.204 825.42 250.676C825.396 251.204 825.325 253.91 827.374 256.058C828.675 257.421 830.189 257.887 830.876 258.052C832.259 258.357 834.545 258.66 837.233 258.065C838.637 257.755 839.796 257.277 840.686 256.825C841.074 256.839 842.592 256.85 843.878 255.734C844.629 255.082 844.978 254.326 845.135 253.907C845.573 253.754 847.158 253.138 848.1 251.442C848.702 250.356 848.764 249.324 848.759 248.8C849.178 248.191 849.597 247.582 850.016 246.974L851.756 245.108C851.908 245.013 852.208 244.795 852.422 244.398C852.582 244.1 852.629 243.822 852.643 243.654C852.444 243.519 852.245 243.383 852.046 243.248C852.225 243.06 852.418 242.826 852.601 242.54C852.967 241.964 853.14 241.411 853.226 241.013C852.866 240.593 852.504 240.174 852.144 239.754C851.169 238.935 850.433 238.238 849.943 237.755C849.294 237.114 848.702 236.481 847.744 236.202C847.258 236.06 846.935 236.085 846.665 236.206C846.216 236.41 846.023 236.839 845.962 236.99L844.174 235.956C844.096 235.905 843.865 235.764 843.541 235.773C843.209 235.783 842.984 235.942 842.91 235.998C842.245 236.98 841.579 237.962 840.915 238.942C840.88 239.277 840.977 239.491 841.033 239.589C841.303 240.058 841.994 240.279 842.74 240.087C842.6 240.34 842.445 240.678 842.335 241.093C842.183 241.661 842.171 242.158 842.191 242.506C842.046 242.615 841.709 242.9 841.525 243.401C841.308 243.989 841.442 244.5 841.493 244.665C840.775 244.657 840.057 244.65 839.338 244.641C838.948 244.408 838.314 244.093 837.475 243.938C836.703 243.795 836.049 243.843 835.616 243.908C835.701 243.56 835.786 243.214 835.872 242.866C836.05 241.952 836.197 240.699 836.081 239.223C835.943 237.48 835.489 236.082 835.099 235.138C835.358 234.521 835.616 233.758 835.796 232.867C835.916 232.272 835.982 231.721 836.013 231.231C836.348 230.835 836.742 230.291 837.084 229.591C837.353 229.041 837.524 228.528 837.635 228.102C837.77 227.545 837.894 226.963 838 226.354C838.346 224.385 838.451 222.566 838.425 220.962C836.859 219.884 835.059 218.762 833.021 217.674C830.957 216.573 828.999 215.691 827.212 214.983C826.951 214.761 826.69 214.539 826.428 214.317L824.796 213.932L824.79 213.933Z" fill="black" fill-opacity="0.5"/>
<path d="M322.096 220.224C323.088 218.577 324.621 216.422 326.92 214.355C333.981 208.008 346.172 204.368 356.868 209.227C369.524 214.977 372.071 228.987 372.598 231.881C375.924 250.176 362.539 265.96 356.868 267.66C356.399 267.801 354.267 268.36 351.747 269.817C349.433 271.156 347.583 272.226 346.569 274.128C344.758 277.521 347.507 280.172 346.824 285.649C346.46 288.568 345.312 290.804 344.507 292.117C335.825 279.051 329.928 273.124 326.819 274.338C325.463 274.867 324.638 276.754 324.34 279.997C324.471 281.194 324.525 282.853 324.175 284.778C323.743 287.164 322.87 288.99 322.197 290.152C322.164 291.71 322.129 293.271 322.096 294.829C322.612 295.512 323.202 296.236 323.88 296.974C324.707 297.877 325.521 298.652 326.285 299.314C326.867 300.114 327.725 301.498 328.193 303.413C328.6 305.082 328.557 306.512 328.456 307.442C330.072 311.667 331.691 315.889 333.308 320.114C334.107 320.445 334.988 320.774 335.944 321.073C337.095 321.435 338.178 321.703 339.169 321.9L341.39 326.631C341.431 326.782 341.504 327.142 341.35 327.534C341.044 328.31 340.143 328.457 340.098 328.462C340.024 329.138 339.954 329.813 339.88 330.489L339.683 330.661C341.246 333.691 342.805 336.79 344.35 339.962C346.898 345.184 349.278 350.314 351.504 355.341C349.038 350.446 346.384 345.432 343.526 340.327C341.823 337.289 340.115 334.329 338.403 331.452C338.099 331.255 337.796 331.058 337.492 330.86C337.226 330.863 336.963 330.865 336.698 330.871L336.457 331.92L336.604 332.414C338.674 336.755 340.743 341.093 342.815 345.434C344.98 349.978 347.148 354.519 349.314 359.062C346.784 355.098 344.216 350.8 341.681 346.163C339.078 341.404 336.794 336.808 334.783 332.439L334.33 332.219C333.791 332.333 333.252 332.447 332.716 332.563C334.297 336.325 336.093 340.269 338.137 344.347C340.449 348.966 342.815 353.231 345.155 357.142C342.858 353.6 340.535 349.786 338.236 345.697C335.638 341.083 333.353 336.618 331.34 332.366C330.857 332.34 330.371 332.318 329.888 332.292L327.892 330.248L326.447 326.997L325.425 325.464L325.362 323.036L323.955 321.951L324.019 320.033L318.78 311.92C317.828 311.03 316.743 309.826 315.772 308.252C315.367 307.597 315.033 306.959 314.755 306.362C314.441 305.254 313.998 304.015 313.363 302.712C313.11 302.191 312.847 301.705 312.582 301.252C312.091 300.187 311.603 299.122 311.112 298.057L307.535 302.145L306.639 306.233L307.406 307.703L306.384 310.195L310.216 313.516C310.376 314.278 310.654 315.409 311.145 316.729C311.982 318.988 312.339 318.837 312.579 319.967C312.721 320.64 312.718 321.265 311.195 326.557C310.748 328.116 310.831 327.832 310.409 329.039C309.743 330.939 309.126 332.282 308.795 333.013C308.139 334.465 307.219 336.6 306.098 339.512C306.002 342.004 305.906 344.496 305.809 346.988L302.359 359.06L294.119 370.175V372.923L292.268 375.03V376.692L291.309 378.033L290.542 383.335L290.99 390.363L292.268 393.684L290.224 398.283L287.221 399.05L280.77 396.558L276.808 393.237L277.638 390.297L280.896 387.294L280.256 385.824L279.427 387.486L277.957 385.442L278.852 383.398L282.174 375.796L283.07 375.541L284.921 367.684L284.858 366.661L286.196 364.999C285.938 361.185 285.974 358.012 286.067 355.738C286.452 346.287 288.164 343.208 288.691 342.323C289.948 340.205 291.44 338.768 292.46 337.916C292.857 336.927 293.282 335.604 293.515 334.005C293.743 332.444 293.72 331.086 293.626 330.041C292.829 329.659 292.015 329.241 291.185 328.786C288.863 327.509 286.831 326.145 285.078 324.807C284.489 324.599 283.687 324.387 282.725 324.326C282.111 324.288 281.562 324.318 281.104 324.377C278.893 325.814 276.467 327.567 273.96 329.697C271.301 331.956 269.072 334.197 267.228 336.254V337.339C267.56 337.797 267.957 338.505 267.878 339.322C267.775 340.4 266.925 340.792 264.992 342.897C264.261 343.694 263.555 344.47 262.811 345.604C262.181 346.565 261.756 347.433 261.478 348.07C261.286 349.242 261.094 350.413 260.904 351.584C260.274 352.361 259.644 353.137 259.012 353.914C257.428 353.99 255.844 354.066 254.261 354.139C252.707 353.522 251.152 352.905 249.598 352.287C249.538 351.832 249.505 351.225 249.591 350.519C249.669 349.861 249.829 349.315 249.983 348.903C251.878 346.583 253.772 344.261 255.667 341.941L254.39 341.174L252.664 338.746L254.453 335.295C254.572 333.648 254.691 332.004 254.81 330.357C256.269 327.104 258.288 323.334 261.091 319.411C262.831 316.975 264.595 314.867 266.272 313.066C268.379 309.575 270.489 306.081 272.596 302.59C273.279 301.381 274.112 299.58 274.57 297.27C275.179 294.192 274.84 291.611 274.514 290.068C273.912 289.274 273.264 288.315 272.644 287.187C272.012 286.036 271.541 284.95 271.192 283.999C270.874 284.323 270.466 284.806 270.112 285.464C269.738 286.16 269.558 286.797 269.467 287.258C268.807 287.533 268.147 287.812 267.486 288.087C266.35 289.499 264.805 291.141 262.763 292.709C259.09 295.532 255.44 296.873 252.986 297.541C248.652 299.003 247.539 300.473 247.362 301.576C247.294 302.001 247.344 302.509 246.98 303.099C246.388 304.063 245.442 304.032 243.967 304.769C243.476 305.014 241.981 305.775 240.911 307.19C239.861 308.576 240.183 309.325 239.186 310.448C238.328 311.417 237.22 311.839 236.439 312.044C236.191 311.938 235.877 311.756 235.829 311.475C235.728 310.865 237 310.407 237.883 309.461C238.447 308.857 239.064 307.827 239.183 305.978C238.141 305.188 237.101 304.397 236.059 303.607C236.163 302.843 236.269 302.079 236.373 301.315C235.687 301.475 234.673 301.786 233.59 302.441C231.67 303.602 230.281 305.401 229.684 305.062C229.603 305.016 229.191 304.736 229.239 304.483C229.239 304.483 229.246 304.46 229.254 304.435C229.947 302.256 232.259 301.075 233.633 300.402C235.801 299.34 236.689 299.494 237.703 298.34C238.389 297.559 238.69 296.683 238.834 296.048C238.655 295.77 238.356 295.388 237.883 295.095C237.119 294.624 236.628 294.837 236.054 294.351C235.788 294.128 235.621 293.754 235.3 293.018C235.1 292.56 234.845 291.925 234.597 291.141C234.524 290.787 234.706 290.448 234.997 290.331C235.217 290.245 235.475 290.296 235.672 290.455C236.694 291.242 237.716 292.031 238.738 292.818L241.485 292.881C242.244 293.213 243.003 293.547 243.762 293.878C245.328 293.076 247.332 291.854 249.386 290.028C251.488 288.156 252.958 286.258 253.942 284.768C255.027 283.703 256.115 282.638 257.2 281.573L264.228 278.634C264.273 278.054 264.382 277.318 264.638 276.496C264.908 275.631 265.26 274.933 265.569 274.417C265.877 271.591 266.186 268.765 266.495 265.939C266.654 265.059 266.813 264.181 266.975 263.301C266.975 263.278 266.942 262.904 266.667 262.765C266.388 262.625 265.958 262.772 265.763 263.172C263.466 264.578 260.628 266.63 257.802 269.552C255.71 271.715 254.119 273.845 252.925 275.692C253.393 267.543 251.905 261.846 250.37 258.062C249.583 256.121 248.604 254.237 248.025 251.181C247.119 246.405 247.848 242.215 248.645 239.344C249.393 237.69 248.824 235.747 247.365 234.796C246.019 233.92 244.192 234.072 242.96 235.193C243.13 233.531 243.302 231.871 243.471 230.209C241.478 224.775 238.809 221.421 236.654 219.324C234.443 217.173 232.482 216.063 230.478 212.85C229.413 211.142 227.848 208.628 228.012 205.678C228.257 201.297 232.191 198.309 233.765 197.115C244.422 189.025 268.961 189.882 281.468 204.385C284.732 208.17 286.47 212.066 287.418 214.75C286.71 213.839 285.65 212.663 284.155 211.557C283.15 210.811 278.025 207.009 275.392 208.868C273.479 210.216 273.912 213.819 274.003 214.494C277.537 216.837 281.071 219.179 284.608 221.522C290.707 225.198 296.806 228.876 302.905 232.552C306.528 232.969 334.492 235.974 338.332 226.278C339.185 224.128 339.048 220.791 337.237 218.815C334.464 215.792 327.995 215.769 322.099 220.219L322.096 220.224Z" fill="black" fill-opacity="0.5"/>
<path d="M750.72 216.638C749.136 214.006 748.344 212.69 747.419 211.477C745.262 208.643 739.558 202.198 731.501 194.045C731.209 193.914 730.916 193.781 730.625 193.648L729.635 192.231C730.734 191.906 733.097 191.044 735.198 188.821C737.56 186.319 738.214 183.549 738.416 182.431C737.889 180.987 737.36 179.544 736.833 178.1C736.221 177.18 735.167 175.84 733.502 174.652C731.344 173.11 729.22 172.581 728.028 172.376C728.222 172.487 730.218 173.672 730.337 175.83C730.386 176.698 730.112 177.395 729.907 177.799C730.015 178.052 730.196 178.396 730.495 178.744C730.861 179.173 731.252 179.432 731.518 179.579C731.686 179.554 733.108 179.362 734.182 180.407C734.996 181.199 735.084 182.192 735.1 182.444C735.051 182.718 734.961 183.137 734.79 183.627C733.984 185.926 732.235 187.332 730.375 188.793C729.852 189.203 729.109 189.752 728.17 190.341C727.977 190.416 727.679 190.501 727.323 190.476C726.634 190.425 726.484 190.012 725.728 189.827C725.153 189.687 724.333 189.703 724.124 190.102C724.037 190.27 724.077 190.47 724.127 190.612C723.022 190.313 722.094 190.508 721.829 191.021C721.777 191.124 721.726 191.287 721.761 191.532C721.592 191.502 720.9 191.401 720.231 191.83C719.775 192.124 719.557 192.524 719.47 192.707C719.254 192.639 718.239 192.341 717.229 192.888C716.698 193.174 716.386 193.575 716.231 193.813C715.862 193.691 715.36 193.475 714.844 193.091C714.065 192.509 713.632 191.83 713.415 191.42V190.325L716.079 191.955L714.532 187.771H719.452L714.443 183.69C714.545 183.53 714.66 183.375 714.793 183.228C715.878 182.018 717.533 181.897 718.227 181.889C715.914 181.085 713.604 180.279 711.293 179.474L713.902 175.53L708.074 176.499L707.138 170.053C706.758 171.005 706.172 172.202 705.257 173.449C704.59 174.358 703.906 175.081 703.298 175.644C702.876 174.92 702.379 174.149 701.795 173.354C700.892 172.126 699.972 171.103 699.121 170.265C698.51 172.126 697.897 173.987 697.286 175.848L690.351 173.032L692.337 177.762L685.744 178.589C686.611 179.655 687.477 180.721 688.343 181.786C687.024 182.8 685.703 183.814 684.384 184.827L687.813 185.651C687.586 186.178 687.36 186.704 687.133 187.231C687.811 187.274 688.489 187.317 689.167 187.359L689.064 188.816L677.028 186.203L677.383 183.65C677.701 183.115 677.631 182.442 677.231 182.011C676.775 181.524 675.983 181.451 675.408 181.874C675.239 181.978 675.068 182.083 674.898 182.189C674.13 181.424 673.218 181.082 672.564 181.373C672.44 181.429 672.301 181.517 672.163 181.666C670.871 180.939 669.68 180.721 669.176 181.218C669.105 181.288 669.042 181.378 668.993 181.497C668.399 180.908 667.651 180.719 667.168 180.993C667.067 181.052 666.901 181.174 666.769 181.433C666.589 181.685 666.407 181.937 666.226 182.189C665.863 181.824 665.277 181.256 664.506 180.603C663.496 179.745 663.076 179.512 662.46 178.898C662.009 178.45 661.386 177.731 660.812 176.646C660.902 175.509 661.113 174.625 661.276 174.057C661.705 172.549 662.783 169.806 664.129 167.595C664.273 167.356 664.603 166.827 664.633 166.099C664.642 165.891 664.647 165.166 664.042 164.206C660.356 158.353 655.023 158.019 655.023 158.019C654.092 157.961 652.307 157.981 650.174 158.903C650.469 158.89 652.162 158.836 653.21 160.064C653.479 160.379 653.647 160.711 653.753 161.003C653.863 161.106 654.13 161.326 654.521 161.364C655.038 161.416 655.559 161.128 655.866 160.631C656.145 161.164 656.605 161.928 657.332 162.702C658.446 163.891 659.059 163.904 659.599 164.734C660.454 166.047 660.048 167.733 659.796 168.778C659.561 169.757 659.339 169.92 657.665 173.268C656.623 175.349 656.322 176.06 656.621 176.771C656.803 177.207 657.119 177.42 658.376 178.185C659.318 178.759 660.356 179.378 661.48 180.032C662.09 180.459 662.818 181.06 663.528 181.883C663.968 182.391 664.315 182.887 664.59 183.335C664.18 184.005 663.77 184.675 663.36 185.345L662.048 185.677C661.508 186.441 660.816 187.296 659.945 188.164C658.748 189.353 657.56 190.219 656.566 190.837C655.624 191.947 654.68 193.056 653.736 194.164C653.071 194.726 652.254 195.528 651.487 196.614C650.887 197.463 650.469 198.272 650.174 198.952C649.416 199.781 648.657 200.61 647.897 201.439C647.661 201.805 647.314 202.379 646.956 203.118C646.638 203.779 646.619 203.937 646.378 204.396C645.667 205.76 645.145 205.701 645.023 206.33C644.779 207.587 646.545 209.464 648.149 209.964C648.428 210.051 648.982 210.186 649.609 210.615C650.1 210.952 650.431 211.329 650.634 211.595C652.461 212.875 654.287 214.156 656.115 215.437C657.556 216.27 658.997 217.103 660.438 217.936C660.839 218.077 661.44 218.334 662.067 218.803C662.747 219.312 663.136 219.835 663.238 219.965C663.803 220.689 665.344 221.922 669.485 224.168C670.122 225.452 670.758 226.738 671.395 228.022C671.675 231.457 672.078 235.097 672.64 238.913C673.208 242.768 673.881 246.402 674.613 249.802C674.765 250.124 675.036 250.822 674.912 251.696C674.857 252.087 674.738 252.409 674.624 252.645C674.214 253.894 673.818 255.388 673.549 257.093C673.31 258.603 673.216 259.979 673.2 261.178C673.34 261.521 673.574 261.984 673.97 262.449C674.624 263.216 675.376 263.585 675.798 263.754C676.026 266.328 676.255 268.903 676.483 271.478L677.76 271.946C677.593 272.222 677.434 272.526 677.291 272.859C676.502 274.696 676.635 276.469 676.835 277.562C676.331 278.875 675.837 280.401 675.432 282.121C674.985 284.015 674.741 285.753 674.613 287.263C673.547 290.464 672.534 294.178 671.777 298.352C670.77 303.912 670.467 308.918 670.486 313.116C670.401 313.043 670.315 312.971 670.23 312.898L670.275 315.413C670.079 315.533 669.906 315.666 669.754 315.805C667.845 317.577 668.66 321.133 668.844 321.867C668.432 322.263 667.86 322.875 667.32 323.716C666.383 325.176 666.085 326.476 665.84 327.455C665.477 328.915 664.902 330.991 663.969 333.694C663.455 335.047 662.782 337.113 662.389 339.712C662.153 341.277 662.124 342.336 662.009 345.035C661.934 346.797 661.814 349.434 661.638 352.725C661.996 352.929 662.796 353.456 663.249 354.468C663.298 354.578 663.423 354.877 663.543 355.559C663.656 356.193 663.762 357.135 663.664 358.329C663.173 358.72 662.683 359.112 662.193 359.503C662.098 359.718 661.388 361.387 662.254 362.71C662.389 362.914 662.596 363.164 662.918 363.397L662.969 367.114L662.17 367.772L662.181 370.652L662.15 371.926L662.664 373.054C662.386 373.375 662.023 373.873 661.759 374.552C661.6 374.962 661.516 375.338 661.472 375.646C661.341 376.278 661.209 376.912 661.078 377.544L659.953 378.75L656.769 384.41L655.421 384.635L654.154 386.971L654.159 388.029L653.397 388.943C653.278 389.199 653.158 389.517 653.072 389.891C652.911 390.605 652.946 391.221 653.006 391.641C652.996 392.522 653.209 393.165 653.437 393.613C654.582 395.866 657.99 396.935 661.952 396.307C663.109 395.474 664.568 394.232 665.946 392.465C667.968 389.872 668.917 387.304 669.382 385.638C669.723 385.685 670.062 385.733 670.402 385.778C670.847 385.307 671.336 384.724 671.816 384.024C672.293 383.33 672.659 382.67 672.939 382.089C672.955 381.298 672.971 380.508 672.987 379.718C672.882 379.67 672.779 379.623 672.675 379.575L672.247 372.799C672.684 372.495 672.898 371.985 672.789 371.521C672.684 371.074 672.323 370.845 672.239 370.794C672.493 370.308 672.746 369.822 672.999 369.334L672.863 362.447C673.164 362.024 673.644 361.211 673.729 360.112C673.758 359.726 673.734 359.381 673.688 359.091C673.286 358.668 672.884 358.244 672.481 357.821L673.199 355.121L675.745 353.836L675.986 350.154C676.105 348.975 676.372 347.016 677.058 344.685C678.198 340.811 679.587 339.002 681.827 333.879C682.382 332.606 683.193 330.666 684.064 328.223C684.121 327.323 684.178 326.424 684.235 325.526C686.547 322.116 688.088 319.188 689.05 317.197C691.238 312.67 691.8 310.145 694.394 304.351C695.732 301.358 696.944 298.99 697.72 297.522C698.553 296.209 699.681 295.744 700.192 296.056C700.718 296.377 700.577 297.511 700.563 297.622C700.224 297.631 700.064 297.736 699.98 297.842C699.426 298.55 701.25 300.74 701.413 300.933C701.385 301.149 701.34 301.708 701.638 302.317C701.912 302.88 702.332 303.181 702.515 303.298C702.718 305.253 702.919 307.208 703.122 309.164C703.006 309.407 702.805 309.917 702.835 310.586C702.864 311.202 703.076 311.661 703.206 311.895C703.472 311.943 703.739 311.99 704.007 312.038L704.284 317.467C704.227 317.59 704.146 317.779 704.067 318.014C703.603 319.399 703.774 320.715 704.113 322.065C704.949 325.383 706.965 329.561 707.174 329.992C707.008 330.937 706.877 332 706.823 333.164C706.736 334.996 706.862 336.621 707.059 337.973C707.265 340.632 707.469 343.291 707.673 345.951L708.647 352.652L708.956 357.061L712.166 358.141L712.544 361.674L711.71 362.698C711.727 363.84 711.743 364.982 711.761 366.124C711.992 366.354 712.223 366.583 712.454 366.813C712.397 367.554 712.339 368.295 712.282 369.036C712.516 369.921 712.75 370.808 712.985 371.694C712.736 371.912 712.587 372.135 712.494 372.324C711.784 373.749 713.105 375.496 713.181 375.593C713.208 376.261 713.235 376.928 713.262 377.596C713.382 377.708 713.712 378.047 713.777 378.578C713.802 378.799 713.775 378.989 713.742 379.126C713.708 380.145 713.677 381.165 713.643 382.187L713.976 383.205L714.062 386.558C714.301 386.969 714.59 387.413 714.942 387.866C715.647 388.779 716.388 389.467 717.026 389.972C717.184 389.959 717.343 389.947 717.5 389.934C718.049 390.946 718.817 392.164 719.883 393.423C720.904 394.629 721.931 395.559 722.808 396.253C723.478 396.631 725.94 397.912 729.168 397.334C732.497 396.739 734.388 394.565 734.861 393.983V391.614C734.833 391.256 734.733 390.604 734.335 389.904C733.947 389.221 733.455 388.806 733.165 388.597C732.359 387.555 731.553 386.515 730.747 385.473L730.055 385.476L724.45 377.917C724.311 377.764 724.118 377.51 723.974 377.154C723.81 376.749 723.787 376.389 723.788 376.171C723.605 375.928 723.421 375.686 723.239 375.444L723.529 375.296L723.263 372.091L722.749 371.51L722.219 366.192C723.259 364.537 723.255 362.851 722.458 362.146C722.303 362.008 721.956 361.766 721.291 361.75C721.261 360.486 721.232 359.224 721.202 357.96L723.532 357.149C723.69 354.573 723.839 350.736 723.671 346.07C723.517 341.794 723.199 339.568 722.977 336.271C722.726 332.51 722.588 327.147 723.172 320.491C724.143 320.452 725.115 320.411 726.086 320.371L725.144 302.846L722.74 302.965L722.661 301.654C722.958 301.415 723.186 301.16 723.365 300.906C725.185 298.316 722.897 294.146 722.631 293.672C722.621 291.256 722.612 288.839 722.602 286.421C722.77 285.51 722.452 284.666 721.829 284.311C721.495 284.12 721.145 284.112 720.917 284.132C720.764 282.189 720.61 280.246 720.458 278.303C720.326 277.047 720.029 275.429 719.346 273.644C718.884 272.433 718.347 271.413 717.84 270.588C718.155 270.356 718.47 270.124 718.786 269.892L718.005 266.106L717.78 264.613C718.6 263.987 719.568 263.067 720.357 261.76C720.979 260.729 721.514 259.843 721.438 258.658C721.329 256.943 720.014 255.828 719.641 255.53C719.403 255.321 718.947 254.857 718.687 254.113C718.355 253.158 718.556 252.333 718.643 252.037C718.326 248.855 718.011 245.674 717.694 242.492C717.534 241.594 717.408 240.595 717.356 239.505C717.242 237.152 717.5 235.106 717.842 233.491C718.374 232.639 718.904 231.787 719.436 230.935C722.103 230.392 724.293 229.842 725.88 229.414C728.639 228.673 731.071 227.899 733.96 226.979C735.01 226.645 735.878 226.361 736.472 226.168C740.165 225.802 743.132 225.033 745.247 224.348C748.734 223.219 751.944 222.139 752.256 220.107C752.343 219.545 752.185 219.072 750.72 216.638ZM689.064 206.222C688.353 206.548 688.11 208.015 688.636 209.877C688.15 209.82 687.477 209.803 686.707 209.969C686.322 210.053 685.987 210.167 685.705 210.284C684.93 209.79 684.338 209.404 684.015 209.191C682.26 208.043 681.54 207.529 680.515 207.56C680.24 207.57 680.018 207.616 679.89 207.647V207.104C679.237 207.166 678.561 207.248 677.861 207.356C676.216 207.609 674.713 207.961 673.367 208.354C673.319 208.192 673.066 207.383 672.301 207.033C671.439 206.639 670.274 206.985 669.575 207.953C668.991 207.274 668.182 206.475 667.1 205.739C664.997 204.309 662.921 203.836 661.675 203.658C662.136 203.181 662.634 202.603 663.124 201.913C663.808 200.949 664.288 200.025 664.628 199.245C664.764 198.955 664.958 198.616 665.232 198.266C665.729 197.632 666.28 197.235 666.674 197.001C668.149 195.951 669.4 195.059 670.534 194.283C671.026 193.946 671.824 193.409 672.022 192.478C672.098 192.121 672.065 191.808 672.024 191.596C672.906 191.654 673.485 191.695 673.859 191.724C674.459 191.767 674.813 191.795 675.234 191.616C675.372 191.558 675.682 191.407 675.939 191.108C676.588 190.356 676.349 189.304 676.314 189.166C676.315 189.141 676.357 188.675 676.778 188.457C677.21 188.232 677.625 188.485 677.641 188.496L688.595 192.02C688.658 192.36 688.722 192.699 688.783 193.04C688.785 193.445 688.785 193.851 688.785 194.254C688.392 194.766 687.848 195.631 687.613 196.81C687.084 199.474 688.57 201.577 688.875 201.992C688.753 202.231 688.631 202.523 688.54 202.866C688.323 203.679 688.384 204.388 688.464 204.833C688.525 204.749 688.764 204.444 689.192 204.36C689.425 204.314 689.62 204.352 689.73 204.383C689.813 205.015 689.897 205.647 689.981 206.279C689.495 206.083 689.211 206.156 689.064 206.222ZM728.655 212.192C726.834 212.634 725.491 213.42 724.678 213.987C724.634 213.874 724.032 212.408 722.466 212.075C721.3 211.827 720.073 212.305 719.341 213.296C717.941 212.937 715.957 212.587 713.577 212.679C711.483 212.759 709.74 213.157 708.459 213.551C708.229 213.356 707.893 213.112 707.444 212.922C707.154 212.801 706.886 212.729 706.664 212.686C706.458 212.427 706.314 212.172 706.213 211.941C705.475 210.276 706.305 208.531 706.535 208.083C706.831 207.845 707.041 207.856 707.124 207.869C707.581 207.94 707.982 208.664 707.939 209.69C707.993 208.244 708.047 206.799 708.101 205.353C708.755 204.878 709.835 203.964 710.692 202.472C711.469 201.121 711.74 199.864 711.846 199.088C711.819 199.01 711.694 198.673 711.335 198.492C710.842 198.242 710.357 198.514 710.321 198.535C710.532 198.036 710.744 197.537 710.954 197.039C711.238 197.2 711.42 197.176 711.51 197.149C711.957 197.018 712.242 196.204 712.085 195.114C712.061 195.024 712.065 194.953 712.098 194.899C712.321 194.543 713.835 194.988 716.643 196.234C716.587 196.633 716.559 197.287 716.806 198.022C716.903 198.309 717.335 199.474 718.436 200.068C718.873 200.304 718.912 200.179 719.626 200.494C720.54 200.895 720.778 201.23 721.215 201.409C721.758 201.631 722.64 201.626 724.129 200.616C723.875 201.063 723.605 201.725 723.791 202.391C723.993 203.105 724.628 203.493 724.903 203.672C726.286 204.572 727.136 206.1 728.281 207.286C729.277 208.319 730.66 209.836 732.281 211.895C731.391 211.83 730.12 211.839 728.655 212.192Z" fill="black" fill-opacity="0.5"/>
<path d="M532.147 369.945C471.665 371.673 362.581 374.913 289.786 377.504C169.685 381.608 153.485 382.471 111.579 388.303C66.8654 394.566 65.3533 394.998 54.3369 402.556C43.3205 410.115 25.8238 431.496 18.2635 445.966C16.1034 450.285 14.8074 457.844 15.0234 466.483C15.2394 479.225 15.2394 479.657 17.8315 474.041L20.4236 467.994L25.6078 479.009C28.4159 485.056 31.44 490.455 32.088 490.887C32.9521 491.319 33.3841 481.384 33.3841 468.642C33.1681 452.445 34.0321 444.022 36.1922 440.135L39.2163 434.735L41.8084 442.51C50.4488 467.346 71.1856 493.91 88.8982 502.981C96.8906 507.084 97.7546 507.084 105.963 504.061C114.387 500.605 114.603 500.605 127.78 507.948C135.124 512.052 154.349 520.69 170.549 527.385L199.927 539.695L237.944 535.16L276.178 530.625L291.082 543.151C317.867 565.827 328.452 571.658 373.381 589.152C414.639 605.349 418.959 606.429 453.952 611.828L490.674 617.227L510.547 636.449C521.347 647.031 532.363 656.749 534.955 658.045C539.492 660.421 539.708 660.205 539.708 649.191C539.708 638.608 540.572 636.664 551.804 622.627C558.5 614.204 564.117 607.293 564.333 606.861C564.765 606.645 584.205 599.518 607.966 591.311L650.736 575.978L679.681 582.673C706.682 588.72 711.866 589.152 751.18 589.152H793.518L869.12 558.916L944.723 528.681L994.405 489.807C1041.5 453.093 1045.38 449.637 1068.93 420.914C1082.54 404.284 1093.99 390.894 1094.2 391.326C1094.42 391.542 1093.77 404.068 1092.47 419.402C1091.18 434.52 1090.75 447.478 1091.18 448.125C1092.26 449.205 1102.41 423.289 1105 412.275L1106.95 404.932L1110.83 418.754L1114.94 432.576L1116.88 422.857C1120.12 406.444 1116.02 381.392 1108.46 373.185C1107.81 372.537 1033.93 371.457 944.075 370.593C854.216 369.945 749.452 368.65 711.434 368.218C673.417 367.57 592.846 368.434 532.147 369.945ZM910.162 372.105C992.245 372.753 1070.22 373.833 1083.62 374.481C1105 375.561 1108.24 376.208 1110.19 380.096C1114.94 388.951 1117.96 415.73 1114.51 419.186C1112.78 420.914 1112.13 420.482 1112.13 417.458C1111.91 415.082 1110.62 410.115 1109.11 406.66L1106.3 400.181L1103.71 409.899C1102.19 415.298 1099.17 424.369 1097.01 430.416L1092.91 441.214L1093.77 429.336C1094.42 422.857 1095.28 410.763 1096.15 402.772L1097.44 388.087L1104.79 392.838C1108.89 395.214 1112.13 396.509 1112.13 395.43C1112.13 394.566 1105.43 390.462 1097.44 386.575L1082.97 379.232L1060.5 381.608C1032.42 384.631 977.341 384.631 938.891 381.824C913.186 379.88 903.466 380.096 866.528 383.983C839.743 386.791 812.31 391.326 793.302 395.861C764.356 402.772 719.643 409.899 704.954 409.899C701.498 409.899 689.833 406.444 679.249 402.34L660.024 394.782H622.439C591.334 394.782 580.533 393.918 557.204 389.382C531.715 384.415 527.395 384.199 509.034 386.143C494.778 387.871 481.169 387.871 461.945 386.143C439.264 384.199 426.303 384.415 379.862 388.087C349.62 390.462 301.882 393.918 274.017 395.861C243.56 398.021 212.239 401.477 195.174 404.716L167.093 410.115L132.1 406.444C104.667 403.636 92.3544 403.42 74.8577 405.148C62.5452 406.228 52.3928 407.092 51.9608 406.66C51.5288 406.444 54.5529 404.068 58.6571 401.477C64.4893 398.021 76.8018 395.43 112.011 390.462C153.485 384.631 169.901 383.767 289.786 379.664C510.763 372.105 639.288 369.082 701.714 370.161C734.331 370.593 828.295 371.457 910.162 372.105Z" fill="black" fill-opacity="0.5"/>
<path d="M490.045 401.27C489.544 401.137 489.048 400.998 488.548 400.86C488.586 400.755 488.948 399.562 488.185 398.588C487.689 397.954 487.007 397.782 486.792 397.739C485.38 397.162 483.902 396.494 482.366 395.721C480.01 394.537 477.911 393.292 476.065 392.08C473.785 387.938 471.3 382.503 469.454 375.876C466.969 366.953 466.549 359.108 466.702 353.439C465.839 351.201 464.999 348.825 464.212 346.32C463.039 342.579 462.118 338.996 461.403 335.617C462.242 335.073 463.139 334.281 463.831 333.131C465.743 329.968 464.556 326.651 464.336 326.045C463.406 323.44 461.508 322.037 460.792 321.565C457.988 315.815 455.188 309.473 452.541 302.559C449.369 294.266 446.912 286.426 444.99 279.217C445.147 279.331 445.31 279.45 445.481 279.57C447.327 286.503 449.669 293.994 452.646 301.887C454.926 307.918 457.32 313.51 459.733 318.659C460.697 318.64 461.66 318.621 462.624 318.597C463.282 318.353 464.689 317.934 466.464 318.201C467.398 318.344 468.185 318.64 468.806 318.959C467.608 318.086 466.216 316.855 464.937 315.166C463.721 313.553 462.958 311.998 462.476 310.776C462.295 310.051 461.947 308.896 461.241 307.598C460.487 306.214 459.953 305.823 458.541 303.781C457.582 302.397 457.625 302.283 456.571 300.689C455.932 299.725 454.954 298.303 453.623 296.628C453.127 295.788 452.46 294.596 451.735 293.131C449.545 288.679 448.305 284.594 448.524 284.504C448.72 284.422 449.841 287.557 452.545 291.58C453.418 292.878 454.296 294.066 455.164 295.154C455.655 295.822 456.38 296.829 457.215 298.079C460.592 303.151 462.114 306.725 463.859 310.037C465.185 312.546 467.208 315.977 470.232 319.895C470.422 320.148 470.618 320.401 470.818 320.653C471.801 321.799 472.784 322.949 473.766 324.099C474.191 324.528 474.839 324.657 475.397 324.418C475.946 324.18 476.299 323.626 476.289 323.025C476.494 322.538 476.881 321.794 477.582 321.064C478.398 320.224 479.261 319.799 479.776 319.589C480.911 319.508 481.798 319.451 482.385 319.418C483 319.379 483.477 319.356 483.525 319.169C483.578 318.94 482.953 318.606 482.786 318.52C482.256 318.239 481.293 317.876 479.776 318.043C478.722 317.151 477.124 315.729 475.354 313.82C470.232 308.295 470.313 305.871 465.524 299.84C462.872 296.499 461.489 295.65 459.433 293.469C458.164 292.129 457.325 291.041 456.609 290.096C455.331 288.416 453.728 286.05 452.183 282.967C452.975 283.229 453.724 283.435 454.42 283.602C451.863 280.028 448.386 274.273 446.23 266.495C443.678 257.3 444.122 249.437 444.747 244.784C445.219 243.262 446.073 241.158 447.671 238.996C448.653 237.665 449.674 236.639 450.566 235.862C453.714 234.134 456.385 233.204 458.14 232.688C462.266 231.472 469.283 230.193 473.833 227.468C474.152 227.277 474.586 227.005 474.925 226.49C476.342 224.376 474.372 220.955 472.741 217.495C471.558 214.976 470.012 211.292 468.639 206.449C467.756 207.413 466.874 208.377 465.991 209.346L462.614 210.066L453.456 199.459C453.103 198.633 452.34 197.173 450.824 195.88C449.722 194.945 448.62 194.444 447.866 194.167C445.147 192.96 442.433 191.748 439.719 190.541C438.398 189.362 437.077 188.179 435.756 187C434.344 187.057 432.927 187.11 431.515 187.162L424.781 188.608V190.297C423.436 190.226 421.299 190.307 418.976 191.285C413.91 193.423 411.94 198.137 411.525 199.215C407.008 200.299 403.112 202.952 402.353 206.359C401.242 211.335 406.651 218.717 416.586 219.953C416.763 220.502 417.158 221.461 418.022 222.386C418.785 223.207 419.596 223.656 420.106 223.885C419.963 225.65 419.82 227.416 419.677 229.181C417.602 230.121 415.527 231.066 413.452 232.006C412.16 232.369 410.328 233.084 408.616 234.592C404.018 238.624 404.242 244.78 404.294 245.748C403.937 249.031 403.212 252.982 401.771 257.3C400.922 259.839 399.959 262.101 398.99 264.071C397.154 265.684 394.898 267.407 392.194 269.024C390.877 269.812 389.599 270.484 388.387 271.062C389.27 271.544 390.157 272.026 391.039 272.508L393.21 274.679L386.217 287.939L384.052 292.763L382.606 297.583C382.506 298.818 382.826 299.692 383.045 300.145C383.985 302.139 386.37 303.461 387.424 302.889C387.801 302.683 387.987 302.249 388.249 302.326C388.621 302.431 388.44 303.356 388.907 303.638C389.15 303.79 389.589 303.771 390.429 303.223C391.23 303.977 392.384 304.167 393.291 303.719C394.402 303.17 394.96 301.734 394.445 300.426C394.097 299.878 393.744 299.2 393.477 298.389C393.405 298.174 393.343 297.96 393.291 297.754C393.195 295.345 393.105 292.935 393.009 290.525C395.704 286.236 398.399 281.946 401.094 277.656L404.018 281.364C403.498 281.946 402.978 282.533 402.458 283.12C404.342 282.662 406.231 282.208 408.115 281.75L409.479 283.511L405.773 289.752L405.191 295.02C404.9 295.497 404.609 295.97 404.318 296.447C403.961 298.251 403.598 300.05 403.24 301.853L399.534 310.051C398.385 314.679 397.235 319.308 396.086 323.941C395.485 324.347 393.729 325.654 393.009 328.069C392.89 328.474 391.965 331.767 393.982 334.338C395.26 335.966 397.063 336.467 397.955 336.715C399.372 337.111 400.607 337.068 401.385 336.982C399.73 341.73 398.07 346.477 396.41 351.225C396.563 356.894 396.143 364.739 393.658 373.661C391.812 380.289 389.327 385.724 387.047 389.866C385.201 391.078 383.102 392.323 380.746 393.507C379.21 394.28 377.732 394.948 376.32 395.525C376.105 395.568 375.423 395.74 374.927 396.374C374.164 397.348 374.526 398.541 374.564 398.646C374.064 398.784 373.568 398.922 373.067 399.056C373.048 400.025 373.024 400.998 373 401.967H387.247C392.079 400.96 396.911 399.958 401.743 398.951C401.709 398.254 401.671 397.558 401.633 396.856C400.741 396.871 399.844 396.88 398.952 396.89C399.181 396.298 399.544 395.129 399.386 393.645C399.262 392.462 398.852 391.56 398.561 391.035C398.38 390.372 398.218 389.589 398.137 388.711C397.979 387.055 398.151 385.643 398.366 384.598C402.072 374.969 405.778 365.34 409.484 355.715C409.56 352.327 409.856 348.582 410.509 344.569C410.781 342.908 411.096 341.324 411.435 339.812C415.103 340.284 418.713 338.743 420.764 335.803C423.436 331.981 422.129 327.715 421.971 327.224C422.214 325.296 422.586 323.159 423.149 320.863C423.722 318.511 424.399 316.392 425.091 314.536C425.82 307.641 426.774 302.683 427.313 302.598C428.076 302.473 428.677 302.793 428.677 302.793C429.078 303.008 429.321 303.323 429.455 303.533C432.617 312.795 435.78 322.056 438.942 331.323C439.219 337.698 442.391 341.878 445.338 341.973C445.663 341.983 446.612 341.964 447.852 341.1H447.857C449.779 346.711 451.706 352.318 453.633 357.929C457.339 367.554 461.045 377.183 464.751 386.812C464.966 387.857 465.138 389.269 464.98 390.925C464.899 391.803 464.737 392.586 464.556 393.249C464.265 393.774 463.855 394.676 463.731 395.859C463.573 397.343 463.936 398.512 464.165 399.104C463.273 399.094 462.376 399.085 461.484 399.07C461.446 399.772 461.408 400.468 461.374 401.165C466.206 402.172 471.038 403.174 475.87 404.181H490.112C490.088 403.212 490.064 402.239 490.045 401.27ZM410.142 269.917C409.141 271.849 408.005 273.338 407.047 274.412C408.158 272.236 409.293 269.673 410.29 266.748C411.115 264.334 411.711 262.067 412.145 260.02C412.188 261.204 412.236 262.392 412.279 263.58C411.993 265.207 411.411 267.469 410.142 269.917ZM441.618 222.716C440.969 222.825 439.977 223.074 438.904 223.684C437.893 224.262 437.196 224.944 436.777 225.426H433.772V226.786H430.19C429.965 226.667 429.398 226.328 429.026 225.622C428.615 224.849 428.697 224.119 428.735 223.875C429.35 223.66 430.247 223.264 431.158 222.52C432.341 221.551 432.975 220.459 433.29 219.805C433.962 219.881 442.09 220.678 446.187 215.105C446.855 214.198 449.197 211.016 448.009 207.499C447.041 204.626 444.07 202.565 440.454 202.269C439.906 200.523 439.357 198.781 438.808 197.035C439.815 197.397 441.165 198.065 442.295 199.363C442.705 199.831 442.81 200.065 443.082 200.361C443.85 201.186 445.4 201.916 448.882 201.396C450.504 203.348 452.254 205.729 453.919 208.568C455.102 210.581 456.056 212.509 456.824 214.284C456.213 214.675 455.512 215.181 454.792 215.835C454.119 216.441 453.576 217.042 453.146 217.577C455.693 218.774 458.245 219.967 460.797 221.165C458.088 221.642 455.145 222.048 451.983 222.324C448.253 222.654 444.78 222.754 441.618 222.716Z" fill="black" fill-opacity="0.5"/>
</svg>
