<svg width="1500" height="897" fill="none" xmlns="http://www.w3.org/2000/svg"><g filter="url(#a)"><path d="M917.516 510.336c-4.639-6.712-9.218-14.05-21.574-36.961-8.152-15.121-12.227-22.683-15.698-29.769-5.786-11.809-13.171-28.065-20.602-48.203.906-.836 1.812-1.67 2.722-2.506l-1.903-.585c.014-.371.122-1.992 1.448-3.319 1.417-1.418 3.18-1.453 3.52-1.453 0-.648-.011-1.568-.07-2.675-.109-2.118-.165-3.175-.434-3.847-.875-2.189-4.111-2.878-5.647-3.102.014 1.162-.594 2.219-1.549 2.671-1.249.592-2.911.073-3.726-1.316-.322-.869-.64-1.74-.962-2.609l1.77-2.619c.133-.028.318-.073.528-.154.325-.119.833-.311 1.102-.689.095-.133.214-.364.147-1.411a12.058 12.058 0 0 0-.248-1.789 10.235 10.235 0 0 1-.452-1.639c-.335-1.817.053-2.601-.279-3.616-.217-.673-.784-1.555-2.383-2.335a11.868 11.868 0 0 0-3.124-3.589 11.807 11.807 0 0 0-3.187-1.733c-.598-1.026-1.196-2.055-1.795-3.081a9.26 9.26 0 0 0 2.824-2.038 9.301 9.301 0 0 0 1.434-2.016 46.347 46.347 0 0 0-.934-6.071c-1.232-5.532-2.642-7.058-3.436-7.758a8.055 8.055 0 0 0-1.623-1.114 44.075 44.075 0 0 0 1.819-3.508c.602-1.306.906-1.971 1.008-2.678.28-1.968-.553-3.603-.966-4.39-.818-1.558-1.557-1.926-2.694-3.281-.916-1.085-2.071-2.787-2.917-5.37.049-1.271.087-3.2-.028-5.557-.161-3.329-.49-4.73.22-5.157.934-.556 2.869 1.04 4.314 2.234a23.038 23.038 0 0 1 4.261 4.646 34.581 34.581 0 0 0-1.47-8.721 34.43 34.43 0 0 0-3.459-7.769 10.902 10.902 0 0 1 5.758 1.565c-2.697-6.127-6.343-10.097-8.578-10.23-1.518-.091-3.362.206-3.362.206-.959.158-1.739.368-2.278.533l.462-3.684-1.193-1.064c.448-.262 1.186-.791 1.421-1.67.122-.469.052-.861.014-1.078-.217-1.226-.466-2.665-.749-4.261-.612-3.214-1.658-8.396-3.019-13.647-.245-.942-.602-2.279-1.634-3.659-1.564-2.09-3.603-2.857-6.227-3.914a261.42 261.42 0 0 1-9.393-4.002l-1.673-3.2-2.256.007-9.285-6.732-1.34-9.26v-1.068h.826l.273 4.418a.532.532 0 0 0 .437.553.53.53 0 0 0 .591-.36c.035.052.161.217.357.238.259.028.553-.207.63-.585.031.025.238.196.518.144a.604.604 0 0 0 .349-.2c-.311-2.065-.626-4.128-.941-6.19.172-.469.403-1.138.648-1.957.825-2.769.657-3.497.528-3.872-.126-.357-.395-.907-1.05-1.463v-2.255h1.176l-1.176-1.187 1.882-.721-1.882-1.537h.941l-.941-2.731v-.952l-1.231-1.303 2.368-1.908h-2.368l.696-2.724-2.253 1.075-1.557-4.267v2.849l-4.044-4.498.602 2.135a8.266 8.266 0 0 0-4.877-2.948v1.541l-4.632-2.476 1.435 2.728a21.976 21.976 0 0 0-3.247-.889 21.886 21.886 0 0 0-4.114-.389 712.57 712.57 0 0 1 2.141 1.537 13.344 13.344 0 0 1-6.406 1.33c.361.592.718 1.184 1.078 1.779l-3.082 1.078 1.784.826-5.444 4.058 3.796-.014-2.956 2.626 1.424-.007c-.511.49-1.025.977-1.536 1.467.532.28 1.06.564 1.592.847a10.018 10.018 0 0 1-2.32 4.107c.92-.319 1.841-.637 2.761-.959l-1.771 2.856h1.662l-.699 3.204c.668.308 1.332.62 2.001.928-.088.591-.252 2.296.72 4.05 1.4 2.525 4.023 3.106 4.429 3.19l.263 6.414-2.6 2.979-7.745-8.049a4.865 4.865 0 0 0 1.875-1.873 4.873 4.873 0 0 0 .602-2.647l1.889-2.027-3.219-4.145c-.273-.158-.962-.511-1.861-.427-1.497.136-2.302 1.348-2.407 1.512l-3.078 2.388-.476-.235 2.127-2.622c.115-.112.64-.641.661-1.474a2.135 2.135 0 0 0-.315-1.141 4097.468 4097.468 0 0 1-4.817-3.26 3966.18 3966.18 0 0 1-.787-3.252 2.372 2.372 0 0 0-.987-.606c-.839-.259-1.557.053-1.745.144-.063-.634-.277-1.838-1.057-2.167-.073-.032-.227-.084-1.182-.116a24.763 24.763 0 0 0-1.407-.01c-.119-.417-.238-.834-.353-1.25a1.832 1.832 0 0 0-.416-.483c-.973-.799-2.428-.287-2.603-.224-1.025.441-2.054.878-3.079 1.319l-11.559-11.48c.27-.483.182-1.071-.188-1.407-.291-.27-.725-.35-1.12-.217-1.945-1.624-3.89-3.252-5.835-4.88-.242-.074-2.148-.638-3.681.483-1.539 1.127-2.071 3.494-1.046 5.591 1.627 1.46 3.257 2.92 4.884 4.376a.855.855 0 0 0 .235.952.858.858 0 0 0 .955.112c4.065 4.083 8.126 8.165 12.188 12.247a14.037 14.037 0 0 0-2.69 4.166 13.931 13.931 0 0 0-1.067 5.462c-.584.298-1.214.679-1.858 1.173-2.039 1.572-3.134 3.49-3.701 4.744a7.054 7.054 0 0 0-2.068-.539 7.104 7.104 0 0 0-2.004.07c-2.159 3.273-4.321 6.55-6.483 9.824-.038.63-.08 1.264-.119 1.897-3.033 2.962-6.07 5.924-9.103 8.889a7.084 7.084 0 0 0-1.48 1.996c-.475.956-.594 1.765-.85 4.219a267.16 267.16 0 0 0-.36 3.77c-.462 3.053-.927 6.103-1.389 9.152a8.658 8.658 0 0 0 1.375 2.223 8.74 8.74 0 0 0 3.254 2.367c3.096.098 6.195.193 9.295.287-.833 1.369-1.665 2.738-2.495 4.107l23.492 29.363c-.322.305-2.48 2.416-2.263 5.588.136 2.013 1.158 3.396 1.588 3.917a5.121 5.121 0 0 0 1.686 2.154c1.984 1.446 4.314.833 4.65.738.07.851.143 1.698.213 2.546l1.55 1.656c-.57-.207-1.123.143-1.204.556-.08.403.28.925.868.97.003 1.155.007 2.307.014 3.463 1.081.861 2.166 1.722 3.25 2.58l.084 4.299c-.007.165-.025.973.588 1.649a2.328 2.328 0 0 0 1.322.718c.004.714.004 1.425.007 2.139l.014 3.088.717 1.421-.112 1.901.599.589a393.668 393.668 0 0 1-3.936 21.948 398.936 398.936 0 0 1-4.104 17.638 217.537 217.537 0 0 0-8.525 35.427 262.638 262.638 0 0 0-5.227 24.991 263.973 263.973 0 0 0-2.659 23.499 13.596 13.596 0 0 0 3.296 2.027c1.616.693 3.068.942 4.075 1.033-.178.427-.661 1.729-.059 2.842.252.47.756 1.016 2.816 1.614 1.218.354 3.072.753 5.454.739-.231 1.978-.462 3.96-.689 5.941-.665 1.492-1.438 2.444-2.026 3.043-.51.518-1.074.966-1.182 1.736-.102.736.273 1.345.437 1.621 1.197 1.957 4.251 2.126 4.702 2.143-.273 1.348-.542 2.696-.815 4.04l1.781.588c-.672 4.408-1.347 8.816-2.022 13.224.437 1.351.097 2.769-.851 3.574-.79.669-1.731.687-2.043.68l-.231 1.901-12.881 14.067c-1.98 1.803-3.823 2.829-5.195 3.441-2.547 1.135-4.579 1.341-5.286 2.941-.413.939-.189 1.957.07 2.686a35.23 35.23 0 0 0 8.917 1.39c4.003.101 7.34-.501 9.723-1.121a21.358 21.358 0 0 0 5.828-2.944 21.152 21.152 0 0 0 2.694-2.3 65.975 65.975 0 0 1 3.879-2.052c2.712-1.32 3.555-1.502 4.314-2.395.665-.777 1.473-2.335.906-5.566l-.157-9.978 1.42-1.429a11.03 11.03 0 0 1-.623-2.937 11.165 11.165 0 0 1 .357-3.715 251.122 251.122 0 0 0 2.341-8.56l1.36-.609c-.024-1.106-.045-2.209-.07-3.316l3.551-2.268c.266-.147 1.33-.774 1.784-2.118.557-1.646-.258-3.036-.377-3.235a11.099 11.099 0 0 1 1.752-7.013 14.998 14.998 0 0 1 5.927-2.003c4.883-.556 8.595 1.513 9.858 2.297a23.215 23.215 0 0 0 9.075 2.174 23.176 23.176 0 0 0 9.915-1.89 16.858 16.858 0 0 1 3.582-1.191 17.073 17.073 0 0 1 6.283-.136c.353 1.575.71 3.154 1.067 4.73l-1.637 5.826 6.902 5.318v2.849l.983.358c.431 4.786.857 9.575 1.288 14.361-.126.105-1.036.903-1.022 2.227.011 1.288.892 2.058 1.022 2.17-.175.077-.427.21-.69.424-.972.802-1.469 2.265-1.161 6.816a52.47 52.47 0 0 0 .787 6.183c.798.088 1.809.287 2.914.728a11.415 11.415 0 0 1 4.1 2.808 49.425 49.425 0 0 0 13.683 8.501c5.237.332 9.47.105 12.416-.179 4.166-.399 5.618-.896 5.971-1.911.613-1.772-2.403-4.251-2.865-4.622l-8.921-4.835a45.692 45.692 0 0 1-3.971-3.844c-2.249-2.461-3.036-3.83-4.67-5.713-1.333-1.541-3.386-3.589-6.437-5.627a12.94 12.94 0 0 0-.563-3.872 12.967 12.967 0 0 0-.7-1.785l-.388-12.44 1.077-.913-.399-4.226c1.729-1.404 3.457-2.808 5.189-4.208a8.569 8.569 0 0 0-.077-3.162 8.602 8.602 0 0 0-1.354-3.098l-.021-4.751 1.896-1.313-.262-4.331c1.623-1.509 3.246-3.018 4.873-4.527-.903-6.512-1.802-13.024-2.704-19.536l11.464 17.772 2.134-.011 4.373-4.649c-1.553-1.894-3.11-3.788-4.664-5.679h-.461c.014-.042.336-1.036-.322-1.789-.462-.522-1.092-.574-1.228-.581l-13.854-21.801-1.34-9.495 19.563 25.698-.353 1.425 4.985 5.682 3.915-5.955-2.862-3.908-1.784-1.298-6.93-11.613 7.756 10.184 2.253.109 2.711-5-.717-1.302-25.28-30.309 4.156.105-13.01-50.072 4.863-.613 1.563 5.336c-1.014 3.323-.836 4.415-.419 4.74.077.06.363.256.692.61.343.364.564.721.7.969-.21.47-1.001 2.346-.231 3.41.231.316.77.795.896.907.444.396.846.683 1.137.876-1.025 1.228-.931 2.132-.882 2.419.102.567.63 1.183 1.679 2.394.417.484.77.869 1.004 1.117-.391.9-1.256 3.113-.412 3.921.23.218.486.242 2.438.652.654.133 1.182.248 1.508.318.731 1.219.717 2.672-.028 3.662-.616.82-1.519 1.044-1.826 1.107-.389.028-.777.052-1.165.08-.137.578-.595 2.868.699 5.213 1.631 2.962 4.716 3.592 5.15 3.673.161-.494.724-2.01 2.295-3.011a5.461 5.461 0 0 1 2.319-.809 588.256 588.256 0 0 0 32.368 71.653 587.996 587.996 0 0 0 28.98 48.426 35.551 35.551 0 0 0 18.091 12.758 243.43 243.43 0 0 1-14.568-19ZM759.129 304.849a7.82 7.82 0 0 1-.941 2.286c-.79-.732-1.581-1.46-2.372-2.192-.293-.668-.675-1.054-.983-1.285-1.514-1.13-4.191-.696-6.64 1.131l-21.434-27.171h31.429a156.091 156.091 0 0 0 1.116 24.745 7.872 7.872 0 0 1-.175 2.486Zm-3.589-58.03-9.547 7.1-3.957-.679-2.487 2.233-4.506.641 1.798-2.02 1.662-.424 5.45-7.723c.158-.385.336-.928.41-1.6a5.726 5.726 0 0 0-.147-2.013 13.526 13.526 0 0 0-4.317-4.495c1.196-1.299 2.393-2.598 3.589-3.901l.343-1.249c.266.01.661.049 1.109.203.549.189.906.458.997.521 1.088.767 4.058.473 5.457.357a66.851 66.851 0 0 1 4.993-.227 15.131 15.131 0 0 1-1.477 1.383c-.556.458-.906.679-1.004 1.12-.098.438.109.854.277 1.113l-1.659 1.534c-.073.08-.703.798-.507 1.75.123.61.514.974.658 1.096.462.508.927 1.016 1.392 1.523.242.305 1.134 1.376 2.085 1.24.277-.039.606-.189.969-.351a8.28 8.28 0 0 0 1.039-.56c.382.025.941.018 1.596-.143a5.446 5.446 0 0 0 2.008-.981 6.129 6.129 0 0 0 1.724-2.02l5.853 6.572H755.54Z" fill="#000" fill-opacity=".9"/></g><g filter="url(#b)"><path d="M1206.99 319.106c-.75-1.107-1.49-2.216-2.24-3.324l-4.8.902c-3.19-2.565-5.91-3.052-7.7-3.053-.13 0-.26.001-.4.007-.03-.325-.1-.826-.26-1.42-.27-1.018-.62-1.596-1.07-2.574-.25-.541-.59-1.344-.92-2.372 1.23-.913 2.45-1.827 3.68-2.74.21-.232.61-.726.8-1.472.21-.805.08-1.476 0-1.782l4.03-2.617h-2.58a56.587 56.587 0 0 0 3.57-6.136 55.861 55.861 0 0 0 4.01-10.624c-1.55 1.235-3.1 2.467-4.64 3.702l.54-12.463c-.93 1.343-1.87 2.688-2.8 4.03l-1.92-13.136-3.42 4.664.03-4.6c-.85 1.201-1.71 2.399-2.56 3.599l-2.16-9.697-5.73 5.948c-1.32 1.081-2.63 2.16-3.94 3.24l.07-6.421c-1.54 1.455-3.09 2.91-4.63 4.366l.21-3.752a30.903 30.903 0 0 0-6.21 7.264 30.097 30.097 0 0 0-2.21 4.309c-.29-1.28-.58-2.56-.88-3.842-.9 2.137-2.35 6.434-1.72 11.836a23.183 23.183 0 0 0 2.17 7.399 46.286 46.286 0 0 1-2.81-2.898 45.666 45.666 0 0 1-3.39-4.344c1.04 4.059 2.09 8.119 3.13 12.178-.16 2.288-.15 4.915.22 7.785.12.879.26 1.722.42 2.525.43-.995.86-1.992 1.3-2.987l1.58 4.847c.36.37.8.769 1.32 1.156 1 .739 1.98 1.183 2.74 1.455.29.676.77 1.576 1.57 2.471.46.507.92.904 1.32 1.208l.63 4.497c-1.05.055-2.65.264-4.45 1.027-1.93.823-3.26 1.94-4.03 2.695-.29-.007-.62.008-.96.055-1.33.185-2.33.779-2.93 1.225a27.08 27.08 0 0 0-5.1 1.789 27.457 27.457 0 0 0-4.54 2.697l-4.89 2.446a12.39 12.39 0 0 0-.84 5.16c.18 3.52 1.82 5.987 2.56 6.967-.1.545-.18 1.318-.05 2.224.08.556.22 1.031.36 1.414-.13.87-.35 2.308-.64 4.097-.53 3.324-.65 3.92-.64 4.856.01 1.254.24 3.139 1.39 5.455a14.045 14.045 0 0 0-4.5-.944c-3.68-.147-6.46 1.217-7.73 1.95a6.004 6.004 0 0 0-2.02-.851c-1.76-.37-2.78.289-4.45.321-.95.017-2.3-.165-3.95-1.097v-3.539l-.57-.604.25-.759a7.28 7.28 0 0 0-.72-2.222 7.337 7.337 0 0 0-1.11-1.613c-.28-.25-.76-.613-1.42-.702-1.18-.158-2.43.607-3.13 1.933a4.205 4.205 0 0 0-3.89-.539l-3.78 3.705c-1.2.467-1.76 1.58-1.49 2.387.22.671.96.95 1.1 1.001v.708l-1.11 1.015c.04.277.13.729.41 1.211.32.555.73.889.97 1.058h.3l.76.855c.06.321.22.881.66 1.413.87 1.044 2.13 1.139 2.38 1.153-.01.153-.01.567.26.959.48.689 1.36.655 1.42.651l2.38 1.557a4.61 4.61 0 0 0 1.37 2.522 4.552 4.552 0 0 0 2.44 1.153c2.38.3 3.76 1.132 4.59 1.86.67.594 1.31 1.416 2.6 1.802.78.235 1.59.243 1.87.245.81.004 1.49-.124 1.97-.245.7.482 1.81 1.145 3.29 1.589 2.17.654 3.04.206 7.03.226 3.86.019 4.63.445 7.13-.028 1.37-.26 2.46-.64 3.18-.923l.66.724-.76.742-.04 2.325.71.351-.6 1.924 1.37.955-4.47 8.307a90.19 90.19 0 0 0-1.59 7.084c-1.25 6.938-1.26 11.91-1.45 16.738-.17 4.362-.57 10.641-1.6 18.406a49.989 49.989 0 0 0-1.47 11.684c-.01 2.82.21 5.369.54 7.58a102.384 102.384 0 0 0-.95 15.825c-.32 2.188-.53 4.919-.32 8.04.24 3.83 1.02 7.038 1.8 9.446.08.948.18 2.425.27 4.245.14 2.964.08 3.72.37 4.902.29 1.154.95 2.818 2.65 4.639l1.48 3.483-.24 4.197 2.13 1.609-2.62.414a6.67 6.67 0 0 0-.91 1.875c-.58 1.901-.17 3.559.07 4.295l.96 1.21-.04 2.072c-.08.129-.34.547-.3 1.113.08.821.73 1.257.82 1.311a19.167 19.167 0 0 1-3.32 5.017 47.213 47.213 0 0 1-12.65 8.594c-.52.234-3 1.398-3.83 4.058a6.022 6.022 0 0 0-.24 2.276l.11 2.275a37.926 37.926 0 0 0 24.25-3.381c4.29-1.703 6.62-2.267 7.98-2.419.36-.04 1.45-.139 2.52-.857.75-.499 1.22-1.12 1.51-1.572l-.06-1.871a12.953 12.953 0 0 0 1.1-5.111c.02-3.169-1.13-5.53-1.75-6.614l.7-3.542-.31-.302.2-1.013 2.17-1.069.89-3.846a6.668 6.668 0 0 0-1.87-1.154 6.9 6.9 0 0 0-1.37-.399c.03-.287.07-.574.1-.861l1.97-.968-.01-1.871a26.878 26.878 0 0 0 4.89-2.395c1.56-.964 2.51-1.555 3.38-2.59.75-.895 1.49-2.167 2.2-6.581.32-2.013.65-4.729.73-7.99a18.237 18.237 0 0 1-1.43-3.887c-.49-1.968-.39-2.991-.78-5.153-.2-1.084-.56-2.698-1.28-4.645a33.867 33.867 0 0 0 1.48-7.336c.32-3.501.05-6.499-.33-8.744l1.68-9.359 2.75 4.639a71.177 71.177 0 0 0 2.81 9.088 71.865 71.865 0 0 0 3.16 7.013c.19 1.957.54 4.211 1.14 6.668a46.64 46.64 0 0 0 2.15 6.564c-.16 1.55-.22 3.599.12 5.965.32 2.194.89 4.021 1.44 5.403l-.93 7.436a5.23 5.23 0 0 0-.14 2.881c.47 2.001 1.97 3.04 2.33 3.276l7.05 4.37 2.11-1.778a.895.895 0 0 1 .56-.254c.37-.023.62.212.66.25l.87 4.648 2.75-.012.6 2.374-3.13 2.034.78 3.081 1.82.801.1.91c-.06.22-.1.499-.04.809.18 1.139 1.39 1.662 1.52 1.713-.13.235-.27.473-.4.708l1.02 1.615c-.2 1.834-.26 4.172.18 6.823.19 1.21.47 2.308.77 3.284l.91 1.514a38.382 38.382 0 0 0-.23 6.32c.05.936.13 1.831.23 2.678v1.667c.61.519 4.6 3.77 10.16 2.944 4.59-.682 7.27-3.692 7.92-4.478v-2.932c-.01-.76-.1-1.757-.42-2.88a11.002 11.002 0 0 0-1.64-3.38 33.172 33.172 0 0 0-1.54-7.576 34.02 34.02 0 0 0-2.7-6.106l.03-3.893-.85.56.75-.963-.01-1.566-.56-.908 1.42-1.068-.68-4.142-3.38.418-.47-2.678 2.22-.868-.72-4.647c.23-.076.73-.275 1.16-.763a2.7 2.7 0 0 0 .55-1.013c1.29-.079 3.47-.433 5.33-1.979.77-.632 1.41-1.576 2.69-3.46.68-1.003 1.01-1.61 1.15-2.431.17-.999-.04-1.851-.21-2.376-.78-1.491-2.05-3.864-3.77-6.708-2.82-4.668-4.25-6.326-6.36-10.035a66.772 66.772 0 0 1-4.07-8.578c-.1-2.545-.19-5.088-.29-7.633l-7.1-20.496a43.157 43.157 0 0 1-.58-4.446 44.1 44.1 0 0 1-.11-3.891c-1.19-5.489-2.37-10.978-3.55-16.466a41.79 41.79 0 0 1-1.09-6.516 41.147 41.147 0 0 1-.16-3.041c-.06-3.591-.62-9.18-3.35-15.296a38.189 38.189 0 0 0-4.83-8.018l.15-1.466c.08-.131.27-.503.24-1.012a1.814 1.814 0 0 0-.35-.96c.03-1.365.05-2.729.08-4.094v-.758c.49-.152.79-.587.75-1.014-.04-.431-.41-.674-.45-.707.06-.387.13-.774.19-1.164.13-.053.49-.218.71-.609.25-.458.2-1.041-.11-1.516.58.048 1.04-.399 1.04-.858-.01-.354-.29-.697-.69-.811.33-.289.67-.576 1.01-.864.05 0 .84-.029 1.26-.713.29-.476.29-1.082-.01-1.566.53-.589 1.23-1.269 2.12-1.93.74-.549 1.45-.961 2.07-1.272.32 1.399.93 3.228 2.09 5.148.55.906 1.13 1.677 1.68 2.319-.04.718-.13 4.399 2.65 7.32 1.77 1.853 3.83 2.487 4.77 2.712 1.88.414 4.99.826 8.64.017a19.8 19.8 0 0 0 4.7-1.687c.52.019 2.59.034 4.34-1.483 1.02-.887 1.49-1.914 1.71-2.484.59-.209 2.75-1.047 4.03-3.352.82-1.478.9-2.881.89-3.593l1.71-2.485 2.37-2.537c.21-.129.62-.425.91-.965.21-.406.28-.784.3-1.012l-.81-.553c.24-.254.5-.573.75-.962.5-.783.73-1.535.85-2.076l-1.47-1.713a47.013 47.013 0 0 1-2.99-2.718c-.89-.872-1.69-1.732-3-2.112-.66-.194-1.1-.159-1.46.006-.61.277-.88.86-.96 1.065l-2.43-1.405a1.5 1.5 0 0 0-.86-.249c-.45.013-.76.23-.86.306-.9 1.335-1.81 2.67-2.71 4.003-.05.456.08.747.16.88.37.638 1.31.938 2.32.678-.19.343-.4.803-.55 1.367a6.235 6.235 0 0 0-.2 1.922c-.19.148-.65.536-.9 1.217-.3.8-.11 1.495-.05 1.719l-2.93-.032a7.614 7.614 0 0 0-5.06-.997c.12-.473.23-.944.35-1.417.24-1.244.44-2.948.28-4.955-.18-2.37-.8-4.271-1.33-5.555.35-.84.7-1.876.95-3.088.16-.809.25-1.559.29-2.226a10.751 10.751 0 0 0 2.21-4.254c.18-.758.35-1.55.49-2.378a38.4 38.4 0 0 0 .58-7.333 76.622 76.622 0 0 0-7.35-4.47 76.269 76.269 0 0 0-7.9-3.66c-.35-.302-.71-.604-1.06-.906l-2.22-.524-.01.002Z" fill="#000" fill-opacity=".9"/></g><g filter="url(#c)"><path d="M412.188 303.569a34.938 34.938 0 0 1 6.561-7.982c9.602-8.632 26.181-13.582 40.726-6.973 17.212 7.819 20.676 26.872 21.392 30.807 4.524 24.881-13.679 46.344-21.392 48.656-.636.193-3.537.953-6.963 2.935-3.148 1.82-5.663 3.275-7.042 5.862-2.464 4.614 1.276 8.219.347 15.667-.495 3.97-2.057 7.011-3.151 8.797-11.807-17.769-19.826-25.83-24.055-24.178-1.844.719-2.965 3.285-3.371 7.696a22.583 22.583 0 0 1-.224 6.502 22.636 22.636 0 0 1-2.69 7.307l-.138 6.361a39.554 39.554 0 0 0 5.697 6.1 15.858 15.858 0 0 1 2.594 5.573c.554 2.27.496 4.214.358 5.48 2.199 5.745 4.4 11.487 6.599 17.233a42.44 42.44 0 0 0 3.584 1.303c1.566.492 3.038.857 4.387 1.125l3.02 6.434c.055.206.155.695-.055 1.228-.416 1.056-1.641 1.256-1.703 1.262l-.295 2.756-.269.234a625.405 625.405 0 0 1 16.077 33.564 529.638 529.638 0 0 0-17.818-32.487l-1.238-.805c-.361.003-.719.007-1.08.014l-.327 1.427.199.671c2.815 5.904 5.629 11.804 8.446 17.707 2.945 6.179 5.894 12.354 8.838 18.533a300.941 300.941 0 0 1-10.379-17.542 302.078 302.078 0 0 1-9.382-18.663l-.615-.3c-.733.155-1.466.31-2.195.468a264.024 264.024 0 0 0 7.372 16.025 264.32 264.32 0 0 0 9.544 17.401 288.883 288.883 0 0 1-9.41-15.564 289.66 289.66 0 0 1-9.378-18.13c-.657-.035-1.317-.066-1.975-.1l-2.714-2.78-1.964-4.42-1.39-2.085-.086-3.303-1.913-1.476.086-2.608-7.125-11.032a24.382 24.382 0 0 1-5.473-7.559 30.013 30.013 0 0 0-1.892-4.964 28.268 28.268 0 0 0-1.064-1.985c-.667-1.449-1.331-2.897-1.998-4.345l-4.865 5.559-1.218 5.56 1.043 1.999-1.39 3.388 5.212 4.517a30.521 30.521 0 0 0 1.262 4.369c1.139 3.073 1.624 2.866 1.951 4.404.193.915.189 1.765-1.882 8.962-.609 2.119-.495 1.734-1.07 3.375-.905 2.584-1.744 4.41-2.195 5.405-.891 1.974-2.143 4.878-3.667 8.838l-.392 10.166-4.693 16.417-11.205 15.116v3.736l-2.518 2.866v2.26l-1.304 1.824-1.042 7.211.609 9.557 1.737 4.517-2.78 6.254-4.083 1.043-8.773-3.389-5.388-4.517 1.129-3.998 4.431-4.083-.87-1.999-1.129 2.26-1.999-2.78 1.218-2.779 4.517-10.338 1.218-.348 2.518-10.685-.086-1.39 1.82-2.26a116.075 116.075 0 0 1-.175-12.595c.523-12.853 2.852-17.04 3.567-18.244a23.437 23.437 0 0 1 5.126-5.993 23.2 23.2 0 0 0 1.586-10.71 66.438 66.438 0 0 1-11.624-7.118 11.892 11.892 0 0 0-3.2-.653 11.764 11.764 0 0 0-2.205.068 94.855 94.855 0 0 0-9.715 7.235 94.414 94.414 0 0 0-9.155 8.918v1.475c.451.623.991 1.586.884 2.698-.141 1.465-1.297 1.998-3.925 4.861-.994 1.083-1.954 2.14-2.966 3.681a22.736 22.736 0 0 0-1.813 3.354c-.261 1.593-.523 3.186-.781 4.779a1788.18 1788.18 0 0 1-2.573 3.168c-2.154.103-4.307.207-6.461.306-2.112-.839-4.228-1.678-6.34-2.518a9.544 9.544 0 0 1-.011-2.405 9.484 9.484 0 0 1 .534-2.198l7.73-9.468-1.737-1.042-2.347-3.303 2.433-4.692.485-6.716a86.57 86.57 0 0 1 15.588-23.514c2.865-4.748 5.735-9.499 8.6-14.246a24.356 24.356 0 0 0 2.684-7.235 24.435 24.435 0 0 0-.076-9.795 31.95 31.95 0 0 1-4.517-8.253 8.795 8.795 0 0 0-1.469 1.992 8.727 8.727 0 0 0-.877 2.439c-.898.375-1.796.754-2.694 1.129a37.875 37.875 0 0 1-6.423 6.285c-4.995 3.839-9.96 5.663-13.297 6.571-5.893 1.988-7.407 3.987-7.647 5.487-.093.578-.024 1.27-.52 2.071-.805 1.311-2.092 1.27-4.097 2.271-.668.334-2.701 1.369-4.156 3.292-1.428 1.885-.991 2.904-2.346 4.431-1.167 1.318-2.673 1.892-3.737 2.171-.337-.144-.763-.392-.829-.774-.137-.829 1.593-1.452 2.794-2.738.767-.823 1.606-2.223 1.768-4.738-1.417-1.073-2.831-2.15-4.249-3.223.141-1.039.286-2.078.427-3.117-.932.217-2.312.64-3.784 1.531-2.611 1.579-4.5 4.025-5.312 3.564-.11-.062-.671-.444-.606-.788l.021-.065c.943-2.962 4.087-4.569 5.955-5.484 2.948-1.445 4.156-1.235 5.536-2.804.932-1.063 1.341-2.253 1.537-3.117a4.166 4.166 0 0 0-1.293-1.297c-1.039-.64-1.707-.351-2.487-1.011-.362-.303-.589-.812-1.026-1.813a26.017 26.017 0 0 1-.956-2.553c-.1-.482.148-.943.543-1.101.3-.117.651-.048.919.169l4.17 3.213 3.736.086c1.032.451 2.064.905 3.096 1.355a36.603 36.603 0 0 0 13.844-12.388l4.431-4.345 9.557-3.998c.062-.788.21-1.789.557-2.907a13.235 13.235 0 0 1 1.266-2.828l1.259-11.528c.217-1.197.434-2.391.654-3.588 0-.031-.045-.54-.42-.73-.378-.189-.963.011-1.228.554a55.023 55.023 0 0 0-10.826 8.677 54.849 54.849 0 0 0-6.633 8.349c.636-11.081-1.387-18.828-3.475-23.975-1.07-2.639-2.401-5.202-3.189-9.358-1.232-6.495-.241-12.192.843-16.097 1.018-2.25.244-4.892-1.741-6.185-1.83-1.191-4.314-.984-5.99.54.231-2.261.465-4.517.695-6.778-2.711-7.389-6.34-11.951-9.271-14.803-3.007-2.924-5.673-4.435-8.398-8.804-1.448-2.322-3.578-5.742-3.354-9.753.334-5.959 5.683-10.022 7.823-11.645 14.494-11.002 47.865-9.836 64.873 9.887 4.438 5.147 6.802 10.445 8.092 14.095a22.797 22.797 0 0 0-4.438-4.342c-1.366-1.015-8.336-6.185-11.917-3.657-2.601 1.834-2.013 6.733-1.889 7.651 4.806 3.186 9.612 6.372 14.422 9.557l24.883 15c4.927.568 42.956 4.655 48.178-8.532 1.159-2.924.974-7.462-1.49-10.149-3.77-4.111-12.567-4.142-20.586 1.91l-.004.007Z" fill="#000" fill-opacity=".9"/></g><g filter="url(#d)"><path d="M1077.77 312.743c-2.15-3.579-3.23-5.369-4.49-7.019-2.93-3.853-10.69-12.618-21.65-23.705-.39-.179-.79-.359-1.19-.54l-1.34-1.928c1.49-.441 4.71-1.613 7.56-4.637 3.21-3.402 4.1-7.169 4.38-8.69-.72-1.964-1.44-3.926-2.15-5.89a18.21 18.21 0 0 0-4.53-4.688 18.121 18.121 0 0 0-7.45-3.095c.27.151 2.98 1.762 3.14 4.697.07 1.18-.3 2.128-.58 2.677.14.345.39.812.8 1.286.49.583 1.03.934 1.39 1.135.23-.035 2.16-.295 3.62 1.126 1.11 1.077 1.23 2.427 1.25 2.77-.07.372-.19.943-.42 1.608-1.1 3.127-3.48 5.04-6.01 7.026-.71.557-1.72 1.305-2.99 2.106-.27.101-.67.217-1.16.183-.93-.069-1.14-.631-2.17-.883-.78-.19-1.89-.168-2.18.375-.12.228-.06.499.01.693-1.51-.407-2.77-.142-3.13.556-.07.14-.14.362-.09.695-.23-.041-1.17-.178-2.08.405-.62.401-.92.944-1.04 1.193-.29-.092-1.67-.497-3.04.246-.73.39-1.15.935-1.36 1.258a6.679 6.679 0 0 1-1.89-.982 6.861 6.861 0 0 1-1.94-2.273v-1.488l3.62 2.216-2.1-5.69h6.69l-6.81-5.549c.14-.218.29-.429.47-.629 1.48-1.646 3.73-1.809 4.67-1.82-3.14-1.094-6.28-2.19-9.43-3.284l3.55-5.365-7.92 1.318-1.28-8.765a20.399 20.399 0 0 1-2.56 4.617c-.9 1.236-1.83 2.22-2.66 2.985a35.264 35.264 0 0 0-2.04-3.114 34.925 34.925 0 0 0-3.64-4.2l-2.49 7.592-9.436-3.829 2.701 6.432L989.41 261l3.534 4.348-5.384 4.135 4.662 1.12-.924 2.149 2.766.175-.14 1.981-16.368-3.554.482-3.471c.433-.728.338-1.644-.206-2.229-.621-.664-1.698-.763-2.479-.188-.231.142-.463.285-.694.429-1.044-1.04-2.285-1.505-3.174-1.109a1.662 1.662 0 0 0-.545.398c-1.757-.988-3.377-1.286-4.062-.609a1.107 1.107 0 0 0-.25.379c-.807-.801-1.824-1.058-2.481-.685-.137.08-.364.245-.542.599-.246.342-.494.684-.739 1.027a37.125 37.125 0 0 0-2.339-2.156c-1.374-1.167-1.945-1.484-2.782-2.319-.614-.61-1.461-1.588-2.242-3.063.122-1.546.409-2.748.631-3.521.583-2.05 2.05-5.78 3.881-8.787.195-.325.643-1.044.684-2.035.013-.282.02-1.269-.803-2.574-5.014-7.959-12.265-8.414-12.265-8.414-1.266-.08-3.693-.052-6.594 1.202.4-.017 2.702-.091 4.128 1.578.366.429.595.881.739 1.278a1.8 1.8 0 0 0 1.044.491c.702.071 1.411-.321 1.829-.998a12.712 12.712 0 0 0 1.994 2.817c1.514 1.618 2.348 1.635 3.082 2.764 1.163 1.785.612 4.079.269 5.5-.321 1.331-.622 1.553-2.899 6.105-1.417 2.83-1.826 3.797-1.419 4.764.248.593.676.883 2.386 1.924 1.282.779 2.692 1.621 4.221 2.511.83.581 1.82 1.397 2.785 2.517.599.692 1.07 1.366 1.445 1.975l-1.673 2.733-1.783.452a26.032 26.032 0 0 1-2.86 3.382 26.03 26.03 0 0 1-4.596 3.635c-1.282 1.51-2.565 3.017-3.849 4.525a17.673 17.673 0 0 0-4.843 6.51l-3.097 3.384a21.521 21.521 0 0 0-1.28 2.282c-.432.898-.458 1.114-.786 1.738-.967 1.855-1.677 1.775-1.843 2.63-.332 1.71 2.07 4.262 4.251 4.943.379.118 1.133.301 1.986.885a6.07 6.07 0 0 1 1.393 1.333c2.486 1.74 4.969 3.482 7.454 5.225l5.879 3.398a8.312 8.312 0 0 1 2.216 1.178c.924.693 1.454 1.404 1.592 1.581.769.984 2.864 2.662 8.496 5.716l2.597 5.241c.382 4.672.929 9.621 1.693 14.811a229.454 229.454 0 0 0 2.684 14.808c.206.438.575 1.387.407 2.576a4.407 4.407 0 0 1-.392 1.29 38.717 38.717 0 0 0-1.936 11.604 6.35 6.35 0 0 0 1.046 1.729 6.4 6.4 0 0 0 2.486 1.775l.932 10.503 1.736.638c-.226.375-.444.788-.638 1.24-1.072 2.498-.891 4.911-.62 6.397a48.225 48.225 0 0 0-3.021 13.193 109.621 109.621 0 0 0-3.858 15.08 109.866 109.866 0 0 0-1.755 20.078l-.349-.297.063 3.42a4.562 4.562 0 0 0-.709.534c-2.597 2.41-1.488 7.245-1.238 8.244-.56.538-1.338 1.37-2.072 2.513-1.275 1.986-1.68 3.754-2.014 5.085-.493 1.986-1.275 4.809-2.543 8.485a39.684 39.684 0 0 0-2.149 8.184c-.321 2.128-.36 3.569-.517 7.238a946.041 946.041 0 0 1-.504 10.459c.487.277 1.574.994 2.19 2.371.067.148.237.555.401 1.484.153.861.297 2.142.163 3.766l-2 1.596c-.13.293-1.094 2.563.084 4.361.183.278.465.618.902.935l.069 5.054-1.086.896.016 3.916-.044 1.733.7 1.534a6.956 6.956 0 0 0-1.231 2.037 6.778 6.778 0 0 0-.39 1.488l-.537 2.58-1.529 1.641-4.331 7.698-1.832.305-1.723 3.177.006 1.439-1.036 1.242a6.57 6.57 0 0 0-.441 1.29 6.568 6.568 0 0 0-.091 2.38c-.013 1.197.276 2.072.586 2.681 1.557 3.065 6.192 4.519 11.58 3.664a26.563 26.563 0 0 0 5.432-5.225 26.845 26.845 0 0 0 4.673-9.284c.463.064.924.129 1.387.191a19.763 19.763 0 0 0 1.923-2.386 19.788 19.788 0 0 0 1.527-2.632l.065-3.224-.424-.194-.582-9.215c.594-.413.885-1.107.737-1.738-.143-.607-.634-.92-.748-.988l1.034-1.986-.185-9.366c.409-.575 1.062-1.68 1.178-3.175a6.057 6.057 0 0 0-.056-1.389l-1.641-1.727.975-3.672 3.463-1.747.328-5.007a40.91 40.91 0 0 1 1.458-7.439c1.55-5.267 3.439-7.727 6.484-14.694a119.224 119.224 0 0 0 3.044-7.693l.232-3.667a89.452 89.452 0 0 0 6.547-11.326c2.976-6.157 3.741-9.59 7.266-17.47 1.82-4.071 3.47-7.291 4.53-9.287 1.13-1.785 2.66-2.419 3.36-1.994.71.437.52 1.979.5 2.13-.46.013-.68.155-.79.299-.76.963 1.73 3.941 1.95 4.204-.04.293-.1 1.053.3 1.882a3.36 3.36 0 0 0 1.2 1.333c.27 2.66.55 5.318.82 7.977a4.031 4.031 0 0 0 .12 3.715c.36.065.72.13 1.09.194l.37 7.383c-.08.168-.19.424-.29.745-.63 1.882-.4 3.672.06 5.509 1.14 4.512 3.88 10.193 4.16 10.779-.22 1.286-.4 2.731-.48 4.314-.11 2.492.06 4.701.33 6.54.28 3.616.55 7.232.83 10.85l1.33 9.112.42 5.996 4.36 1.469.52 4.805-1.14 1.393c.02 1.553.05 3.106.07 4.658.31.313.63.625.94.937-.07 1.008-.15 2.016-.23 3.024.32 1.204.64 2.41.95 3.614-.33.297-.54.601-.66.857-.97 1.938.83 4.314.93 4.445.04.909.07 1.816.11 2.724.16.153.61.614.7 1.336.04.301 0 .56-.05.745-.04 1.387-.08 2.774-.13 4.163l.45 1.385.12 4.559c.32.56.72 1.163 1.2 1.779a16.167 16.167 0 0 0 2.83 2.864l.64-.052c.75 1.377 1.8 3.033 3.25 4.745a27.49 27.49 0 0 0 3.97 3.848c.91.515 4.26 2.257 8.65 1.471 4.53-.809 7.1-3.766 7.74-4.557v-3.222a5.487 5.487 0 0 0-.71-2.326 5.7 5.7 0 0 0-1.59-1.776c-1.1-1.417-2.19-2.832-3.29-4.249l-.94.004-7.62-10.279a3.384 3.384 0 0 1-.65-1.038 3.391 3.391 0 0 1-.25-1.338l-.75-.988.39-.201-.36-4.359-.7-.79-.72-7.232c1.42-2.251 1.41-4.544.33-5.502-.21-.188-.69-.517-1.59-.539l-.12-5.154 3.17-1.102c.21-3.504.42-8.722.19-15.067-.21-5.815-.64-8.843-.95-13.327-.34-5.115-.53-12.407.27-21.459 1.32-.053 2.64-.109 3.96-.163l-1.28-23.832-3.27.161-.11-1.783c.41-.325.72-.672.96-1.017 2.48-3.523-.64-9.194-1-9.837-.01-3.287-.02-6.573-.04-9.862.23-1.238-.2-2.386-1.05-2.869-.45-.26-.93-.271-1.24-.243-.21-2.643-.42-5.285-.62-7.928a25.434 25.434 0 0 0-1.51-6.336 24.949 24.949 0 0 0-2.05-4.156c.43-.314.85-.631 1.28-.946l-1.06-5.149-.3-2.031a13.99 13.99 0 0 0 3.5-3.878c.85-1.402 1.57-2.608 1.47-4.219-.15-2.333-1.94-3.849-2.44-4.254a4.51 4.51 0 0 1-1.3-1.927 4.663 4.663 0 0 1-.06-2.824l-1.29-12.98c-.22-1.221-.39-2.58-.46-4.062-.16-3.2.19-5.982.66-8.179.72-1.159 1.44-2.317 2.17-3.476 3.62-.739 6.6-1.486 8.76-2.067 3.75-1.008 7.06-2.061 10.99-3.313 1.43-.454 2.61-.84 3.41-1.102a56.95 56.95 0 0 0 11.94-2.475c4.74-1.535 9.11-3.004 9.53-5.767.12-.765-.1-1.409-2.09-4.719Zm-83.846-14.164c-.967.443-1.297 2.437-.582 4.97a7.907 7.907 0 0 0-3.986.554 218.954 218.954 0 0 1-2.298-1.486c-2.386-1.562-3.366-2.262-4.76-2.219a4.152 4.152 0 0 0-.85.119v-.739a47.671 47.671 0 0 0-8.871 1.699c-.065-.219-.41-1.32-1.45-1.796-1.171-.536-2.756-.064-3.706 1.251a17.245 17.245 0 0 0-3.366-3.01c-2.86-1.945-5.684-2.589-7.379-2.83a20.286 20.286 0 0 0 4.017-6.002c.185-.395.448-.855.82-1.331a7.136 7.136 0 0 1 1.962-1.721 363.614 363.614 0 0 1 5.249-3.696c.67-.458 1.755-1.189 2.024-2.455.104-.484.058-.911.002-1.199 1.2.079 1.988.135 2.496.174.817.058 1.297.097 1.87-.146.187-.08.609-.285.958-.692.883-1.023.558-2.453.511-2.64.002-.035.058-.668.631-.965.588-.306 1.152.039 1.173.054l14.897 4.792c.086.463.172.924.256 1.387.003.551.003 1.102.003 1.651a8.416 8.416 0 0 0-1.594 3.476c-.72 3.623 1.301 6.483 1.716 7.047a6.052 6.052 0 0 0-.456 1.189 6.193 6.193 0 0 0-.104 2.675c.084-.114.41-.53.991-.644a1.56 1.56 0 0 1 .732.032c.112.859.226 1.719.34 2.578-.661-.267-1.046-.168-1.246-.077Zm53.836 8.119c-2.47.601-4.3 1.669-5.4 2.44-.06-.153-.88-2.147-3.01-2.6-1.59-.338-3.26.313-4.25 1.661-1.9-.489-4.6-.965-7.84-.84-2.85.11-5.22.65-6.96 1.187a5.317 5.317 0 0 0-1.38-.855 5.47 5.47 0 0 0-1.06-.321c-.28-.354-.48-.7-.61-1.015-1.01-2.263.12-4.636.43-5.246.41-.323.69-.308.8-.291.63.097 1.17 1.081 1.11 2.477.08-1.966.15-3.933.22-5.899a12.68 12.68 0 0 0 3.53-3.917 12.934 12.934 0 0 0 1.57-4.603c-.04-.105-.21-.564-.7-.809-.67-.341-1.33.03-1.38.058.29-.679.58-1.357.86-2.035.39.219.64.187.76.15.61-.178.99-1.285.78-2.767-.03-.123-.03-.22.02-.293.3-.485 2.36.121 6.18 1.816-.08.542-.11 1.432.22 2.431.13.39.72 1.975 2.22 2.782.59.321.65.151 1.62.58 1.24.545 1.56 1.001 2.16 1.245.74.301 1.93.295 3.96-1.079-.35.607-.71 1.507-.46 2.414.27.971 1.14 1.499 1.51 1.742 1.88 1.223 3.04 3.302 4.6 4.915a84.617 84.617 0 0 1 5.44 6.267 16.133 16.133 0 0 0-4.94.405Z" fill="#000" fill-opacity=".9"/></g><g filter="url(#e)"><path d="M705.36 526.294c-79.79 1.21-223.699 3.479-319.732 5.294-158.442 2.874-179.815 3.479-235.098 7.563-58.988 4.386-60.983 4.689-75.517 9.983-14.533 5.294-37.615 20.268-47.589 30.402-2.85 3.025-4.56 8.319-4.274 14.369.285 8.924.285 9.227 3.704 5.294l3.42-4.235 6.839 7.714c3.705 4.235 7.694 8.017 8.549 8.319 1.14.303 1.71-6.655 1.71-15.579-.285-11.344.855-17.243 3.704-19.966l3.99-3.781 3.42 5.445c11.398 17.394 38.755 35.999 62.122 42.351 10.544 2.874 11.684 2.874 22.513.757 11.113-2.42 11.398-2.42 28.781 2.722 9.689 2.874 35.051 8.924 56.424 13.613l38.755 8.622 50.154-3.177 50.44-3.176 19.662 8.773c35.336 15.881 49.3 19.965 108.573 32.217 54.428 11.344 60.128 12.1 106.292 15.882l48.445 3.781 36.353-7.26c14.248 7.411 14.941 6.353 18.36 7.26 5.985 1.664 9.64 3.933 9.64-3.781 0-7.412 16.292-3.479 16.292 7.562 8.834-5.898 16.244-10.739 16.529-11.041.569-.151 26.217-5.143 57.563-10.89l56.423-10.74 38.186 4.689c35.621 4.235 42.46 4.538 94.324 4.538h55.853l99.74-21.176 99.74-21.175 65.54-27.226c62.12-25.714 67.25-28.134 98.31-48.25 17.96-11.647 33.06-21.025 33.34-20.722.29.151-.57 8.924-2.28 19.663-1.7 10.588-2.27 19.663-1.7 20.117 1.42.756 14.81-17.395 18.23-25.109l2.57-5.142 5.13 9.68 5.41 9.68 2.57-6.806c4.27-11.496-1.14-29.041-11.12-34.789-.85-.454-98.31-1.21-216.86-1.815-118.54-.454-256.753-1.361-306.907-1.664-50.154-.453-156.447.152-236.523 1.21Zm498.69 1.513c108.29.454 211.16 1.21 228.83 1.664 28.21.756 32.49 1.21 35.05 3.932 6.27 6.202 10.26 24.957 5.7 27.378-2.28 1.21-3.13.907-3.13-1.211-.29-1.663-2-5.142-3.99-7.562l-3.71-4.538-3.42 6.807c-1.99 3.781-5.98 10.134-8.83 14.369l-5.42 7.562 1.14-8.319c.86-4.537 2-13.007 3.14-18.604l1.71-10.285 9.69 3.327c5.41 1.664 9.69 2.572 9.69 1.815 0-.605-8.84-3.478-19.38-6.201l-19.09-5.143-29.64 1.664c-37.05 2.118-109.71 2.118-160.44.151-33.91-1.361-46.73-1.21-95.46 1.513-35.34 1.966-71.53 5.143-96.6 8.319-38.19 4.84-97.178 9.832-116.556 9.832-4.559 0-19.948-2.421-33.911-5.294l-25.362-5.294h-49.584c-41.036 0-55.284-.605-86.06-3.782-33.626-3.479-39.326-3.63-63.548-2.268-18.808 1.21-36.761 1.21-62.123 0-29.921-1.362-47.019-1.211-108.287 1.361-39.896 1.664-102.873 4.084-139.634 5.445-40.18 1.513-81.501 3.933-104.013 6.201l-37.046 3.782-46.164-2.572c-36.191-1.966-52.434-2.117-75.517-.907-16.243.756-29.636 1.361-30.206 1.059-.57-.152 3.42-1.815 8.834-3.63 7.694-2.42 23.937-4.236 70.387-7.714 54.713-4.084 76.371-4.689 234.528-7.563 291.521-5.294 461.076-7.412 543.432-6.655 43.03.302 166.99.907 274.99 1.361Z" fill="#000" fill-opacity=".9" shape-rendering="crispEdges"/></g><g filter="url(#f)"><path d="M660.987 537.539c-.682-.182-1.356-.37-2.037-.558.052-.143.545-1.765-.493-3.089-.675-.863-1.602-1.097-1.894-1.155a84.836 84.836 0 0 1-6.02-2.745 85.58 85.58 0 0 1-8.568-4.951 103.05 103.05 0 0 1-8.991-22.037 103.424 103.424 0 0 1-3.743-30.512 160.797 160.797 0 0 1-3.385-9.681 158.127 158.127 0 0 1-3.821-14.555 10.43 10.43 0 0 0 3.302-3.381c2.601-4.303.986-8.812.687-9.637-1.265-3.543-3.846-5.45-4.819-6.093a319.685 319.685 0 0 1-11.222-25.846 318.342 318.342 0 0 1-10.268-31.744c.214.155.434.318.668.48a317.53 317.53 0 0 0 19.382 53.158c1.31-.026 2.62-.052 3.93-.084a10.572 10.572 0 0 1 5.222-.539c1.272.195 2.342.597 3.185 1.032a25.262 25.262 0 0 1-5.261-5.159 25.401 25.401 0 0 1-3.347-5.97 18.298 18.298 0 0 0-1.68-4.321c-1.024-1.882-1.751-2.414-3.671-5.192-1.304-1.881-1.245-2.037-2.679-4.204a78.551 78.551 0 0 0-4.009-5.523 74.168 74.168 0 0 1-2.568-4.756c-2.978-6.054-4.664-11.609-4.366-11.732.266-.111 1.791 4.153 5.468 9.623a73.661 73.661 0 0 0 3.562 4.86c.668.909 1.654 2.278 2.789 3.978 4.592 6.898 6.661 11.758 9.035 16.262 1.804 3.413 4.554 8.078 8.667 13.406.259.344.525.688.797 1.032 1.337 1.557 2.673 3.121 4.009 4.685.577.584 1.46.759 2.218.435a2.035 2.035 0 0 0 1.213-1.895 8.805 8.805 0 0 1 1.758-2.667 8.752 8.752 0 0 1 2.984-2.005 260.66 260.66 0 0 1 3.548-.234c.837-.052 1.486-.084 1.55-.337.072-.312-.778-.766-1.005-.883-.72-.383-2.03-.876-4.093-.649a68.878 68.878 0 0 1-6.013-5.743c-6.966-7.514-6.856-10.81-13.369-19.013-3.606-4.542-5.487-5.697-8.283-8.662-1.725-1.824-2.867-3.303-3.84-4.588a61.51 61.51 0 0 1-6.02-9.695c1.077.357 2.096.636 3.043.863a73.947 73.947 0 0 1-11.138-23.263 73.827 73.827 0 0 1-2.017-29.525 26.383 26.383 0 0 1 7.914-12.135c4.281-2.349 7.913-3.614 10.3-4.315 5.611-1.655 15.153-3.394 21.341-7.099.434-.26 1.025-.63 1.485-1.331 1.927-2.874-.752-7.527-2.971-12.231-1.608-3.427-3.71-8.436-5.578-15.023-1.2 1.311-2.4 2.622-3.6 3.939l-4.592.98-12.455-14.425a13.286 13.286 0 0 0-3.58-4.867 13.262 13.262 0 0 0-4.022-2.33c-3.697-1.641-7.388-3.29-11.079-4.931-1.797-1.603-3.593-3.212-5.39-4.815-1.92.078-3.847.149-5.767.22l-9.159 1.967v2.297c-1.829-.098-4.735.013-7.894 1.343-6.889 2.907-9.567 9.318-10.132 10.785-6.143 1.473-11.442 5.081-12.473 9.714-1.512 6.768 5.844 16.807 19.355 18.487.24.747.779 2.051 1.953 3.31a8.814 8.814 0 0 0 2.835 2.037l-.584 7.203c-2.822 1.279-5.644 2.563-8.465 3.842-1.758.493-4.249 1.466-6.578 3.517-6.253 5.483-5.948 13.854-5.876 15.171a75.502 75.502 0 0 1-3.432 15.71 74.377 74.377 0 0 1-3.781 9.208 63.075 63.075 0 0 1-9.244 6.736 62.033 62.033 0 0 1-5.176 2.771l3.607 1.966 2.951 2.953-9.509 18.033-2.945 6.56-1.966 6.554c-.136 1.681.299 2.868.597 3.485 1.278 2.712 4.521 4.51 5.955 3.731.512-.279.765-.87 1.122-.766.506.143.259 1.402.895 1.785.331.207.928.181 2.069-.565 1.09 1.025 2.66 1.285 3.892.675 1.512-.746 2.27-2.699 1.57-4.477a12.39 12.39 0 0 1-1.57-3.634c-.13-3.277-.253-6.554-.383-9.831l10.995-17.501 3.976 5.042c-.707.791-1.414 1.59-2.121 2.388 2.563-.623 5.131-1.24 7.693-1.863l1.856 2.395-5.041 8.488-.791 7.163-1.187 1.941c-.486 2.453-.979 4.899-1.466 7.352l-5.04 11.148-4.69 18.89c-.817.551-3.204 2.329-4.184 5.613-.162.551-1.42 5.029 1.324 8.526 1.738 2.213 4.19 2.895 5.403 3.232 1.927.539 3.607.48 4.664.363-2.251 6.457-4.508 12.914-6.766 19.37a103.384 103.384 0 0 1-3.742 30.512 103.05 103.05 0 0 1-8.991 22.037 85.58 85.58 0 0 1-8.568 4.951 84.836 84.836 0 0 1-6.02 2.745c-.292.058-1.219.292-1.894 1.155-1.038 1.324-.545 2.946-.493 3.089-.681.188-1.356.376-2.037.558a746.582 746.582 0 0 1-.091 3.958h19.376c6.571-1.369 13.141-2.732 19.712-4.101-.045-.947-.097-1.895-.149-2.849-1.213.02-2.432.033-3.645.046a9.485 9.485 0 0 0 .59-4.413 9.35 9.35 0 0 0-1.122-3.549 18.35 18.35 0 0 1-.577-3.161 18.826 18.826 0 0 1 .311-5.593c5.04-13.095 10.08-26.19 15.12-39.279a109.65 109.65 0 0 1 1.395-15.158 112.52 112.52 0 0 1 1.258-6.47c4.988.643 9.898-1.453 12.688-5.45 3.632-5.198 1.855-10.999 1.641-11.668a76.768 76.768 0 0 1 1.602-8.65 76.184 76.184 0 0 1 2.64-8.604c.992-9.377 2.29-16.119 3.023-16.236a3.202 3.202 0 0 1 1.855.266c.545.292.875.72 1.057 1.006 4.301 12.595 8.601 25.191 12.902 37.792.376 8.67 4.69 14.354 8.698 14.484.441.013 1.732-.013 3.419-1.188h.006c2.614 7.632 5.235 15.256 7.855 22.887 5.04 13.089 10.08 26.184 15.12 39.279.292 1.421.526 3.342.312 5.593a18.447 18.447 0 0 1-.577 3.161 9.348 9.348 0 0 0-1.123 3.549 9.47 9.47 0 0 0 .591 4.413c-1.213-.013-2.433-.026-3.646-.046-.052.954-.104 1.902-.149 2.849 6.571 1.369 13.142 2.732 19.713 4.101h19.368a870.996 870.996 0 0 1-.09-3.958ZM552.324 358.907a29.662 29.662 0 0 1-4.21 6.113 78.621 78.621 0 0 0 4.411-10.421 78.914 78.914 0 0 0 2.523-9.15c.059 1.609.124 3.225.182 4.841a29.995 29.995 0 0 1-2.906 8.617Zm42.805-64.189c-.882.149-2.232.486-3.691 1.317a11.253 11.253 0 0 0-2.893 2.368h-4.087v1.85h-4.871a3.822 3.822 0 0 1-1.583-1.584 3.844 3.844 0 0 1-.395-2.375 10.87 10.87 0 0 0 3.295-1.842 10.888 10.888 0 0 0 2.899-3.693c.915.104 11.968 1.188 17.54-6.392.908-1.232 4.093-5.561 2.478-10.343-1.317-3.907-5.358-6.71-10.275-7.112l-2.238-7.119c1.369.494 3.205 1.402 4.742 3.167.558.636.7.954 1.07 1.356 1.044 1.123 3.153 2.116 7.888 1.408a73.176 73.176 0 0 1 6.85 9.753 71.187 71.187 0 0 1 3.95 7.774 20.755 20.755 0 0 0-5.001 4.478c3.464 1.629 6.934 3.251 10.404 4.88a141.1 141.1 0 0 1-26.082 2.109Z" fill="#000" fill-opacity=".9"/></g><defs><filter id="a" x="702.203" y="186.03" width="235.88" height="365.043" filterUnits="userSpaceOnUse" color-interpolation-filters="sRGB"><feFlood flood-opacity="0" result="BackgroundImageFix"/><feColorMatrix in="SourceAlpha" values="0 0 0 0 0 0 0 0 0 0 0 0 0 0 0 0 0 0 127 0" result="hardAlpha"/><feOffset dy="-2"/><feGaussianBlur stdDeviation="3"/><feComposite in2="hardAlpha" operator="out"/><feColorMatrix values="0 0 0 0 1 0 0 0 0 1 0 0 0 0 1 0 0 0 0.5 0"/><feBlend in2="BackgroundImageFix" result="effect1_dropShadow_803_651"/><feBlend in="SourceGraphic" in2="effect1_dropShadow_803_651" result="shape"/></filter><filter id="b" x="1102" y="250" width="149.661" height="307.307" filterUnits="userSpaceOnUse" color-interpolation-filters="sRGB"><feFlood flood-opacity="0" result="BackgroundImageFix"/><feColorMatrix in="SourceAlpha" values="0 0 0 0 0 0 0 0 0 0 0 0 0 0 0 0 0 0 127 0" result="hardAlpha"/><feOffset dy="-2"/><feGaussianBlur stdDeviation="3"/><feComposite in2="hardAlpha" operator="out"/><feColorMatrix values="0 0 0 0 1 0 0 0 0 1 0 0 0 0 1 0 0 0 0.5 0"/><feBlend in2="BackgroundImageFix" result="effect1_dropShadow_803_651"/><feBlend in="SourceGraphic" in2="effect1_dropShadow_803_651" result="shape"/></filter><filter id="c" x="278.225" y="257.186" width="209.354" height="293.573" filterUnits="userSpaceOnUse" color-interpolation-filters="sRGB"><feFlood flood-opacity="0" result="BackgroundImageFix"/><feColorMatrix in="SourceAlpha" values="0 0 0 0 0 0 0 0 0 0 0 0 0 0 0 0 0 0 127 0" result="hardAlpha"/><feOffset dy="-2"/><feGaussianBlur stdDeviation="3"/><feComposite in2="hardAlpha" operator="out"/><feColorMatrix values="0 0 0 0 1 0 0 0 0 1 0 0 0 0 1 0 0 0 0.5 0"/><feBlend in2="BackgroundImageFix" result="effect1_dropShadow_803_651"/><feBlend in="SourceGraphic" in2="effect1_dropShadow_803_651" result="shape"/></filter><filter id="d" x="928" y="225" width="157.886" height="337.678" filterUnits="userSpaceOnUse" color-interpolation-filters="sRGB"><feFlood flood-opacity="0" result="BackgroundImageFix"/><feColorMatrix in="SourceAlpha" values="0 0 0 0 0 0 0 0 0 0 0 0 0 0 0 0 0 0 127 0" result="hardAlpha"/><feOffset dy="-2"/><feGaussianBlur stdDeviation="3"/><feComposite in2="hardAlpha" operator="out"/><feColorMatrix values="0 0 0 0 1 0 0 0 0 1 0 0 0 0 1 0 0 0 0.5 0"/><feBlend in2="BackgroundImageFix" result="effect1_dropShadow_803_651"/><feBlend in="SourceGraphic" in2="effect1_dropShadow_803_651" result="shape"/></filter><filter id="e" x="13.119" y="512.932" width="1475.12" height="198.331" filterUnits="userSpaceOnUse" color-interpolation-filters="sRGB"><feFlood flood-opacity="0" result="BackgroundImageFix"/><feColorMatrix in="SourceAlpha" values="0 0 0 0 0 0 0 0 0 0 0 0 0 0 0 0 0 0 127 0" result="hardAlpha"/><feOffset dy="-2"/><feGaussianBlur stdDeviation="5"/><feComposite in2="hardAlpha" operator="out"/><feColorMatrix values="0 0 0 0 1 0 0 0 0 1 0 0 0 0 1 0 0 0 0.5 0"/><feBlend in2="BackgroundImageFix" result="effect1_dropShadow_803_651"/><feBlend in="SourceGraphic" in2="effect1_dropShadow_803_651" result="shape"/></filter><filter id="f" x="495.813" y="238.147" width="171.264" height="307.35" filterUnits="userSpaceOnUse" color-interpolation-filters="sRGB"><feFlood flood-opacity="0" result="BackgroundImageFix"/><feColorMatrix in="SourceAlpha" values="0 0 0 0 0 0 0 0 0 0 0 0 0 0 0 0 0 0 127 0" result="hardAlpha"/><feOffset dy="-2"/><feGaussianBlur stdDeviation="3"/><feComposite in2="hardAlpha" operator="out"/><feColorMatrix values="0 0 0 0 1 0 0 0 0 1 0 0 0 0 1 0 0 0 0.5 0"/><feBlend in2="BackgroundImageFix" result="effect1_dropShadow_803_651"/><feBlend in="SourceGraphic" in2="effect1_dropShadow_803_651" result="shape"/></filter></defs></svg>