<svg xmlns="http://www.w3.org/2000/svg" width="1118" height="660" fill="none"><path fill="#000" fill-opacity=".5" d="M633.915 369.59c-3.411-4.935-6.779-10.331-15.865-27.178-5.994-11.119-8.99-16.68-11.542-21.89-4.255-8.684-9.686-20.637-15.15-35.445.666-.616 1.333-1.228 2.002-1.844l-1.4-.43c.01-.272.09-1.464 1.065-2.44 1.042-1.043 2.339-1.069 2.588-1.069 0-.476-.008-1.153-.051-1.966-.08-1.558-.121-2.335-.319-2.83-.643-1.609-3.023-2.116-4.152-2.281.01.855-.438 1.633-1.14 1.965-.918.435-2.14.054-2.74-.968-.236-.639-.47-1.28-.707-1.918l1.302-1.926c.097-.021.234-.054.388-.113.239-.088.612-.229.81-.507.07-.098.157-.268.108-1.038a8.701 8.701 0 0 0-.182-1.315 7.565 7.565 0 0 1-.332-1.205c-.247-1.336.038-1.913-.206-2.66-.159-.494-.576-1.143-1.752-1.717a8.685 8.685 0 0 0-4.641-3.913l-1.319-2.266a6.78 6.78 0 0 0 2.076-1.498 6.804 6.804 0 0 0 1.054-1.483 34.081 34.081 0 0 0-.686-4.464c-.906-4.067-1.943-5.19-2.527-5.705a5.96 5.96 0 0 0-1.193-.818c.347-.6.826-1.478 1.337-2.58.443-.96.667-1.449.741-1.969.206-1.447-.406-2.65-.71-3.229-.602-1.145-1.144-1.416-1.98-2.412-.674-.798-1.523-2.049-2.146-3.949a46.93 46.93 0 0 0-.02-4.086c-.119-2.448-.361-3.478.162-3.792.686-.409 2.109.765 3.171 1.642a16.963 16.963 0 0 1 3.134 3.417 25.437 25.437 0 0 0-1.081-6.413 25.327 25.327 0 0 0-2.544-5.713c.53-.008 1.23.036 2.025.234.957.237 1.7.611 2.209.917-1.983-4.505-4.663-7.425-6.307-7.523-1.117-.067-2.472.152-2.472.152-.705.116-1.279.271-1.675.392l.339-2.709-.877-.782c.329-.193.872-.582 1.045-1.228.09-.345.038-.634.01-.793-.16-.901-.342-1.959-.551-3.133-.45-2.364-1.219-6.174-2.22-10.036-.18-.692-.442-1.675-1.201-2.69-1.15-1.537-2.65-2.101-4.579-2.878a191.728 191.728 0 0 1-6.907-2.943l-1.23-2.353-1.659.005-6.828-4.95-.985-6.81v-.785h.607l.201 3.249a.393.393 0 0 0 .322.407.39.39 0 0 0 .434-.265c.026.038.119.159.263.175.19.02.406-.152.463-.43.023.018.175.144.38.105a.446.446 0 0 0 .258-.146c-.229-1.519-.461-3.036-.692-4.552.126-.345.296-.837.476-1.439.607-2.036.483-2.572.388-2.847-.093-.263-.291-.667-.772-1.076v-1.658h.865l-.865-.873 1.384-.53-1.384-1.131h.692l-.692-2.008v-.7l-.905-.958 1.741-1.403h-1.741l.512-2.003-1.657.791-1.145-3.139v2.096l-2.974-3.308.443 1.57a6.087 6.087 0 0 0-1.369-1.256 6.099 6.099 0 0 0-2.217-.911v1.132l-3.406-1.82 1.055 2.006a16.122 16.122 0 0 0-2.388-.654 16.092 16.092 0 0 0-3.025-.286c.525.376 1.05.752 1.574 1.13a9.805 9.805 0 0 1-4.71.979l.793 1.307-2.267.793 1.312.608-4.003 2.984 2.791-.011-2.173 1.931 1.047-.005c-.376.36-.754.718-1.13 1.079.391.206.78.414 1.171.623a7.365 7.365 0 0 1-1.706 3.02c.677-.235 1.353-.469 2.03-.706l-1.302 2.101h1.222l-.514 2.356c.491.226.98.455 1.471.682-.064.435-.185 1.689.53 2.978 1.029 1.857 2.959 2.284 3.257 2.346l.193 4.716-1.911 2.191-5.696-5.919a3.575 3.575 0 0 0 1.379-1.377c.468-.839.46-1.63.442-1.946l1.39-1.491-2.367-3.048a2.323 2.323 0 0 0-1.369-.314c-1.101.1-1.692.991-1.77 1.112l-2.263 1.756-.35-.173 1.564-1.928c.085-.082.471-.471.486-1.084a1.563 1.563 0 0 0-.232-.839c-1.18-.798-2.361-1.596-3.542-2.397l-.579-2.392a1.742 1.742 0 0 0-.725-.445 1.804 1.804 0 0 0-1.284.106c-.046-.466-.203-1.352-.777-1.594-.054-.023-.167-.062-.869-.085a18.888 18.888 0 0 0-1.034-.008 96.253 96.253 0 0 1-.26-.919 1.383 1.383 0 0 0-.306-.355c-.715-.587-1.786-.211-1.914-.165-.754.325-1.51.646-2.264.971l-8.5-8.442c.199-.355.134-.788-.138-1.035a.826.826 0 0 0-.824-.159l-4.291-3.589c-.177-.054-1.579-.469-2.706.355-1.132.829-1.523 2.57-.769 4.112l3.591 3.218a.629.629 0 0 0 .875.782c2.989 3.002 5.976 6.004 8.962 9.006a10.337 10.337 0 0 0-1.978 3.063 10.255 10.255 0 0 0-.784 4.016c-.43.219-.893.5-1.366.863-1.5 1.156-2.305 2.567-2.722 3.488a5.254 5.254 0 0 0-2.995-.345l-4.766 7.224c-.029.463-.06.929-.088 1.395-2.23 2.178-4.463 4.356-6.693 6.537a5.199 5.199 0 0 0-1.089 1.467c-.349.703-.437 1.298-.625 3.103-.11 1.076-.198 2.013-.265 2.772-.339 2.245-.681 4.487-1.021 6.73a6.36 6.36 0 0 0 1.011 1.635 6.453 6.453 0 0 0 2.392 1.74c2.277.072 4.556.141 6.836.211-.613 1.007-1.225 2.013-1.835 3.02l17.275 21.592c-.237.224-1.824 1.776-1.665 4.108.101 1.481.852 2.498 1.168 2.881.157.371.51 1.053 1.24 1.584 1.459 1.063 3.172.612 3.419.543.051.625.105 1.248.157 1.871l1.139 1.218c-.419-.152-.825.106-.884.409-.06.296.205.68.638.714.002.849.005 1.696.01 2.546a904.41 904.41 0 0 0 2.39 1.897l.061 3.161c-.005.121-.018.716.433 1.213.37.407.828.505.972.528.003.525.003 1.048.005 1.573l.01 2.27.528 1.046-.083 1.398.44.432a288.84 288.84 0 0 1-2.894 16.139 292.679 292.679 0 0 1-3.017 12.97 160.102 160.102 0 0 0-6.269 26.051 193.376 193.376 0 0 0-5.799 35.656 10.038 10.038 0 0 0 2.423 1.491 9.899 9.899 0 0 0 2.997.759c-.131.314-.486 1.272-.043 2.09.185.345.555.747 2.071 1.187.895.26 2.258.554 4.01.543-.17 1.455-.339 2.912-.507 4.369-.488 1.097-1.057 1.797-1.489 2.237-.376.382-.79.711-.87 1.277-.074.541.201.989.322 1.192.88 1.44 3.125 1.563 3.457 1.576-.2.991-.398 1.982-.599 2.971l1.309.432c-.494 3.242-.99 6.483-1.487 9.724.322.994.072 2.036-.625 2.629-.581.491-1.273.504-1.502.499l-.17 1.398-9.472 10.344c-1.456 1.326-2.811 2.08-3.82 2.531-1.873.834-3.367.986-3.887 2.162-.303.69-.139 1.439.052 1.975a25.89 25.89 0 0 0 6.557 1.022 25.813 25.813 0 0 0 7.149-.824 15.711 15.711 0 0 0 4.286-2.165 15.413 15.413 0 0 0 1.98-1.691 48.49 48.49 0 0 1 2.853-1.509c1.994-.971 2.614-1.105 3.172-1.761.489-.572 1.083-1.717.666-4.093l-.115-7.338 1.044-1.05a8.105 8.105 0 0 1-.458-2.16 8.187 8.187 0 0 1 .263-2.731 178.131 178.131 0 0 0 1.721-6.295l1-.448-.051-2.438 2.611-1.668c.195-.108.977-.569 1.312-1.558.409-1.21-.19-2.232-.278-2.378a8.132 8.132 0 0 1 1.289-5.157c.9-.533 2.395-1.249 4.358-1.473 3.591-.409 6.32 1.113 7.249 1.689a17.066 17.066 0 0 0 6.673 1.599 17.031 17.031 0 0 0 7.29-1.39 12.31 12.31 0 0 1 2.635-.875 12.546 12.546 0 0 1 4.62-.101c.26 1.159.522 2.32.785 3.478l-1.204 4.284 5.075 3.911v2.095l.723.263c.316 3.519.63 7.041.947 10.56-.093.077-.762.664-.751 1.637.007.948.656 1.514.751 1.597a2.21 2.21 0 0 0-.507.311c-.715.59-1.081 1.666-.854 5.013.08 1.186.239 2.736.579 4.546.586.064 1.33.211 2.143.536a8.38 8.38 0 0 1 3.015 2.064 36.151 36.151 0 0 0 4.795 3.55 36.227 36.227 0 0 0 5.266 2.701 57.22 57.22 0 0 0 9.129-.131c3.064-.294 4.132-.659 4.392-1.406.45-1.303-1.768-3.125-2.107-3.398l-6.56-3.556a33.405 33.405 0 0 1-2.92-2.826c-1.654-1.81-2.233-2.817-3.434-4.202-.98-1.133-2.49-2.639-4.734-4.137a9.477 9.477 0 0 0-.414-2.847 9.576 9.576 0 0 0-.514-1.313l-.286-9.147.792-.672-.293-3.107c1.271-1.033 2.542-2.065 3.815-3.095a6.284 6.284 0 0 0-.056-2.325 6.333 6.333 0 0 0-.996-2.278l-.015-3.494 1.394-.965-.193-3.185c1.194-1.109 2.387-2.219 3.584-3.328l-1.989-14.366 8.43 13.068 1.569-.008 3.216-3.418c-1.142-1.393-2.287-2.786-3.429-4.176h-.34c.01-.031.247-.762-.237-1.316a1.327 1.327 0 0 0-.902-.427l-10.188-16.031-.985-6.982 14.386 18.896-.26 1.048 3.666 4.179 2.878-4.38-2.104-2.873-1.312-.955-5.096-8.539 5.703 7.489 1.657.08 1.993-3.677-.527-.957-18.589-22.287 3.056.077-9.567-36.82 3.576-.45 1.15 3.923c-.746 2.443-.615 3.247-.309 3.486.057.044.268.188.51.448.252.268.414.53.514.713-.154.345-.736 1.725-.17 2.508.17.231.566.584.659.666.327.291.622.502.836.644-.754.904-.684 1.568-.648 1.779.074.417.463.87 1.234 1.761.307.355.566.638.739.821-.288.662-.924 2.289-.304 2.884.17.159.358.177 1.793.478.481.098.87.183 1.109.235.538.896.527 1.964-.021 2.693-.452.602-1.116.767-1.342.813-.286.021-.572.039-.857.059-.1.425-.437 2.109.514 3.834 1.199 2.178 3.468 2.641 3.787 2.7.118-.363.533-1.478 1.688-2.214a4.01 4.01 0 0 1 1.705-.595 432.447 432.447 0 0 0 23.801 52.689 432.725 432.725 0 0 0 21.31 35.61 26.153 26.153 0 0 0 13.303 9.381 179.144 179.144 0 0 1-10.712-13.972ZM517.448 218.489a5.774 5.774 0 0 1-.692 1.681l-1.744-1.612c-.216-.491-.497-.775-.723-.945-1.114-.831-3.082-.512-4.883.832l-15.761-19.98h23.111a114.405 114.405 0 0 0 .82 18.196 5.784 5.784 0 0 1-.128 1.828Zm-2.64-42.672-7.02 5.221-2.909-.499-1.829 1.642-3.314.472 1.322-1.486 1.222-.311 4.008-5.68a4.195 4.195 0 0 0 .193-2.656 9.92 9.92 0 0 0-3.174-3.306c.88-.955 1.759-1.91 2.639-2.868l.252-.919c.196.008.486.036.816.149.404.139.666.338.733.384.8.564 2.984.347 4.013.263a48.82 48.82 0 0 1 3.671-.168c-.43.458-.81.793-1.086 1.017-.409.337-.666.5-.738.824-.072.322.08.628.203.819l-1.219 1.127c-.054.059-.517.587-.373 1.287.09.448.378.716.484.806.339.373.681.747 1.023 1.12.178.224.834 1.012 1.534.911.203-.028.445-.139.712-.257a6.21 6.21 0 0 0 .764-.412 3.882 3.882 0 0 0 2.65-.826 4.528 4.528 0 0 0 1.268-1.486l4.304 4.832h-10.149ZM824.79 213.933l-1.645-2.444-3.532.664c-2.342-1.887-4.346-2.245-5.658-2.246-.1 0-.197.001-.295.006a6.527 6.527 0 0 0-.193-1.045c-.202-.749-.459-1.173-.787-1.892a16.216 16.216 0 0 1-.676-1.745l2.706-2.015a2.55 2.55 0 0 0 .589-1.082 2.596 2.596 0 0 0-.001-1.31l2.964-1.924h-1.896a41.055 41.055 0 0 0 5.571-12.325l-3.414 2.722.402-9.164-2.061 2.964-1.414-9.66-2.513 3.43.023-3.383-1.885 2.647-1.589-7.131-4.214 4.374-2.897 2.382.055-4.721c-1.135 1.069-2.272 2.139-3.407 3.21l.159-2.759a22.86 22.86 0 0 0-4.572 5.342 22.593 22.593 0 0 0-1.623 3.168l-.644-2.825c-.662 1.571-1.731 4.731-1.266 8.703a16.977 16.977 0 0 0 1.595 5.441 32.956 32.956 0 0 1-4.561-5.325l2.305 8.955a28.456 28.456 0 0 0 .465 7.581c.32-.731.638-1.465.958-2.196l1.166 3.564a7.765 7.765 0 0 0 2.981 1.92 6.695 6.695 0 0 0 2.129 2.705l.46 3.307a9.627 9.627 0 0 0-6.234 2.737 4.31 4.31 0 0 0-.707.041 4.692 4.692 0 0 0-2.152.9 19.761 19.761 0 0 0-7.087 3.299c-1.2.599-2.4 1.198-3.599 1.799a9.209 9.209 0 0 0-.618 3.794c.132 2.588 1.338 4.402 1.879 5.122a5.09 5.09 0 0 0 .233 2.676c-.098.64-.263 1.697-.472 3.012-.39 2.444-.475 2.883-.469 3.571.007.922.174 2.309 1.019 4.011a10.307 10.307 0 0 0-3.311-.694c-2.699-.107-4.747.895-5.681 1.434a4.39 4.39 0 0 0-1.489-.625c-1.287-.273-2.043.212-3.27.236-.7.012-1.69-.122-2.902-.807v-2.602l-.421-.444.185-.559a5.392 5.392 0 0 0-1.349-2.82c-.2-.184-.555-.451-1.044-.516-.864-.116-1.786.447-2.298 1.421-.224-.16-.7-.456-1.377-.551a3.084 3.084 0 0 0-1.486.155l-2.778 2.724c-.88.344-1.296 1.162-1.099 1.756.163.493.707.698.811.736v.521l-.812.746c.026.203.096.536.3.89.235.408.533.654.709.778h.222l.56.629c.047.236.164.648.488 1.039.637.768 1.567.838 1.75.847-.007.114-.01.418.188.706.351.507 1 .482 1.043.479l1.752 1.145c.05.281.24 1.141 1.011 1.854a3.317 3.317 0 0 0 1.787.848c1.756.221 2.77.833 3.377 1.367.496.437.968 1.042 1.912 1.326.575.173 1.172.178 1.375.18.601.003 1.1-.091 1.449-.18a8.746 8.746 0 0 0 2.421 1.169c1.596.48 2.233.15 5.167.166 2.838.014 3.404.327 5.242-.021a12.921 12.921 0 0 0 2.339-.679l.486.532-.556.546-.031 1.71.521.258-.44 1.415 1.007.702-3.285 6.108a63.318 63.318 0 0 0-1.168 5.209c-.921 5.102-.929 8.758-1.067 12.308a146.729 146.729 0 0 1-1.175 13.535 36.654 36.654 0 0 0-1.082 8.592 36.318 36.318 0 0 0 .394 5.573 75.705 75.705 0 0 0-.699 11.637 28.46 28.46 0 0 0 1.091 12.858c.056.697.134 1.784.198 3.121.104 2.18.058 2.736.274 3.605.212.849.696 2.072 1.947 3.412l1.088 2.561-.175 3.086 1.566 1.183-1.932.304c-.23.338-.487.798-.663 1.379-.426 1.398-.124 2.617.049 3.159l.709.889-.03 1.524a1.277 1.277 0 0 0-.22.818c.053.604.537.925.599.964a14 14 0 0 1-2.438 3.689 34.865 34.865 0 0 1-9.305 6.32c-.385.172-2.204 1.028-2.814 2.984a4.42 4.42 0 0 0-.179 1.673l.081 1.673a27.873 27.873 0 0 0 17.832-2.486c3.154-1.252 4.869-1.667 5.869-1.779.265-.029 1.062-.102 1.853-.63.55-.367.899-.824 1.11-1.156l-.042-1.376c.34-.78.791-2.09.803-3.758a9.71 9.71 0 0 0-1.282-4.864l.51-2.604-.224-.222.146-.745 1.595-.786.657-2.828a5.007 5.007 0 0 0-2.382-1.142l.071-.633 1.447-.712-.006-1.376c.915-.338 2.19-.885 3.599-1.761 1.142-.709 1.842-1.143 2.483-1.904.553-.658 1.094-1.594 1.617-4.839.239-1.481.481-3.478.535-5.876a13.572 13.572 0 0 1-1.051-2.858c-.355-1.447-.285-2.2-.573-3.789a19.964 19.964 0 0 0-.943-3.416 25.028 25.028 0 0 0 .847-11.824l1.237-6.882 2.021 3.411a51.533 51.533 0 0 0 2.069 6.683 51.087 51.087 0 0 0 2.326 5.157 34.183 34.183 0 0 0 2.416 9.73 17.842 17.842 0 0 0 1.146 8.359l-.686 5.468a3.913 3.913 0 0 0-.103 2.118c.345 1.472 1.454 2.236 1.719 2.409l5.18 3.214 1.556-1.308a.632.632 0 0 1 .407-.187.657.657 0 0 1 .485.185l.645 3.417 2.015-.008.446 1.745-2.299 1.496.567 2.265 1.341.589.077.669a1.39 1.39 0 0 0-.035.595c.137.838 1.028 1.222 1.12 1.26l-.295.521.749 1.187a18.466 18.466 0 0 0 .131 5.018c.147.889.346 1.696.567 2.414l.673 1.113a27.555 27.555 0 0 0 0 6.617v1.226c.451.381 3.381 2.772 7.473 2.165 3.375-.502 5.34-2.715 5.823-3.293v-2.157a8.06 8.06 0 0 0-.314-2.117 8.208 8.208 0 0 0-1.199-2.486 24.687 24.687 0 0 0-3.124-10.06c.008-.954.016-1.908.026-2.863l-.63.412.555-.708-.005-1.152-.412-.668 1.038-.785-.494-3.045-2.489.307-.342-1.969 1.633-.638-.534-3.418a1.938 1.938 0 0 0 1.26-1.305c.948-.059 2.55-.319 3.92-1.456.561-.465 1.032-1.159 1.974-2.544.502-.738.748-1.184.848-1.788a3.624 3.624 0 0 0-.155-1.747 89.002 89.002 0 0 0-2.769-4.932c-2.074-3.433-3.126-4.652-4.676-7.379a48.64 48.64 0 0 1-2.998-6.309l-.208-5.612-5.226-15.072a31.55 31.55 0 0 1-.422-3.269 31.463 31.463 0 0 1-.085-2.861l-2.611-12.108a31.802 31.802 0 0 1-.919-7.027c-.039-2.641-.453-6.751-2.46-11.248a28.184 28.184 0 0 0-3.554-5.896l.108-1.078a1.31 1.31 0 0 0 .183-.745 1.306 1.306 0 0 0-.263-.705l.063-3.011-.003-.557c.358-.112.583-.432.555-.746-.028-.317-.301-.496-.337-.519l.145-.856c.097-.039.361-.161.518-.449.185-.336.151-.765-.078-1.114.429.035.767-.293.763-.631-.003-.26-.208-.513-.507-.597l.741-.635c.038 0 .619-.021.928-.524a1.11 1.11 0 0 0-.005-1.152c.389-.433.9-.933 1.556-1.419a10.477 10.477 0 0 1 1.521-.935 13.071 13.071 0 0 0 1.539 3.786c.404.666.829 1.233 1.233 1.705-.024.528-.095 3.234 1.954 5.382 1.301 1.363 2.815 1.829 3.502 1.994 1.383.305 3.669.608 6.357.013a14.54 14.54 0 0 0 3.453-1.24c.388.014 1.906.025 3.192-1.091a4.513 4.513 0 0 0 1.257-1.827c.438-.153 2.023-.769 2.965-2.465a5.35 5.35 0 0 0 .659-2.642l1.257-1.826 1.74-1.866a1.91 1.91 0 0 0 .887-1.454l-.597-.406c.179-.188.372-.422.555-.708a4.699 4.699 0 0 0 .625-1.527l-1.082-1.259a37.283 37.283 0 0 1-2.201-1.999c-.649-.641-1.241-1.274-2.199-1.553-.486-.142-.809-.117-1.079.004-.449.204-.642.633-.703.784l-1.788-1.034a1.104 1.104 0 0 0-.633-.183c-.332.01-.557.169-.631.225l-1.995 2.944c-.035.335.062.549.118.647.27.469.961.69 1.707.498a4.477 4.477 0 0 0-.549 2.419 1.983 1.983 0 0 0-.666.895 1.992 1.992 0 0 0-.032 1.264l-2.155-.024a5.63 5.63 0 0 0-3.722-.733l.256-1.042c.178-.914.325-2.167.209-3.643a13.487 13.487 0 0 0-.982-4.085 12.18 12.18 0 0 0 .914-3.907 7.928 7.928 0 0 0 1.622-3.129 28.479 28.479 0 0 0 .79-7.14 56.24 56.24 0 0 0-5.404-3.288 56.796 56.796 0 0 0-5.809-2.691l-.784-.666-1.632-.385-.006.001ZM322.096 220.224a25.7 25.7 0 0 1 4.824-5.869c7.061-6.347 19.252-9.987 29.948-5.128 12.656 5.75 15.203 19.76 15.73 22.654 3.326 18.295-10.059 34.079-15.73 35.779-.469.141-2.601.7-5.121 2.157-2.314 1.339-4.164 2.409-5.178 4.311-1.811 3.393.938 6.044.255 11.521-.364 2.919-1.512 5.155-2.317 6.468-8.682-13.066-14.579-18.993-17.688-17.779-1.356.529-2.181 2.416-2.479 5.659a16.603 16.603 0 0 1-2.143 10.155l-.101 4.677a29 29 0 0 0 4.189 4.485c.582.8 1.44 2.184 1.908 4.099.407 1.669.364 3.099.263 4.029 1.616 4.225 3.235 8.447 4.852 12.672a31.29 31.29 0 0 0 5.861 1.786l2.221 4.731c.041.151.114.511-.04.903-.306.776-1.207.923-1.252.928-.074.676-.144 1.351-.218 2.027l-.197.172a452.474 452.474 0 0 1 4.667 9.301 457.239 457.239 0 0 1 7.154 15.379 389.066 389.066 0 0 0-13.101-23.889l-.911-.592c-.266.003-.529.005-.794.011l-.241 1.049.147.494c2.07 4.341 4.139 8.679 6.211 13.02 2.165 4.544 4.333 9.085 6.499 13.628a221.138 221.138 0 0 1-14.531-26.623l-.453-.22c-.539.114-1.078.228-1.614.344a194.26 194.26 0 0 0 5.421 11.784 194.35 194.35 0 0 0 7.018 12.795 211.866 211.866 0 0 1-6.919-11.445 212.437 212.437 0 0 1-6.896-13.331c-.483-.026-.969-.048-1.452-.074l-1.996-2.044-1.445-3.251-1.022-1.533-.063-2.428-1.407-1.085.064-1.918-5.239-8.113a17.849 17.849 0 0 1-4.025-5.558 22.046 22.046 0 0 0-2.173-5.11l-1.47-3.195-3.577 4.088-.896 4.088.767 1.47-1.022 2.492 3.832 3.321c.16.762.438 1.893.929 3.213.837 2.259 1.194 2.108 1.434 3.238.142.673.139 1.298-1.384 6.59-.447 1.559-.364 1.275-.786 2.482-.666 1.9-1.283 3.243-1.614 3.974a123.5 123.5 0 0 0-2.697 6.499l-.289 7.476-3.45 12.072-8.24 11.115v2.748l-1.851 2.107v1.662l-.959 1.341-.767 5.302.448 7.028 1.278 3.321-2.044 4.599-3.003.767-6.451-2.492-3.962-3.321.83-2.94 3.258-3.003-.64-1.47-.829 1.662-1.47-2.044.895-2.044 3.322-7.602.896-.255 1.851-7.857-.063-1.023 1.338-1.662a85.482 85.482 0 0 1-.129-9.261c.385-9.451 2.097-12.53 2.624-13.415a17.202 17.202 0 0 1 3.769-4.407c.397-.989.822-2.312 1.055-3.911.228-1.561.205-2.919.111-3.964a48.924 48.924 0 0 1-8.548-5.234 8.735 8.735 0 0 0-2.353-.481 8.584 8.584 0 0 0-1.621.051 69.285 69.285 0 0 0-13.876 11.877v1.085c.332.458.729 1.166.65 1.983-.103 1.078-.953 1.47-2.886 3.575-.731.797-1.437 1.573-2.181 2.707a16.619 16.619 0 0 0-1.333 2.466c-.192 1.172-.384 2.343-.574 3.514l-1.892 2.33c-1.584.076-3.168.152-4.751.225l-4.663-1.852a7.037 7.037 0 0 1-.007-1.768 6.946 6.946 0 0 1 .392-1.616l5.684-6.962-1.277-.767-1.726-2.428 1.789-3.451.357-4.938a63.594 63.594 0 0 1 11.462-17.291l6.324-10.476a17.898 17.898 0 0 0 1.974-5.32c.609-3.078.27-5.659-.056-7.202a23.359 23.359 0 0 1-3.322-6.069 6.465 6.465 0 0 0-1.725 3.259c-.66.275-1.32.554-1.981.829a27.77 27.77 0 0 1-4.723 4.622 28.191 28.191 0 0 1-9.777 4.832c-4.334 1.462-5.447 2.932-5.624 4.035-.068.425-.018.933-.382 1.523-.592.964-1.538.933-3.013 1.67-.491.245-1.986 1.006-3.056 2.421-1.05 1.386-.728 2.135-1.725 3.258-.858.969-1.966 1.391-2.747 1.596-.248-.106-.562-.288-.61-.569-.101-.61 1.171-1.068 2.054-2.014.564-.604 1.181-1.634 1.3-3.483l-3.124-2.371.314-2.292c-.686.16-1.7.471-2.783 1.126-1.92 1.161-3.309 2.96-3.906 2.621-.081-.046-.493-.326-.445-.579l.015-.048c.693-2.179 3.005-3.36 4.379-4.033 2.168-1.062 3.056-.908 4.07-2.062.686-.781.987-1.657 1.131-2.292a3.052 3.052 0 0 0-.951-.953c-.764-.471-1.255-.258-1.829-.744-.266-.223-.433-.597-.754-1.333-.2-.458-.455-1.093-.703-1.877-.073-.354.109-.693.4-.81a.686.686 0 0 1 .675.124l3.066 2.363 2.747.063c.759.332 1.518.666 2.277.997a26.916 26.916 0 0 0 10.18-9.11l3.258-3.195 7.028-2.939a9.642 9.642 0 0 1 1.341-4.217l.926-8.478c.159-.88.318-1.758.48-2.638 0-.023-.033-.397-.308-.536-.279-.14-.709.007-.904.407a40.468 40.468 0 0 0-7.961 6.38 40.31 40.31 0 0 0-4.877 6.14c.468-8.149-1.02-13.846-2.555-17.63-.787-1.941-1.766-3.825-2.345-6.881-.906-4.776-.177-8.966.62-11.837.748-1.654.179-3.597-1.28-4.548-1.346-.876-3.173-.724-4.405.397.17-1.662.342-3.322.511-4.984-1.993-5.434-4.662-8.788-6.817-10.885-2.211-2.151-4.172-3.261-6.176-6.474-1.065-1.708-2.63-4.222-2.466-7.172.245-4.381 4.179-7.369 5.753-8.563 10.657-8.09 35.196-7.233 47.703 7.27 3.264 3.785 5.002 7.681 5.95 10.365a16.758 16.758 0 0 0-3.263-3.193c-1.005-.746-6.13-4.548-8.763-2.689-1.913 1.348-1.48 4.951-1.389 5.626l10.605 7.028 18.297 11.03c3.623.417 31.587 3.422 35.427-6.274.853-2.15.716-5.487-1.095-7.463-2.773-3.023-9.242-3.046-15.138 1.404l-.003.005ZM750.72 216.638c-1.584-2.632-2.376-3.948-3.301-5.161-2.157-2.834-7.861-9.279-15.918-17.432a137.99 137.99 0 0 1-.876-.397l-.99-1.417a12.606 12.606 0 0 0 5.563-3.41c2.362-2.502 3.016-5.272 3.218-6.39l-1.583-4.331a13.246 13.246 0 0 0-3.331-3.448 13.308 13.308 0 0 0-5.474-2.276c.194.111 2.19 1.296 2.309 3.454a3.882 3.882 0 0 1-.43 1.969 3.696 3.696 0 0 0 1.611 1.78c.168-.025 1.59-.217 2.664.828.814.792.902 1.785.918 2.037a7.722 7.722 0 0 1-.31 1.183c-.806 2.299-2.555 3.705-4.415 5.166-.523.41-1.266.959-2.205 1.548-.193.075-.491.16-.847.135-.689-.051-.839-.464-1.595-.649-.575-.14-1.395-.124-1.604.275-.087.168-.047.368.003.51-1.105-.299-2.033-.104-2.298.409a.835.835 0 0 0-.068.511 2.182 2.182 0 0 0-1.53.298 2.128 2.128 0 0 0-.761.877c-.216-.068-1.231-.366-2.241.181a2.763 2.763 0 0 0-.998.925 4.914 4.914 0 0 1-1.387-.722 5.027 5.027 0 0 1-1.429-1.671v-1.095l2.664 1.63-1.547-4.184h4.92l-5.009-4.081c.102-.16.217-.315.35-.462 1.085-1.21 2.74-1.331 3.434-1.339-2.313-.804-4.623-1.61-6.934-2.415l2.609-3.944-5.828.969-.936-6.446a15.362 15.362 0 0 1-3.84 5.591 25.714 25.714 0 0 0-4.177-5.379l-1.835 5.583-6.935-2.816 1.986 4.73-6.593.827 2.599 3.197-3.959 3.041 3.429.824-.68 1.58 2.034.128-.103 1.457-12.036-2.613.355-2.553c.318-.535.248-1.208-.152-1.639-.456-.487-1.248-.56-1.823-.137l-.51.315c-.768-.765-1.68-1.107-2.334-.816a1.23 1.23 0 0 0-.401.293c-1.292-.727-2.483-.945-2.987-.448a.825.825 0 0 0-.183.279c-.594-.589-1.342-.778-1.825-.504a1.03 1.03 0 0 0-.399.44l-.543.756a27.439 27.439 0 0 0-1.72-1.586c-1.01-.858-1.43-1.091-2.046-1.705a9.195 9.195 0 0 1-1.648-2.252c.09-1.137.301-2.021.464-2.589.429-1.508 1.507-4.251 2.853-6.462.144-.239.474-.768.504-1.496.009-.208.014-.933-.591-1.893-3.686-5.853-9.019-6.187-9.019-6.187-.931-.058-2.716-.038-4.849.884.295-.013 1.988-.067 3.036 1.161.269.315.437.647.543.939.11.103.377.323.768.361.517.052 1.038-.236 1.345-.733a9.35 9.35 0 0 0 1.466 2.071c1.114 1.189 1.727 1.202 2.267 2.032.855 1.313.449 2.999.197 4.044-.235.979-.457 1.142-2.131 4.49-1.042 2.081-1.343 2.792-1.044 3.503.182.436.498.649 1.755 1.414.942.574 1.98 1.193 3.104 1.847a11.151 11.151 0 0 1 3.11 3.303l-1.23 2.01-1.312.332a19 19 0 0 1-5.482 5.16c-.942 1.11-1.886 2.219-2.83 3.327a13.029 13.029 0 0 0-3.562 4.788l-2.277 2.487c-.236.366-.583.94-.941 1.679-.318.661-.337.819-.578 1.278-.711 1.364-1.233 1.305-1.355 1.934-.244 1.257 1.522 3.134 3.126 3.634.279.087.833.222 1.46.651.491.337.822.714 1.025.98l5.481 3.842 4.323 2.499a6.098 6.098 0 0 1 1.629.867c.68.509 1.069 1.032 1.171 1.162.565.724 2.106 1.957 6.247 4.203l1.91 3.854a168.248 168.248 0 0 0 3.218 21.78c.152.322.423 1.02.299 1.894a3.219 3.219 0 0 1-.288.949 28.503 28.503 0 0 0-1.424 8.533c.14.343.374.806.77 1.271a4.695 4.695 0 0 0 1.828 1.305l.685 7.724 1.277.468c-.167.276-.326.58-.469.913-.789 1.837-.656 3.61-.456 4.703a35.403 35.403 0 0 0-2.222 9.701 80.644 80.644 0 0 0-4.127 25.853l-.256-.218.045 2.515c-.196.12-.369.253-.521.392-1.909 1.772-1.094 5.328-.91 6.062a10.239 10.239 0 0 0-1.524 1.849c-.937 1.46-1.235 2.76-1.48 3.739a73.07 73.07 0 0 1-1.871 6.239 29.26 29.26 0 0 0-1.58 6.018c-.236 1.565-.265 2.624-.38 5.323a710.151 710.151 0 0 1-.371 7.69c.358.204 1.158.731 1.611 1.743.049.11.174.409.294 1.091.113.634.219 1.576.121 2.77l-1.471 1.174c-.095.215-.805 1.884.061 3.207.135.204.342.454.664.687l.051 3.717-.799.658.011 2.88-.031 1.274.514 1.128a5.133 5.133 0 0 0-.905 1.498c-.159.41-.243.786-.287 1.094l-.394 1.898-1.125 1.206-3.184 5.66-1.348.225-1.267 2.336.005 1.058-.762.914a4.804 4.804 0 0 0-.325.948 4.833 4.833 0 0 0-.066 1.75c-.01.881.203 1.524.431 1.972 1.145 2.253 4.553 3.322 8.515 2.694a19.556 19.556 0 0 0 7.43-10.669c.341.047.68.095 1.02.14a14.637 14.637 0 0 0 2.537-3.689l.048-2.371-.312-.143-.428-6.776c.437-.304.651-.814.542-1.278-.105-.447-.466-.676-.55-.727l.76-1.46-.136-6.887a4.678 4.678 0 0 0 .866-2.335 4.412 4.412 0 0 0-.041-1.021l-1.207-1.27.718-2.7 2.546-1.285.241-3.682a30.127 30.127 0 0 1 1.072-5.469c1.14-3.874 2.529-5.683 4.769-10.806a88.401 88.401 0 0 0 2.237-5.656l.171-2.697a65.887 65.887 0 0 0 4.815-8.329c2.188-4.527 2.75-7.052 5.344-12.846a115.376 115.376 0 0 1 3.326-6.829c.833-1.313 1.961-1.778 2.472-1.466.526.321.385 1.455.371 1.566-.339.009-.499.114-.583.22-.554.708 1.27 2.898 1.433 3.091-.028.216-.073.775.225 1.384.274.563.694.864.877.981l.607 5.866a3.006 3.006 0 0 0-.287 1.422c.029.616.241 1.075.371 1.309l.801.143.277 5.429a5.427 5.427 0 0 0-.217.547c-.464 1.385-.293 2.701.046 4.051.836 3.318 2.852 7.496 3.061 7.927a25.081 25.081 0 0 0-.115 7.981c.206 2.659.41 5.318.614 7.978l.974 6.701.309 4.409 3.21 1.08.378 3.533-.834 1.024.051 3.426.693.689-.172 2.223.703 2.658a2.016 2.016 0 0 0-.491.63c-.71 1.425.611 3.172.687 3.269l.081 2.003c.12.112.45.451.515.982.025.221-.002.411-.035.548-.034 1.019-.065 2.039-.099 3.061l.333 1.018.086 3.353a12.181 12.181 0 0 0 2.964 3.414l.474-.038a20.518 20.518 0 0 0 5.308 6.319c.67.378 3.132 1.659 6.36 1.081 3.329-.595 5.22-2.769 5.693-3.351v-2.369a4.126 4.126 0 0 0-1.696-3.017l-2.418-3.124-.692.003-5.605-7.559a2.577 2.577 0 0 1-.662-1.746l-.549-.727.29-.148-.266-3.205-.514-.581-.53-5.318c1.04-1.655 1.036-3.341.239-4.046-.155-.138-.502-.38-1.167-.396l-.089-3.79 2.33-.811c.158-2.576.307-6.413.139-11.079-.154-4.276-.472-6.502-.694-9.799-.251-3.761-.389-9.124.195-15.78l2.914-.12-.942-17.525-2.404.119-.079-1.311c.297-.239.525-.494.704-.748 1.82-2.59-.468-6.76-.734-7.234l-.029-7.251c.168-.911-.15-1.755-.773-2.11a1.558 1.558 0 0 0-.912-.179l-.459-5.829a18.403 18.403 0 0 0-2.618-7.715l.946-.696-.781-3.786-.225-1.493a10.275 10.275 0 0 0 2.577-2.853c.622-1.031 1.157-1.917 1.081-3.102-.109-1.715-1.424-2.83-1.797-3.128a3.385 3.385 0 0 1-.954-1.417 3.428 3.428 0 0 1-.044-2.076l-.949-9.545a23.53 23.53 0 0 1 .148-9.001l1.594-2.556a105.738 105.738 0 0 0 6.444-1.521c2.759-.741 5.191-1.515 8.08-2.435 1.05-.334 1.918-.618 2.512-.811a41.777 41.777 0 0 0 8.775-1.82c3.487-1.129 6.697-2.209 7.009-4.241.087-.562-.071-1.035-1.536-3.469Zm-61.656-10.416c-.711.326-.954 1.793-.428 3.655a5.905 5.905 0 0 0-1.929.092c-.385.084-.72.198-1.002.315a136.36 136.36 0 0 1-1.69-1.093c-1.755-1.148-2.475-1.662-3.5-1.631-.275.01-.497.056-.625.087v-.543a34.956 34.956 0 0 0-6.523 1.25c-.048-.162-.301-.971-1.066-1.321-.862-.394-2.027-.048-2.726.92a12.642 12.642 0 0 0-2.475-2.214 12.886 12.886 0 0 0-5.425-2.081 14.881 14.881 0 0 0 2.953-4.413c.136-.29.33-.629.604-.979a5.22 5.22 0 0 1 1.442-1.265c1.475-1.05 2.726-1.942 3.86-2.718.492-.337 1.29-.874 1.488-1.805.076-.357.043-.67.002-.882.882.058 1.461.099 1.835.128.6.043.954.071 1.375-.108a1.94 1.94 0 0 0 .705-.508c.649-.752.41-1.804.375-1.942.001-.025.043-.491.464-.709.432-.225.847.028.863.039l10.954 3.524c.063.34.127.679.188 1.02.002.405.002.811.002 1.214a6.203 6.203 0 0 0-1.172 2.556c-.529 2.664.957 4.767 1.262 5.182a4.405 4.405 0 0 0-.335.874 4.53 4.53 0 0 0-.076 1.967c.061-.084.3-.389.728-.473a1.16 1.16 0 0 1 .538.023l.251 1.896c-.486-.196-.77-.123-.917-.057Zm39.591 5.97a11.842 11.842 0 0 0-3.977 1.795c-.044-.113-.646-1.579-2.212-1.912-1.166-.248-2.393.23-3.125 1.221a19.991 19.991 0 0 0-10.882.255 3.944 3.944 0 0 0-1.015-.629 4.012 4.012 0 0 0-.78-.236 3.355 3.355 0 0 1-.451-.745c-.738-1.665.092-3.41.322-3.858.296-.238.506-.227.589-.214.457.071.858.795.815 1.821l.162-4.337a9.281 9.281 0 0 0 3.745-6.265 1.063 1.063 0 0 0-.511-.596c-.493-.25-.978.022-1.014.043l.633-1.496c.284.161.466.137.556.11.447-.131.732-.945.575-2.035-.024-.09-.02-.161.013-.215.223-.356 1.737.089 4.545 1.335a3.924 3.924 0 0 0 .163 1.788c.097.287.529 1.452 1.63 2.046.437.236.476.111 1.19.426.914.401 1.152.736 1.589.915.543.222 1.425.217 2.914-.793-.254.447-.524 1.109-.338 1.775.202.714.837 1.102 1.112 1.281 1.383.9 2.233 2.428 3.378 3.614a60.654 60.654 0 0 1 4 4.609 11.82 11.82 0 0 0-3.626.297Z"/><path fill="#000" fill-opacity=".5" d="M532.147 369.945c-60.482 1.728-169.566 4.968-242.361 7.559-120.101 4.104-136.301 4.967-178.207 10.799-44.714 6.263-46.226 6.695-57.242 14.253-11.017 7.559-28.513 28.94-36.074 43.41-2.16 4.319-3.456 11.878-3.24 20.517.216 12.742.216 13.174 2.808 7.558l2.593-6.047 5.184 11.015c2.808 6.047 5.832 11.446 6.48 11.878.864.432 1.296-9.503 1.296-22.245-.216-16.197.648-24.62 2.808-28.507l3.024-5.4 2.592 7.775c8.64 24.836 29.378 51.4 47.09 60.471 7.993 4.103 8.857 4.103 17.065 1.08 8.424-3.456 8.64-3.456 21.817 3.887 7.344 4.104 26.569 12.742 42.769 19.437l29.378 12.31 38.017-4.535 38.234-4.535 14.904 12.526c26.785 22.676 37.37 28.507 82.299 46.001 41.258 16.197 45.578 17.277 80.571 22.676l36.722 5.399 19.873 19.222c10.8 10.582 21.816 20.3 24.408 21.596 4.537 2.376 4.753 2.16 4.753-8.854 0-10.583.864-12.527 12.096-26.564 6.696-8.423 12.313-15.334 12.529-15.766.432-.216 19.872-7.343 43.633-15.55l42.77-15.333 28.945 6.695c27.001 6.047 32.185 6.479 71.499 6.479h42.338l75.602-30.236 75.603-30.235 49.682-38.874c47.095-36.714 50.975-40.17 74.525-68.893 13.61-16.63 25.06-30.02 25.27-29.588.22.216-.43 12.742-1.73 28.076-1.29 15.118-1.72 28.076-1.29 28.723 1.08 1.08 11.23-24.836 13.82-35.85l1.95-7.343 3.88 13.822 4.11 13.822 1.94-9.719c3.24-16.413-.86-41.465-8.42-49.672-.65-.648-74.53-1.728-164.385-2.592-89.859-.648-194.623-1.943-232.641-2.375-38.017-.648-118.588.216-179.287 1.727Zm378.015 2.16c82.083.648 160.058 1.728 173.458 2.376 21.38 1.08 24.62 1.727 26.57 5.615 4.75 8.855 7.77 35.634 4.32 39.09-1.73 1.728-2.38 1.296-2.38-1.728-.22-2.376-1.51-7.343-3.02-10.798l-2.81-6.479-2.59 9.718c-1.52 5.399-4.54 14.47-6.7 20.517l-4.1 10.798.86-11.878c.65-6.479 1.51-18.573 2.38-26.564l1.29-14.685 7.35 4.751c4.1 2.376 7.34 3.671 7.34 2.592 0-.864-6.7-4.968-14.69-8.855l-14.47-7.343-22.47 2.376c-28.08 3.023-83.159 3.023-121.609.216-25.705-1.944-35.425-1.728-72.363 2.159-26.785 2.808-54.218 7.343-73.226 11.878-28.946 6.911-73.659 14.038-88.348 14.038-3.456 0-15.121-3.455-25.705-7.559l-19.225-7.558h-37.585c-31.105 0-41.906-.864-65.235-5.4-25.489-4.967-29.809-5.183-48.17-3.239-14.256 1.728-27.865 1.728-47.089 0-22.681-1.944-35.642-1.728-82.083 1.944-30.242 2.375-77.98 5.831-105.845 7.774-30.457 2.16-61.778 5.616-78.843 8.855l-28.081 5.399-34.993-3.671c-27.433-2.808-39.746-3.024-57.242-1.296-12.313 1.08-22.465 1.944-22.897 1.512-.432-.216 2.592-2.592 6.696-5.183 5.832-3.456 18.145-6.047 53.354-11.015 41.474-5.831 57.89-6.695 177.775-10.798 220.977-7.559 349.502-10.582 411.928-9.503 32.617.432 126.581 1.296 208.448 1.944Z"/><path fill="#000" fill-opacity=".5" d="M490.045 401.27c-.501-.133-.997-.272-1.497-.41.038-.105.4-1.298-.363-2.272a2.394 2.394 0 0 0-1.393-.849 63.11 63.11 0 0 1-10.727-5.659 75.772 75.772 0 0 1-6.611-16.204 76.013 76.013 0 0 1-2.752-22.437 116.198 116.198 0 0 1-5.299-17.822 7.676 7.676 0 0 0 2.428-2.486c1.912-3.163.725-6.48.505-7.086-.93-2.605-2.828-4.008-3.544-4.48a234.183 234.183 0 0 1-15.802-42.348c.157.114.32.233.491.353a233.528 233.528 0 0 0 14.252 39.089c.964-.019 1.927-.038 2.891-.062a7.764 7.764 0 0 1 3.84-.396 7.664 7.664 0 0 1 2.342.758 18.563 18.563 0 0 1-3.869-3.793 18.683 18.683 0 0 1-2.461-4.39 13.457 13.457 0 0 0-1.235-3.178c-.754-1.384-1.288-1.775-2.7-3.817-.959-1.384-.916-1.498-1.97-3.092a57.739 57.739 0 0 0-2.948-4.061 54.341 54.341 0 0 1-1.888-3.497c-2.19-4.452-3.43-8.537-3.211-8.627.196-.082 1.317 3.053 4.021 7.076a54.469 54.469 0 0 0 2.619 3.574 79.448 79.448 0 0 1 2.051 2.925c3.377 5.072 4.899 8.646 6.644 11.958 1.326 2.509 3.349 5.94 6.373 9.858.19.253.386.506.586.758.983 1.146 1.966 2.296 2.948 3.446a1.48 1.48 0 0 0 1.631.319c.549-.238.902-.792.892-1.393a6.464 6.464 0 0 1 1.293-1.961 6.444 6.444 0 0 1 2.194-1.475c1.135-.081 2.022-.138 2.609-.171.615-.039 1.092-.062 1.14-.249.053-.229-.572-.563-.739-.649-.53-.281-1.493-.644-3.01-.477a50.604 50.604 0 0 1-4.422-4.223c-5.122-5.525-5.041-7.949-9.83-13.98-2.652-3.341-4.035-4.19-6.091-6.371-1.269-1.34-2.108-2.428-2.824-3.373a45.185 45.185 0 0 1-4.426-7.129c.792.262 1.541.468 2.237.635a54.376 54.376 0 0 1-8.19-17.107 54.28 54.28 0 0 1-1.483-21.711 19.398 19.398 0 0 1 5.819-8.922c3.148-1.728 5.819-2.658 7.574-3.174 4.126-1.216 11.143-2.495 15.693-5.22.319-.191.753-.463 1.092-.978 1.417-2.114-.553-5.535-2.184-8.995-1.183-2.519-2.729-6.203-4.102-11.046-.883.964-1.765 1.928-2.648 2.897l-3.377.72-9.158-10.607a9.774 9.774 0 0 0-2.632-3.579 9.748 9.748 0 0 0-2.958-1.713c-2.719-1.207-5.433-2.419-8.147-3.626L435.756 187c-1.412.057-2.829.11-4.241.162l-6.734 1.446v1.689c-1.345-.071-3.482.01-5.805.988-5.066 2.138-7.036 6.852-7.451 7.93-4.517 1.084-8.413 3.737-9.172 7.144-1.111 4.976 4.298 12.358 14.233 13.594a6.51 6.51 0 0 0 1.436 2.433 6.494 6.494 0 0 0 2.084 1.499l-.429 5.296c-2.075.94-4.15 1.885-6.225 2.825-1.292.363-3.124 1.078-4.836 2.586-4.598 4.032-4.374 10.188-4.322 11.156a55.415 55.415 0 0 1-2.523 11.552 54.517 54.517 0 0 1-2.781 6.771 46.315 46.315 0 0 1-6.796 4.953 45.817 45.817 0 0 1-3.807 2.038l2.652 1.446 2.171 2.171-6.993 13.26-2.165 4.824-1.446 4.82c-.1 1.235.22 2.109.439 2.562.94 1.994 3.325 3.316 4.379 2.744.377-.206.563-.64.825-.563.372.105.191 1.03.658 1.312.243.152.682.133 1.522-.415.801.754 1.955.944 2.862.496 1.111-.549 1.669-1.985 1.154-3.293a9.107 9.107 0 0 1-1.154-2.672c-.096-2.409-.186-4.819-.282-7.229l8.085-12.869 2.924 3.708c-.52.582-1.04 1.169-1.56 1.756 1.884-.458 3.773-.912 5.657-1.37l1.364 1.761-3.706 6.241-.582 5.268-.873 1.427c-.357 1.804-.72 3.603-1.078 5.406l-3.706 8.198c-1.149 4.628-2.299 9.257-3.448 13.89-.601.406-2.357 1.713-3.077 4.128-.119.405-1.044 3.698.973 6.269 1.278 1.628 3.081 2.129 3.973 2.377a9.041 9.041 0 0 0 3.43.267c-1.655 4.748-3.315 9.495-4.975 14.243a76.003 76.003 0 0 1-2.752 22.436 75.761 75.761 0 0 1-6.611 16.205 63.11 63.11 0 0 1-10.727 5.659 2.394 2.394 0 0 0-1.393.849c-.763.974-.401 2.167-.363 2.272-.5.138-.996.276-1.497.41-.019.969-.043 1.942-.067 2.911h14.247c4.832-1.007 9.664-2.009 14.496-3.016-.034-.697-.072-1.393-.11-2.095-.892.015-1.789.024-2.681.034a6.961 6.961 0 0 0 .434-3.245 6.881 6.881 0 0 0-.825-2.61 13.557 13.557 0 0 1-.424-2.324 13.836 13.836 0 0 1 .229-4.113l11.118-28.883a80.655 80.655 0 0 1 1.025-11.146 83.06 83.06 0 0 1 .926-4.757c3.668.472 7.278-1.069 9.329-4.009 2.672-3.822 1.365-8.088 1.207-8.579a56.245 56.245 0 0 1 1.178-6.361 56.217 56.217 0 0 1 1.942-6.327c.729-6.895 1.683-11.853 2.222-11.938a2.35 2.35 0 0 1 1.364.195c.401.215.644.53.778.74 3.162 9.262 6.325 18.523 9.487 27.79.277 6.375 3.449 10.555 6.396 10.65.325.01 1.274-.009 2.514-.873h.005c1.922 5.611 3.849 11.218 5.776 16.829l11.118 28.883c.215 1.045.387 2.457.229 4.113a13.557 13.557 0 0 1-.424 2.324 6.881 6.881 0 0 0-.825 2.61 6.961 6.961 0 0 0 .434 3.245c-.892-.01-1.789-.019-2.681-.034-.038.702-.076 1.398-.11 2.095 4.832 1.007 9.664 2.009 14.496 3.016h14.242c-.024-.969-.048-1.942-.067-2.911Zm-79.903-131.353a21.87 21.87 0 0 1-3.095 4.495 58.045 58.045 0 0 0 3.243-7.664 58.024 58.024 0 0 0 1.855-6.728c.043 1.184.091 2.372.134 3.56a22.075 22.075 0 0 1-2.137 6.337Zm31.476-47.201a8.282 8.282 0 0 0-2.714.968 8.266 8.266 0 0 0-2.127 1.742h-3.005v1.36h-3.582a2.806 2.806 0 0 1-1.164-1.164 2.826 2.826 0 0 1-.291-1.747 8.002 8.002 0 0 0 2.423-1.355 7.999 7.999 0 0 0 2.132-2.715c.672.076 8.8.873 12.897-4.7.668-.907 3.01-4.089 1.822-7.606-.968-2.873-3.939-4.934-7.555-5.23-.548-1.746-1.097-3.488-1.646-5.234 1.007.362 2.357 1.03 3.487 2.328.41.468.515.702.787.998.768.825 2.318 1.555 5.8 1.035a53.814 53.814 0 0 1 5.037 7.172 52.213 52.213 0 0 1 2.905 5.716c-.611.391-1.312.897-2.032 1.551a14.928 14.928 0 0 0-1.646 1.742c2.547 1.197 5.099 2.39 7.651 3.588a103.45 103.45 0 0 1-19.179 1.551Z"/></svg>