<svg width="179" height="139" viewBox="0 0 179 139" fill="none" xmlns="http://www.w3.org/2000/svg">
<path d="M114.072 0C113.33 0 112.835 0.494889 112.835 1.23722V2.72189C110.608 3.21678 109.123 5.19633 109.123 7.42333V9.89777H107.886C107.143 9.89777 106.649 10.3927 106.649 11.135V16.0839C106.649 16.8262 107.143 17.3211 107.886 17.3211H109.123V22.27H107.886C107.143 22.27 106.649 22.7649 106.649 23.5072V28.4561C106.649 29.1984 107.143 29.6933 107.886 29.6933H109.123V39.5911H105.411C104.669 39.5911 104.174 40.086 104.174 40.8283V48.2517C104.174 48.994 104.669 49.4889 105.411 49.4889H106.649V64.3355H105.164C103.927 62.1085 102.195 59.8815 99.7201 58.3969L90.3172 52.7056V50.4786C90.3172 49.7363 89.8223 49.2414 89.08 49.2414C88.3377 49.2414 87.8428 49.7363 87.8428 50.4786V52.7056L78.4399 58.8918C76.2129 60.3764 74.2333 62.356 73.2436 64.583H71.7589V49.7363H72.9961C73.7384 49.7363 74.2333 49.2414 74.2333 48.4991V41.0758C74.2333 40.3334 73.7384 39.8385 72.9961 39.8385H69.2844V29.9408H70.5217C71.264 29.9408 71.7589 29.4459 71.7589 28.7035V23.7547C71.7589 23.0123 71.264 22.5174 70.5217 22.5174H69.2844V17.5686H70.5217C71.264 17.5686 71.7589 17.0737 71.7589 16.3313V11.3824C71.7589 10.6401 71.264 10.1452 70.5217 10.1452H69.2844V7.67078C69.2844 5.44378 67.7998 3.46422 65.5728 2.96933V1.48467C65.5728 0.742334 65.0779 0.247445 64.3356 0.247445C63.5932 0.247445 63.0983 0.742334 63.0983 1.48467V2.96933C60.8713 3.46422 59.3867 5.44378 59.3867 7.67078V10.1452H58.1494C57.4071 10.1452 56.9122 10.6401 56.9122 11.3824V16.3313C56.9122 17.0737 57.4071 17.5686 58.1494 17.5686H59.3867V22.5174H58.1494C57.4071 22.5174 56.9122 23.0123 56.9122 23.7547V28.7035C56.9122 29.4459 57.4071 29.9408 58.1494 29.9408H59.3867V39.8385H55.675C54.9327 39.8385 54.4378 40.3334 54.4378 41.0758V48.4991C54.4378 49.2414 54.9327 49.7363 55.675 49.7363H56.9122V64.583H55.675C54.9327 64.583 54.4378 65.0779 54.4378 65.8202V73.2435C54.4378 73.9859 54.9327 74.4808 55.675 74.4808H56.9122V81.9041H51.221C50.7261 77.6975 47.7568 73.7384 43.0553 71.5114L31.4254 65.8202V64.0881C31.4254 63.3458 30.9306 62.8509 30.1882 62.8509C29.4459 62.8509 28.951 63.5932 28.951 64.0881V65.8202L17.3211 71.5114C12.6197 73.7384 9.65033 77.6975 9.15544 81.9041H3.71166C2.96933 81.9041 2.47444 82.399 2.47444 83.1413V86.853H1.23722C0.494889 86.853 0 87.3478 0 88.0902V95.5135C0 96.2558 0.494889 96.7507 1.23722 96.7507H2.47444V136.342H1.23722C0.494889 136.342 0 136.837 0 137.579C0 138.321 0.494889 138.816 1.23722 138.816H176.923C177.665 138.816 178.16 138.321 178.16 137.579C178.16 136.837 177.665 136.342 176.923 136.342H175.686V96.7507H176.923C177.665 96.7507 178.16 96.2558 178.16 95.5135V88.0902C178.16 87.3478 177.665 86.853 176.923 86.853H175.686V83.1413C175.686 82.399 175.191 81.9041 174.448 81.9041H167.52C167.025 77.6975 164.056 73.7384 159.354 71.5114L147.724 65.8202V64.0881C147.724 63.3458 147.229 62.8509 146.487 62.8509C145.745 62.8509 145.25 63.5932 145.25 64.0881V65.8202L133.867 71.264C129.166 73.491 126.197 77.4501 125.702 81.6566H121.495V74.2333H122.732C123.475 74.2333 123.97 73.7384 123.97 72.9961V65.5728C123.97 64.8304 123.475 64.3355 122.732 64.3355H121.495V49.4889H122.732C123.475 49.4889 123.97 48.994 123.97 48.2517V40.8283C123.97 40.086 123.475 39.5911 122.732 39.5911H119.021V29.6933H120.258C121 29.6933 121.495 29.1984 121.495 28.4561V23.5072C121.495 22.7649 121 22.27 120.258 22.27H119.021V17.3211H120.258C121 17.3211 121.495 16.8262 121.495 16.0839V11.135C121.495 10.3927 121 9.89777 120.258 9.89777H119.021V7.42333C119.021 5.19633 117.536 3.21678 115.309 2.72189V1.23722C115.309 0.494889 114.814 0 114.072 0ZM64.3356 5.19633C65.5728 5.19633 66.81 6.43355 66.81 7.67078V10.1452H61.8611V7.67078C61.8611 6.43355 62.8509 5.19633 64.3356 5.19633ZM113.824 5.19633C115.062 5.19633 116.299 6.43355 116.299 7.67078V10.1452H111.35V7.67078C111.35 6.43355 112.34 5.19633 113.824 5.19633ZM59.3867 12.6197H69.2844V15.0941H59.3867V12.6197ZM108.876 12.6197H118.773V15.0941H108.876V12.6197ZM61.8611 17.5686H66.81V22.5174H61.8611V17.5686ZM111.35 17.5686H116.299V22.5174H111.35V17.5686ZM59.3867 24.9919H69.2844V27.4663H59.3867V24.9919ZM108.876 24.9919H118.773V27.4663H108.876V24.9919ZM61.8611 29.9408H66.81V39.8385H61.8611V29.9408ZM111.35 29.9408H116.299V39.8385H111.35V29.9408ZM56.9122 42.313H71.7589V47.2619H56.9122V42.313ZM106.401 42.313H121.248V47.2619H106.401V42.313ZM59.3867 49.7363H69.2844V64.583H59.3867V49.7363ZM108.876 49.7363H118.773V64.583H108.876V49.7363ZM89.08 55.1801L98.2354 60.8713C101.7 63.0983 103.927 66.5625 103.927 70.7691V72.0063H74.2333V70.7691C74.2333 66.81 76.2129 63.0983 79.9246 60.8713L89.08 55.1801ZM56.9122 67.0574H71.7589V72.0063H56.9122V67.0574ZM106.401 67.0574H121.248V72.0063H106.401V67.0574ZM30.1882 68.0472L41.8181 73.7384C45.7772 75.718 48.2517 78.6873 48.7466 81.9041H11.6299C12.1248 78.6873 14.5992 75.4705 18.5583 73.7384L30.1882 68.0472ZM146.487 68.0472L158.117 73.7384C162.076 75.718 164.303 78.6873 164.798 81.9041H127.929C128.424 78.4398 130.898 75.4705 134.857 73.7384L146.487 68.0472ZM59.3867 74.4808H69.2844V136.342H59.3867V74.4808ZM71.7589 74.4808H76.7078V76.9552H71.7589V74.4808ZM79.1822 74.4808H84.1311V76.9552H79.1822V74.4808ZM86.6056 74.4808H91.5544V76.9552H86.6056V74.4808ZM94.0289 74.4808H98.9778V76.9552H94.0289V74.4808ZM101.452 74.4808H106.401V76.9552H101.452V74.4808ZM108.876 74.4808H118.773V136.342H108.876V74.4808ZM71.7589 79.4296H106.401V84.3785H71.7589V79.4296ZM4.94889 84.3785H7.42333V86.853H4.94889V84.3785ZM9.89778 84.3785H14.8467V86.853H9.89778V84.3785ZM17.3211 84.3785H22.27V86.853H17.3211V84.3785ZM24.7444 84.3785H29.6933V86.853H24.7444V84.3785ZM32.1678 84.3785H37.1167V86.853H32.1678V84.3785ZM39.5911 84.3785H44.54V86.853H39.5911V84.3785ZM47.0144 84.3785H51.9633V86.853H47.0144V84.3785ZM54.4378 84.3785H56.9122V86.853H54.4378V84.3785ZM121.248 84.3785H123.722V86.853H121.248V84.3785ZM126.197 84.3785H131.146V86.853H126.197V84.3785ZM133.62 84.3785H138.569V86.853H133.62V84.3785ZM141.043 84.3785H145.992V86.853H141.043V84.3785ZM148.467 84.3785H153.416V86.853H148.467V84.3785ZM155.89 84.3785H160.839V86.853H155.89V84.3785ZM163.313 84.3785H168.262V86.853H163.313V84.3785ZM170.737 84.3785H173.211V86.853H170.737V84.3785ZM71.7589 86.853H106.401V107.391C104.422 102.937 101.205 99.2252 96.7508 96.5033L89.5749 92.0493C89.08 91.8018 88.5851 91.8018 88.3377 92.0493L81.1618 96.7507C76.9552 99.4726 73.7384 103.184 71.7589 107.638V86.853ZM2.47444 89.3274H56.9122V94.2763H2.47444V89.3274ZM121.248 89.3274H175.686V94.2763H121.248V89.3274ZM89.08 94.5237L95.5136 98.7303C102.442 102.937 106.401 110.36 106.401 118.526V136.342H71.7589V118.526C71.7589 110.608 75.718 103.184 82.6464 98.7303L89.08 94.5237ZM5.19633 96.7507H56.9122V136.342H44.54V120.011C44.54 113.824 41.5707 108.381 36.3743 105.164L31.6729 102.195C31.178 101.947 30.6831 101.947 30.4357 102.195L25.7342 105.164C20.5379 108.381 17.5686 114.072 17.5686 120.011V136.342H5.19633V96.7507ZM121.495 96.7507H173.459V136.342H160.839V120.011C160.839 113.824 157.87 108.381 152.673 105.164L147.972 102.195C147.477 101.947 146.982 101.947 146.735 102.195L142.033 105.164C136.837 108.381 133.867 114.072 133.867 120.011V136.342H121.495V96.7507ZM17.816 99.9675C15.8364 99.9675 14.1043 101.7 14.1043 103.679C14.1043 105.659 15.8364 107.391 17.816 107.391C19.7956 107.391 21.5277 105.659 21.5277 103.679C21.5277 101.7 19.7956 99.9675 17.816 99.9675ZM42.5604 99.9675C40.5809 99.9675 38.8488 101.7 38.8488 103.679C38.8488 105.659 40.5809 107.391 42.5604 107.391C44.54 107.391 46.2721 105.659 46.2721 103.679C46.2721 101.7 44.54 99.9675 42.5604 99.9675ZM134.115 99.9675C132.135 99.9675 130.403 101.7 130.403 103.679C130.403 105.659 132.135 107.391 134.115 107.391C136.094 107.391 137.827 105.659 137.827 103.679C137.827 101.7 136.094 99.9675 134.115 99.9675ZM158.859 99.9675C156.88 99.9675 155.148 101.7 155.148 103.679C155.148 105.659 156.88 107.391 158.859 107.391C160.839 107.391 162.571 105.659 162.571 103.679C162.571 101.7 160.839 99.9675 158.859 99.9675ZM17.816 102.442C18.5583 102.442 19.0532 102.937 19.0532 103.679C19.0532 104.422 18.5583 104.916 17.816 104.916C17.0737 104.916 16.5788 104.422 16.5788 103.679C16.5788 102.937 17.0737 102.442 17.816 102.442ZM42.5604 102.442C43.3028 102.442 43.7977 102.937 43.7977 103.679C43.7977 104.422 43.3028 104.916 42.5604 104.916C41.8181 104.916 41.3232 104.422 41.3232 103.679C41.3232 102.937 41.8181 102.442 42.5604 102.442ZM134.115 102.442C134.857 102.442 135.352 102.937 135.352 103.679C135.352 104.422 134.857 104.916 134.115 104.916C133.373 104.916 132.878 104.422 132.878 103.679C132.878 102.937 133.373 102.442 134.115 102.442ZM158.859 102.442C159.602 102.442 160.097 102.937 160.097 103.679C160.097 104.422 159.602 104.916 158.859 104.916C158.117 104.916 157.622 104.422 157.622 103.679C157.622 102.937 158.117 102.442 158.859 102.442ZM30.9306 104.669L34.8897 107.143C39.3437 109.865 42.0656 114.814 42.0656 120.011V136.342H19.7956V120.258C19.7956 115.062 22.5174 110.36 26.724 107.391L30.9306 104.669ZM147.229 104.669L151.189 107.143C155.643 109.865 158.364 114.814 158.364 120.011V136.342H136.094V120.258C136.094 115.062 138.816 110.36 143.023 107.391L147.229 104.669ZM11.1672 119.083C11.0714 119.077 10.9756 119.091 10.8852 119.123C10.7947 119.155 10.7115 119.204 10.6401 119.268L9.65033 120.011C8.41311 120.753 7.67078 122.238 7.67078 123.722V127.681C7.67078 128.424 8.16566 128.919 8.908 128.919H13.8569C14.5992 128.919 15.0941 128.424 15.0941 127.681V123.722C14.8467 121.99 14.1043 120.505 12.8671 119.763L11.8773 119.268C11.6572 119.152 11.4158 119.089 11.1672 119.083ZM127.466 119.083C127.37 119.077 127.275 119.091 127.184 119.123C127.094 119.155 127.01 119.204 126.939 119.268L125.949 120.011C124.712 120.753 123.97 122.238 123.97 123.722V127.681C123.97 128.424 124.465 128.919 125.207 128.919H130.156C130.898 128.919 131.393 128.424 131.393 127.681V123.722C131.146 121.99 130.403 120.505 129.166 119.763L128.176 119.268C127.957 119.153 127.714 119.089 127.466 119.083ZM167.057 119.083C166.961 119.077 166.866 119.091 166.775 119.123C166.685 119.155 166.601 119.204 166.53 119.268L165.54 120.011C164.303 120.753 163.561 122.238 163.561 123.722V127.681C163.561 128.424 164.056 128.919 164.798 128.919H169.747C170.489 128.919 170.984 128.424 170.984 127.681V123.722C170.737 121.99 169.994 120.505 168.757 119.763L167.767 119.268C167.548 119.153 167.305 119.089 167.057 119.083ZM50.7583 119.33C50.5653 119.319 50.3757 119.385 50.2312 119.513L49.2414 120.258C48.0042 121 47.2619 122.485 47.2619 123.97V127.929C47.0145 128.424 47.5093 128.919 48.2517 128.919H53.2006C53.9429 128.919 54.4378 128.424 54.4378 127.681V123.722C54.4378 122.238 53.6954 120.753 52.4582 120.011L51.4684 119.516C51.2483 119.4 51.0069 119.336 50.7583 119.33ZM11.135 121.743L11.3824 121.99C11.8773 122.485 12.3722 122.98 12.3722 123.722V126.444H9.89778V123.722C9.89778 122.98 10.1403 122.485 10.8826 121.99L11.135 121.743ZM50.7261 121.743L50.9736 121.99C51.4684 122.485 51.9633 122.98 51.9633 123.722V126.444H49.4889V123.722C49.4889 122.98 49.7314 122.485 50.4737 121.99L50.7261 121.743ZM127.434 121.743L127.681 121.99C128.176 122.485 128.671 122.98 128.671 123.722V126.444H126.197V123.722C126.197 122.98 126.439 122.485 127.181 121.99L127.434 121.743ZM167.025 121.743L167.272 121.99C167.767 122.485 168.262 122.98 168.262 123.722V126.444H165.788V123.722C165.788 122.98 166.03 122.485 166.773 121.99L167.025 121.743Z" fill="#4652DD"/>
</svg>
