<svg width="104" height="128" viewBox="0 0 104 128" fill="none" xmlns="http://www.w3.org/2000/svg">
<path d="M44 0C43.7348 0 43.4804 0.105356 43.2929 0.292892C43.1054 0.480429 43 0.734784 43 1V4.1C41.512 4.31597 40.1336 5.00709 39.0703 6.07032C38.0071 7.13356 37.316 8.51195 37.1 10H32C31.7348 10 31.4804 10.1054 31.2929 10.2929C31.1054 10.4804 31 10.7348 31 11V14H20C19.7348 14 19.4804 14.1054 19.2929 14.2929C19.1054 14.4804 19 14.7348 19 15V32H14C13.7348 32 13.4804 32.1054 13.2929 32.2929C13.1054 32.4804 13 32.7348 13 33V38H10C9.73478 38 9.48043 38.1054 9.29289 38.2929C9.10536 38.4804 9 38.7348 9 39V46H4C3.82961 46.0009 3.66226 46.0452 3.51371 46.1287C3.36516 46.2121 3.2403 46.332 3.15087 46.4771C3.06145 46.6221 3.01041 46.7875 3.00256 46.9577C2.99471 47.1279 3.0303 47.2973 3.106 47.45L9 59.238V80H8C7.73478 80 7.48043 80.1054 7.29289 80.2929C7.10536 80.4804 7 80.7348 7 81C7 81.2652 7.10536 81.5196 7.29289 81.7071C7.48043 81.8946 7.73478 82 8 82H9V94H6.128C5.94765 94.0014 5.77102 94.0514 5.61667 94.1447C5.46231 94.2379 5.33593 94.3711 5.2508 94.5301C5.16568 94.6891 5.12496 94.8681 5.13291 95.0482C5.14086 95.2284 5.1972 95.4031 5.296 95.554L9 101.11V120H8C7.73478 120 7.48043 120.105 7.29289 120.293C7.10536 120.48 7 120.735 7 121C7 121.265 7.10536 121.52 7.29289 121.707C7.48043 121.895 7.73478 122 8 122H9V126H1C0.734784 126 0.480429 126.105 0.292892 126.293C0.105356 126.48 0 126.735 0 127C0 127.265 0.105356 127.52 0.292892 127.707C0.480429 127.895 0.734784 128 1 128H103C103.265 128 103.52 127.895 103.707 127.707C103.895 127.52 104 127.265 104 127C104 126.735 103.895 126.48 103.707 126.293C103.52 126.105 103.265 126 103 126H95V122H96C96.2652 122 96.5196 121.895 96.7071 121.707C96.8946 121.52 97 121.265 97 121C97 120.735 96.8946 120.48 96.7071 120.293C96.5196 120.105 96.2652 120 96 120H95V101.304L98.832 95.554C98.9322 95.4034 98.9897 95.2285 98.9983 95.0478C99.007 94.8671 98.9665 94.6875 98.8811 94.528C98.7957 94.3685 98.6687 94.2352 98.5135 94.1422C98.3584 94.0492 98.1809 94.0001 98 94H95V82H96C96.2652 82 96.5196 81.8946 96.7071 81.7071C96.8946 81.5196 97 81.2652 97 81C97 80.7348 96.8946 80.4804 96.7071 80.2929C96.5196 80.1054 96.2652 80 96 80H95V59.234L100.894 47.446C100.971 47.2937 101.007 47.1243 100.999 46.954C100.992 46.7837 100.941 46.6182 100.851 46.4732C100.761 46.3282 100.636 46.2086 100.487 46.1257C100.338 46.0429 100.17 45.9996 100 46H95V39C95 38.7348 94.8946 38.4804 94.7071 38.2929C94.5196 38.1054 94.2652 38 94 38H91V33C91 32.7348 90.8946 32.4804 90.7071 32.2929C90.5196 32.1054 90.2652 32 90 32H85V15C85 14.7348 84.8946 14.4804 84.7071 14.2929C84.5196 14.1054 84.2652 14 84 14H73V11C73 10.7348 72.8946 10.4804 72.7071 10.2929C72.5196 10.1054 72.2652 10 72 10H66.9C66.88 9.866 66.886 9.722 66.86 9.59C66.5647 8.18432 65.844 6.90358 64.7956 5.92174C63.7472 4.93991 62.422 4.30456 61 4.102V1C61 0.734784 60.8946 0.480429 60.7071 0.292892C60.5196 0.105356 60.2652 0 60 0H44ZM45 2H59V4H45V2ZM44 6H60C62.414 6 64.44 7.72 64.902 10H39.102C39.566 7.72 41.586 6 44 6ZM33 12H71V14H33V12ZM21 16H83V32H21V16ZM40 20C39.7348 20 39.4804 20.1054 39.2929 20.2929C39.1054 20.4804 39 20.7348 39 21V27C39 27.2652 39.1054 27.5196 39.2929 27.7071C39.4804 27.8946 39.7348 28 40 28H43V29C43 29.2652 43.1054 29.5196 43.2929 29.7071C43.4804 29.8946 43.7348 30 44 30H60C60.2652 30 60.5196 29.8946 60.7071 29.7071C60.8946 29.5196 61 29.2652 61 29V28H64C64.2652 28 64.5196 27.8946 64.7071 27.7071C64.8946 27.5196 65 27.2652 65 27V21C65 20.7348 64.8946 20.4804 64.7071 20.2929C64.5196 20.1054 64.2652 20 64 20H40ZM32 20.042C30.6742 20.0431 29.4031 20.5702 28.4656 21.5076C27.5282 22.4451 27.0011 23.7162 27 25.042C27 27.802 29.242 30.042 32 30.042C34.758 30.042 37 27.802 37 25.042C37 22.284 34.758 20.042 32 20.042ZM72 20.042C70.6742 20.0431 69.4031 20.5702 68.4656 21.5076C67.5282 22.4451 67.0011 23.7162 67 25.042C67 27.802 69.242 30.042 72 30.042C74.758 30.042 77 27.802 77 25.042C77 22.284 74.758 20.042 72 20.042ZM41 22H63V26H60C59.7348 26 59.4804 26.1054 59.2929 26.2929C59.1054 26.4804 59 26.7348 59 27V28H45V27C45 26.7348 44.8946 26.4804 44.7071 26.2929C44.5196 26.1054 44.2652 26 44 26H41V22ZM32 22.042C33.654 22.042 35 23.388 35 25.042C35 26.696 33.654 28.042 32 28.042C30.346 28.042 29 26.696 29 25.042C29 23.388 30.346 22.042 32 22.042ZM72 22.042C73.654 22.042 75 23.388 75 25.042C75 26.696 73.654 28.042 72 28.042C70.346 28.042 69 26.696 69 25.042C69 23.388 70.346 22.042 72 22.042ZM15 34H89V38H15V34ZM11 40H93V46H11V40ZM5.618 48H98.38L97.38 50H6.62L5.618 48ZM7.618 52H9V54.766L7.618 52ZM11 52H15V58H11V52ZM17 52H21V58H17V52ZM23 52H27V58H23V52ZM29 52H33V58H29V52ZM35 52H39V58H35V52ZM41 52H45V58H41V52ZM47 52H51V58H47V52ZM53 52H57V58H53V52ZM59 52H63V58H59V52ZM65 52H69V58H65V52ZM71 52H75V58H71V52ZM77 52H81V58H77V52ZM83 52H87V58H83V52ZM89 52H93V58H89V52ZM95 52H96.382L95 54.766V52ZM11 60H33V80H31V73C31 72.7348 30.8946 72.4804 30.7071 72.2929C30.5196 72.1054 30.2652 72 30 72H14C13.7348 72 13.4804 72.1054 13.2929 72.2929C13.1054 72.4804 13 72.7348 13 73V80H11V60ZM35 60H69V64H54C53.7348 64 53.4804 64.1054 53.2929 64.2929C53.1054 64.4804 53 64.7348 53 65V72H51V65C51 64.7348 50.8946 64.4804 50.7071 64.2929C50.5196 64.1054 50.2652 64 50 64H35V60ZM71 60H93V80H91V73C91 72.7348 90.8946 72.4804 90.7071 72.2929C90.5196 72.1054 90.2652 72 90 72H74C73.7348 72 73.4804 72.1054 73.2929 72.2929C73.1054 72.4804 73 72.7348 73 73V80H71V60ZM22 62C19.794 62 18 63.794 18 66C18 68.206 19.794 70 22 70C24.206 70 26 68.206 26 66C26 63.794 24.206 62 22 62ZM82 62C79.794 62 78 63.794 78 66C78 68.206 79.794 70 82 70C84.206 70 86 68.206 86 66C86 63.794 84.206 62 82 62ZM22 64C22.5304 64 23.0391 64.2107 23.4142 64.5858C23.7893 64.9609 24 65.4696 24 66C24 66.5304 23.7893 67.0391 23.4142 67.4142C23.0391 67.7893 22.5304 68 22 68C21.4696 68 20.9609 67.7893 20.5858 67.4142C20.2107 67.0391 20 66.5304 20 66C20 65.4696 20.2107 64.9609 20.5858 64.5858C20.9609 64.2107 21.4696 64 22 64ZM82 64C82.5304 64 83.0391 64.2107 83.4142 64.5858C83.7893 64.9609 84 65.4696 84 66C84 66.5304 83.7893 67.0391 83.4142 67.4142C83.0391 67.7893 82.5304 68 82 68C81.4696 68 80.9609 67.7893 80.5858 67.4142C80.2107 67.0391 80 66.5304 80 66C80 65.4696 80.2107 64.9609 80.5858 64.5858C80.9609 64.2107 81.4696 64 82 64ZM35 66H49V66.332C42.484 67.664 37.5 73.21 37.046 80H35V66ZM55 66H69V80H66.954C66.502 73.21 61.514 67.664 55 66.332V66ZM49 68.372V70.468C46.8743 71.0743 44.9815 72.3089 43.57 74.01C42.1584 75.711 41.2939 77.799 41.09 80H39.046C39.2626 77.2583 40.3428 74.6559 42.1313 72.5666C43.9198 70.4774 46.3245 69.0088 49 68.372ZM55 68.372C57.6755 69.0088 60.0802 70.4774 61.8687 72.5666C63.6572 74.6559 64.7374 77.2583 64.954 80H62.91C62.7066 77.7988 61.8424 75.7106 60.4307 74.0094C59.019 72.3083 57.1259 71.0738 55 70.468V68.372ZM49 72.562V73C49 73.2652 49.1054 73.5196 49.2929 73.7071C49.4804 73.8946 49.7348 74 50 74H54C54.2652 74 54.5196 73.8946 54.7071 73.7071C54.8946 73.5196 55 73.2652 55 73V72.562C56.5837 73.1231 57.9778 74.118 59.0234 75.4331C60.0691 76.7482 60.7242 78.3306 60.914 80H60C59.7348 80 59.4804 80.1054 59.2929 80.2929C59.1054 80.4804 59 80.7348 59 81C59 81.2652 59.1054 81.5196 59.2929 81.7071C59.4804 81.8946 59.7348 82 60 82H61V94H60C59.7348 94 59.4804 94.1054 59.2929 94.2929C59.1054 94.4804 59 94.7348 59 95C59 95.2652 59.1054 95.5196 59.2929 95.7071C59.4804 95.8946 59.7348 96 60 96H61V126H43V96H44C44.2652 96 44.5196 95.8946 44.7071 95.7071C44.8946 95.5196 45 95.2652 45 95C45 94.7348 44.8946 94.4804 44.7071 94.2929C44.5196 94.1054 44.2652 94 44 94H43V82H44C44.2652 82 44.5196 81.8946 44.7071 81.7071C44.8946 81.5196 45 81.2652 45 81C45 80.7348 44.8946 80.4804 44.7071 80.2929C44.5196 80.1054 44.2652 80 44 80H43.086C43.2763 78.3308 43.9316 76.7486 44.9771 75.4335C46.0227 74.1185 47.4166 73.1236 49 72.562ZM15 74H18V76H15V74ZM20 74H24V76H20V74ZM26 74H29V76H26V74ZM75 74H78V76H75V74ZM80 74H84V76H80V74ZM86 74H89V76H86V74ZM15 78H29V80H15V78ZM75 78H89V80H75V78ZM11 82H13V84H11V82ZM15 82H29V84H15V82ZM31 82H33V84H31V82ZM35 82H41V94H35V82ZM63 82H69V94H63V82ZM71 82H73V84H71V82ZM75 82H89V84H75V82ZM91 82H93V84H91V82ZM11 86H13V94H11V86ZM15 86H17V91C17 91.2652 17.1054 91.5196 17.2929 91.7071C17.4804 91.8946 17.7348 92 18 92H26C26.2652 92 26.5196 91.8946 26.7071 91.7071C26.8946 91.5196 27 91.2652 27 91V86H29V94H15V86ZM19 86H25V90H19V86ZM31 86H33V94H31V86ZM71 86H73V94H71V86ZM75 86H77V91C77 91.2652 77.1054 91.5196 77.2929 91.7071C77.4804 91.8946 77.7348 92 78 92H86C86.2652 92 86.5196 91.8946 86.7071 91.7071C86.8946 91.5196 87 91.2652 87 91V86H89V94H75V86ZM79 86H85V90H79V86ZM91 86H93V94H91V86ZM7.996 96H36.132L33.464 100H10.66L7.996 96ZM38.536 96H41V126H35V101.304L38.536 96ZM63 96H65.594L69 101.11V126H63V96ZM67.996 96H96.132L93.464 100H70.66L67.996 96ZM11 102H13V120H11V102ZM15 102H29V120H15V102ZM31 102H33V120H31V102ZM71 102H73V120H71V102ZM75 102H89V120H75V102ZM91 102H93V120H91V102ZM11 122H13V126H11V122ZM15 122H17V126H15V122ZM19 122H25V126H19V122ZM27 122H29V126H27V122ZM31 122H33V126H31V122ZM71 122H73V126H71V122ZM75 122H77V126H75V122ZM79 122H85V126H79V122ZM87 122H89V126H87V122ZM91 122H93V126H91V122Z" fill="#4652DD"/>
</svg>
