<svg width="153" height="134" viewBox="0 0 153 134" fill="none" xmlns="http://www.w3.org/2000/svg">
<path d="M151.685 131.733H148.284V53.5093C148.284 51.0152 147.151 48.7479 145.11 47.1607L143.296 45.8003C142.843 45.5736 142.389 45.5736 141.936 45.8003L140.122 47.1607C139.895 47.3875 139.442 47.6142 139.215 48.0677V42.6261C139.215 40.132 137.854 37.8646 135.814 36.5042L132.413 34.6904V30.8359C132.413 30.1557 131.959 29.7022 131.279 29.7022C130.599 29.7022 130.146 30.1557 130.146 30.8359V34.6904L126.745 36.5042C126.291 36.731 125.838 37.1844 125.611 37.4112V30.6091C125.611 28.1151 124.477 25.8477 122.437 24.2606L120.623 22.9002C120.169 22.6734 119.716 22.6734 119.262 22.9002L117.448 24.2606C117.222 24.4873 116.768 24.714 116.541 25.1675V23.8071C116.541 21.313 115.408 19.0457 113.367 17.4585L111.553 16.0981C111.1 15.8714 110.646 15.8714 110.193 16.0981L108.379 17.4585C107.926 17.6853 107.699 18.1387 107.245 18.5922C106.792 16.5516 105.658 14.7377 103.844 13.8308L100.443 12.0169V8.16244C100.443 7.48223 99.9899 7.02877 99.3097 7.02877C98.6294 7.02877 98.176 7.48223 98.176 8.16244V12.0169L94.775 13.8308C94.3215 14.0575 93.868 14.511 93.4145 14.7377C93.4145 12.2437 92.2809 9.97631 90.2403 8.38917L88.4264 7.02877C87.9729 6.80203 87.5195 6.80203 87.066 7.02877L85.2521 8.38917C84.5719 8.84264 84.1184 9.52284 83.665 9.97631C82.9848 8.6159 82.0778 7.48223 80.9442 6.80203L77.5431 4.98816V1.13367C77.5431 0.453469 77.0897 0 76.4095 0C75.7293 0 75.2758 0.453469 75.2758 1.13367V4.98816L71.8748 6.80203C70.5144 7.48223 69.6075 8.6159 69.154 9.97631C68.7005 9.29611 68.247 8.84264 67.5668 8.38917L65.753 7.02877C65.2995 6.80203 64.846 6.80203 64.3926 7.02877L62.5787 8.38917C60.5381 9.74958 59.4044 12.2437 59.4044 14.7377C58.9509 14.2843 58.7242 14.0575 58.044 13.8308L54.643 12.0169V8.16244C54.643 7.48223 54.1895 7.02877 53.5093 7.02877C52.8291 7.02877 52.3756 7.48223 52.3756 8.16244V12.0169L48.9746 13.8308C47.1607 14.9645 46.0271 16.5516 45.5736 18.5922C45.3469 18.1387 44.8934 17.912 44.4399 17.4585L42.6261 16.0981C42.1726 15.8714 41.7191 15.8714 41.2656 16.0981L39.4518 17.4585C37.4112 19.0457 36.2775 21.313 36.2775 23.8071V25.1675L35.3706 24.2606L33.5567 22.9002C33.1032 22.6734 32.6497 22.6734 32.1963 22.9002L30.3824 24.2606C28.3418 25.8477 27.2081 28.1151 27.2081 30.6091V37.4112C26.7547 36.9577 26.5279 36.731 26.0744 36.5042L22.6734 34.6904V30.8359C22.6734 30.1557 22.22 29.7022 21.5398 29.7022C20.8596 29.7022 20.4061 30.1557 20.4061 30.8359V34.6904L17.0051 36.5042C14.7377 37.6379 13.6041 40.132 13.6041 42.6261V48.0677L12.6971 47.1607L10.8833 45.8003C10.4298 45.5736 9.97631 45.5736 9.52284 45.8003L7.70897 47.1607C5.66836 48.7479 4.53469 51.0152 4.53469 53.5093V131.733H1.13367C0.453469 131.733 0 132.186 0 132.866C0 133.547 0.453469 134 1.13367 134H150.778C151.459 134 151.912 133.547 151.912 132.866C151.912 132.186 152.365 131.733 151.685 131.733ZM7.70897 69.3807C7.70897 67.5668 8.6159 65.9797 9.97631 64.846L11.11 63.9391L12.2437 64.846C13.6041 65.9797 14.511 67.5668 14.511 69.3807V79.8105L13.6041 78.9036L11.7902 77.5431C11.3367 77.3164 10.8832 77.3164 10.4298 77.5431L8.61591 78.9036C8.38917 79.1303 7.9357 79.357 7.70897 79.8105V69.3807ZM16.7783 51.6954C16.7783 50.1083 17.6853 48.5212 19.0457 47.6142L22.4467 45.8003L25.8477 47.6142C27.2081 48.5212 28.1151 50.1083 28.1151 51.6954V62.5787C27.6616 62.1252 27.4349 61.8985 26.9814 61.6717L23.1269 59.4044C22.6734 59.1777 22.4467 59.1777 21.9932 59.4044L18.1387 61.6717C17.6853 61.8985 17.2318 62.3519 17.0051 62.5787V51.6954H16.7783ZM16.7783 67.5668C16.7783 65.9797 17.6853 64.3926 19.0457 63.4856L22.4467 61.6717L25.8477 63.4856C27.2081 64.3926 28.1151 65.9797 28.1151 67.5668V78.4501C27.6616 77.9966 27.4349 77.7699 26.9814 77.5431L23.1269 75.2758C22.6734 75.0491 22.4467 75.0491 21.9932 75.2758L18.1387 77.5431C17.6853 77.7699 17.2318 78.2234 17.0051 78.4501V67.5668H16.7783ZM125.611 83.4382C125.611 81.8511 126.518 80.264 127.878 79.357L131.279 77.5431L134.68 79.357C136.041 80.264 136.948 81.8511 136.948 83.4382V95.4552H125.611V83.4382ZM136.948 69.3807V78.4501C136.494 77.9966 136.267 77.7699 135.814 77.5431L131.959 75.2758C131.506 75.0491 131.279 75.0491 130.826 75.2758L126.971 77.5431C126.518 77.7699 126.064 78.2234 125.838 78.4501V67.5668C125.838 65.9797 126.744 64.3926 128.105 63.4856L131.506 61.6717L134.907 63.4856C136.267 64.3926 137.174 65.9797 137.174 67.5668V69.3807H136.948ZM123.343 67.5668V75.2758L122.437 74.3689L120.623 73.0085C120.169 72.7817 119.716 72.7817 119.262 73.0085L117.448 74.3689C117.222 74.5956 116.768 74.8223 116.541 75.2758V64.846C116.541 63.0321 117.448 61.445 118.809 60.3113L119.942 59.4044L121.076 60.3113C122.437 61.445 123.343 63.0321 123.343 64.846V67.5668ZM114.274 64.846V75.2758L113.367 74.3689L111.553 73.0085C111.1 72.7817 110.646 72.7817 110.193 73.0085L108.379 74.3689C108.152 74.5956 107.699 74.8223 107.472 75.2758V62.5787C107.472 60.7648 108.379 59.1777 109.739 58.044L110.873 57.1371L112.007 58.044C113.367 59.1777 114.274 60.7648 114.274 62.5787V64.846ZM93.868 95.4552V81.1709C93.868 79.5838 94.775 77.9966 96.1354 77.0897L99.5364 75.2758L102.937 77.0897C104.298 77.9966 105.205 79.5838 105.205 81.1709V95.4552H93.868ZM105.205 62.5787V76.1827C104.751 75.7293 104.525 75.5025 104.071 75.2758L100.217 73.0085C99.7631 72.7817 99.5364 72.7817 99.0829 73.0085L95.2284 75.2758C94.775 75.5025 94.3215 75.956 94.0947 76.1827V60.7648C94.0947 59.1777 95.0017 57.5905 96.3621 56.6836L99.7631 54.8697L103.164 56.6836C104.525 57.5905 105.431 59.1777 105.431 60.7648V62.5787H105.205ZM91.6007 60.7648V75.2758L90.6937 74.3689L88.8799 73.0085C88.4264 72.7817 87.9729 72.7817 87.5195 73.0085L85.7056 74.3689C85.4789 74.5956 85.0254 74.8223 84.7987 75.2758V58.044C84.7987 56.2301 85.7056 54.643 87.066 53.5093L88.1997 52.6024L89.3333 53.5093C90.6937 54.643 91.6007 56.2301 91.6007 58.044V60.7648ZM71.1946 95.4552V81.1709C71.1946 79.5838 72.1015 77.9966 73.4619 77.0897L76.8629 75.2758L80.264 77.0897C81.6244 77.9966 82.5313 79.5838 82.5313 81.1709V95.4552H71.1946ZM82.5313 70.7411V76.1827C82.0778 75.7293 81.8511 75.5025 81.3976 75.2758L77.5431 73.0085C77.0897 72.7817 76.8629 72.7817 76.4095 73.0085L72.555 75.2758C72.1015 75.5025 71.6481 75.956 71.4213 76.1827V58.4975C71.4213 56.9103 72.3283 55.3232 73.6887 54.4162L77.0897 52.6024L80.4907 54.4162C81.8511 55.3232 82.758 56.9103 82.758 58.4975V70.7411H82.5313ZM68.9272 58.4975V75.2758L68.0203 74.3689L66.2064 73.0085C65.753 72.7817 65.2995 72.7817 64.846 73.0085L63.0322 74.3689C62.8054 74.5956 62.3519 74.8223 62.1252 75.2758V58.044C62.1252 56.2301 63.0321 54.643 64.3926 53.5093L65.5262 52.6024L66.6599 53.5093C68.0203 54.643 68.9272 56.2301 68.9272 58.044V58.4975ZM48.5211 95.4552V81.1709C48.5211 79.5838 49.4281 77.9966 50.7885 77.0897L54.1895 75.2758L57.5905 77.0897C58.9509 77.9966 59.8579 79.5838 59.8579 81.1709V95.4552H48.5211ZM59.8579 73.0085V76.1827C59.4044 75.7293 59.1777 75.5025 58.7242 75.2758L54.8697 73.0085C54.4162 72.7817 54.1895 72.7817 53.736 73.0085L49.8816 75.2758C49.4281 75.5025 48.9746 75.956 48.7479 76.1827V60.7648C48.7479 59.1777 49.6548 57.5905 51.0152 56.6836L54.4162 54.8697L57.8173 56.6836C59.1777 57.5905 60.0846 59.1777 60.0846 60.7648V73.0085H59.8579ZM46.2538 73.0085V75.2758L45.3469 74.3689L43.533 73.0085C43.0795 72.7817 42.6261 72.7817 42.1726 73.0085L40.3587 74.3689C40.132 74.5956 39.6785 74.8223 39.4518 75.2758V62.5787C39.4518 60.7648 40.3587 59.1777 41.7191 58.044L42.8528 57.1371L43.9865 58.044C45.3469 59.1777 46.2538 60.7648 46.2538 62.5787V73.0085ZM37.1844 75.2758L36.2775 74.3689L34.4636 73.0085C34.0102 72.7817 33.5567 72.7817 33.1032 73.0085L31.2893 74.3689C31.0626 74.5956 30.6091 74.8223 30.3824 75.2758V64.846C30.3824 63.0321 31.2893 61.445 32.6497 60.3113L33.7834 59.4044L34.9171 60.3113C36.2775 61.445 37.1844 63.0321 37.1844 64.846V75.2758ZM16.7783 85.2521V83.4382C16.7783 81.8511 17.6853 80.264 19.0457 79.357L22.4467 77.5431L25.8477 79.357C27.2081 80.264 28.1151 81.8511 28.1151 83.4382V95.4552H16.7783V85.2521ZM16.7783 101.124V97.7225H28.1151V104.751C27.4349 104.525 26.9814 104.525 26.3012 104.525C25.621 103.164 24.0338 102.257 22.4467 102.257C20.8596 102.257 19.2724 103.164 18.5922 104.525C17.912 104.298 17.4585 104.525 16.7783 104.751V101.124ZM30.3824 83.4382V80.7174C30.3824 78.9035 31.2893 77.3164 32.6497 76.1827L33.7834 75.2758L34.9171 76.1827C36.2775 77.3164 37.1844 78.9035 37.1844 80.7174V95.4552H30.3824V83.4382ZM39.4518 80.7174C39.4518 78.9035 40.3587 77.3164 41.7191 76.1827L42.8528 75.2758L43.9865 76.1827C45.3469 77.3164 46.2538 78.9035 46.2538 80.7174V95.4552H39.4518V80.7174ZM48.5211 97.7225H59.8579V104.751C59.1777 104.525 58.7242 104.525 58.044 104.525C57.3638 103.164 55.7766 102.257 54.1895 102.257C52.6024 102.257 51.0152 103.164 50.335 104.525C49.6548 104.298 49.2014 104.525 48.5211 104.751V97.7225ZM62.1252 93.4145V80.7174C62.1252 78.9035 63.0321 77.3164 64.3926 76.1827L65.5262 75.2758L66.6599 76.1827C68.0203 77.3164 68.9272 78.9035 68.9272 80.7174V95.4552H62.1252V93.4145ZM71.1946 97.7225H82.5313V104.751C81.8511 104.525 81.3976 104.525 80.7174 104.525C80.0372 103.164 78.4501 102.257 76.8629 102.257C75.2758 102.257 73.6887 103.164 73.0085 104.525C72.3282 104.298 71.8748 104.525 71.1946 104.751V97.7225ZM84.7987 93.4145V80.7174C84.7987 78.9035 85.7056 77.3164 87.066 76.1827L88.1997 75.2758L89.3333 76.1827C90.6937 77.3164 91.6007 78.9035 91.6007 80.7174V95.4552H84.7987V93.4145ZM93.868 97.7225H105.205V104.751C104.525 104.525 104.071 104.525 103.391 104.525C102.711 103.164 101.124 102.257 99.5364 102.257C97.9492 102.257 96.3621 103.164 95.6819 104.525C95.0017 104.298 94.5482 104.525 93.868 104.751V97.7225ZM107.472 93.4145V80.7174C107.472 78.9035 108.379 77.3164 109.739 76.1827L110.873 75.2758L112.007 76.1827C113.367 77.3164 114.274 78.9035 114.274 80.7174V95.4552H107.472V93.4145ZM116.541 80.7174C116.541 78.9035 117.448 77.3164 118.809 76.1827L119.942 75.2758L121.076 76.1827C122.437 77.3164 123.343 78.9035 123.343 80.7174V95.4552H116.541V80.7174ZM125.611 97.7225H136.948V104.751C136.267 104.525 135.814 104.525 135.134 104.525C134.453 103.164 132.866 102.257 131.279 102.257C129.692 102.257 128.105 103.164 127.425 104.525C126.744 104.298 126.291 104.525 125.611 104.751V97.7225ZM139.215 85.2521C139.215 83.4382 140.122 81.8511 141.482 80.7174L142.616 79.8105L143.75 80.7174C145.11 81.8511 146.017 83.4382 146.017 85.2521V95.4552H139.215V85.2521ZM146.017 79.8105L145.11 78.9036L143.296 77.5431C142.843 77.3164 142.389 77.3164 141.936 77.5431L140.122 78.9036C139.895 79.1303 139.442 79.357 139.215 79.8105V69.3807C139.215 67.5668 140.122 65.9797 141.482 64.846L142.616 63.9391L143.75 64.846C145.11 65.9797 146.017 67.5668 146.017 69.3807V79.8105ZM136.948 53.5093V62.5787C136.494 62.1252 136.267 61.8985 135.814 61.6717L131.959 59.4044C131.506 59.1777 131.279 59.1777 130.826 59.4044L126.971 61.6717C126.518 61.8985 126.064 62.3519 125.838 62.5787V51.6954C125.838 50.1083 126.744 48.5212 128.105 47.6142L131.506 45.8003L134.907 47.6142C136.267 48.5212 137.174 50.1083 137.174 51.6954V53.5093H136.948ZM123.343 51.6954V59.4044L122.437 58.4975L120.623 57.1371C120.169 56.9103 119.716 56.9103 119.262 57.1371L117.448 58.4975C117.222 58.7242 116.768 58.9509 116.541 59.4044V46.7073C116.541 44.8934 117.448 43.3063 118.809 42.1726L119.942 41.2656L121.076 42.1726C122.437 43.3063 123.343 44.8934 123.343 46.7073V51.6954ZM114.274 46.7073V57.1371L113.367 56.2301L111.553 54.8697C111.1 54.643 110.646 54.643 110.193 54.8697L108.379 56.2301C108.152 56.4569 107.699 56.6836 107.472 57.1371V44.4399C107.472 42.6261 108.379 41.0389 109.739 39.9052L110.873 38.9983L112.007 39.9052C113.367 41.0389 114.274 42.6261 114.274 44.4399V46.7073ZM105.205 44.4399V55.7767C104.751 55.3232 104.525 55.0964 104.071 54.8697L100.217 52.6024C99.7631 52.3756 99.5364 52.3756 99.0829 52.6024L95.2284 54.8697C94.775 55.0964 94.3215 55.5499 94.0947 55.7767V40.3587C94.0947 38.7716 95.0017 37.1844 96.3621 36.2775L99.7631 34.4636L103.164 36.2775C104.525 37.1844 105.431 38.7716 105.431 40.3587V44.4399H105.205ZM91.6007 39.9052V52.6024L90.6937 51.6954L88.8799 50.335C88.4264 50.1083 87.9729 50.1083 87.5195 50.335L85.7056 51.6954C85.4789 51.9222 85.0254 52.1489 84.7987 52.6024V37.6379C84.7987 35.824 85.7056 34.2369 87.066 33.1032L88.1997 32.1963L89.3333 33.1032C90.6937 34.2369 91.6007 35.824 91.6007 37.6379V39.9052ZM82.5313 37.6379V53.5093C82.0778 53.0558 81.8511 52.8291 81.3976 52.6024L77.5431 50.335C77.0897 50.1083 76.8629 50.1083 76.4095 50.335L72.555 52.6024C72.1015 52.8291 71.6481 53.2826 71.4213 53.5093V35.824C71.4213 34.2369 72.3283 32.6497 73.6887 31.7428L77.0897 29.9289L80.4907 31.7428C81.8511 32.6497 82.758 34.2369 82.758 35.824V37.6379H82.5313ZM68.9272 48.0677V52.6024L68.0203 51.6954L66.2064 50.335C65.753 50.1083 65.2995 50.1083 64.846 50.335L63.0322 51.6954C62.8054 51.9222 62.3519 52.1489 62.1252 52.6024V37.6379C62.1252 35.824 63.0321 34.2369 64.3926 33.1032L65.5262 32.1963L66.6599 33.1032C68.0203 34.2369 68.9272 35.824 68.9272 37.6379V48.0677ZM59.8579 52.6024V55.7767C59.4044 55.3232 59.1777 55.0964 58.7242 54.8697L54.8697 52.6024C54.4162 52.3756 54.1895 52.3756 53.736 52.6024L49.8816 54.8697C49.4281 55.0964 48.9746 55.5499 48.7479 55.7767V40.3587C48.7479 38.7716 49.6548 37.1844 51.0152 36.2775L54.4162 34.4636L57.8173 36.2775C59.1777 37.1844 60.0846 38.7716 60.0846 40.3587V52.6024H59.8579ZM46.2538 52.6024V57.1371L45.3469 56.2301L43.533 54.8697C43.0795 54.643 42.6261 54.643 42.1726 54.8697L40.3587 56.2301C40.132 56.4569 39.6785 56.6836 39.4518 57.1371V44.4399C39.4518 42.6261 40.3587 41.0389 41.7191 39.9052L42.8528 38.9983L43.9865 39.9052C45.3469 41.0389 46.2538 42.6261 46.2538 44.4399V52.6024ZM37.1844 59.4044L36.2775 58.4975L34.4636 57.1371C34.0102 56.9103 33.5567 56.9103 33.1032 57.1371L31.2893 58.4975C31.0626 58.7242 30.6091 58.9509 30.3824 59.4044V46.7073C30.3824 44.8934 31.2893 43.3063 32.6497 42.1726L33.7834 41.2656L34.9171 42.1726C36.2775 43.3063 37.1844 44.8934 37.1844 46.7073V59.4044ZM7.70897 85.2521C7.70897 83.4382 8.6159 81.8511 9.97631 80.7174L11.11 79.8105L12.2437 80.7174C13.6041 81.8511 14.511 83.4382 14.511 85.2521V95.4552H7.70897V85.2521ZM16.7783 131.733V107.926C16.7783 107.245 17.2318 106.792 17.912 106.792C18.1387 106.792 18.3655 106.792 18.5922 107.019C18.819 107.245 19.2724 107.245 19.7259 107.019C20.1794 106.792 20.4061 106.565 20.4061 106.112C20.6328 104.978 21.5398 104.298 22.6734 104.298C23.8071 104.298 24.714 104.978 24.9408 106.112C24.9408 106.565 25.1675 106.792 25.621 107.019C26.0745 107.245 26.3012 107.019 26.7547 107.019C26.9814 106.792 27.2081 106.792 27.4349 106.792C28.1151 106.792 28.5685 107.245 28.5685 107.926V131.733H16.7783ZM30.3824 131.733V97.7225H37.1844V131.733H30.3824ZM39.4518 131.733V97.7225H46.2538V131.733H39.4518ZM48.5211 131.733V107.926C48.5211 107.245 48.9746 106.792 49.6548 106.792C49.8816 106.792 50.1083 106.792 50.335 107.019C50.5618 107.245 51.0152 107.245 51.4687 107.019C51.9222 106.792 52.1489 106.565 52.1489 106.112C52.3756 104.978 53.2826 104.298 54.4162 104.298C55.5499 104.298 56.4569 104.978 56.6836 106.112C56.6836 106.565 56.9103 106.792 57.3638 107.019C57.5905 107.245 58.044 107.019 58.4975 107.019C58.7242 106.792 58.9509 106.792 59.1777 106.792C59.8579 106.792 60.3113 107.245 60.3113 107.926V131.733H48.5211ZM62.1252 131.733V97.7225H68.9272V131.733H62.1252ZM71.1946 131.733V107.926C71.1946 107.245 71.648 106.792 72.3283 106.792C72.555 106.792 72.7817 106.792 73.0085 107.019C73.2352 107.245 73.6887 107.245 74.1421 107.019C74.5956 106.792 74.8223 106.565 74.8223 106.112C75.0491 104.978 75.956 104.298 77.0897 104.298C78.2234 104.298 79.1303 104.978 79.357 106.112C79.357 106.565 79.5838 106.792 80.0372 107.019C80.264 107.245 80.7174 107.019 81.1709 107.019C81.3976 106.792 81.6244 106.792 81.8511 106.792C82.5313 106.792 82.9848 107.245 82.9848 107.926V131.733H71.1946ZM84.7987 131.733V97.7225H91.6007V131.733H84.7987ZM93.868 131.733V107.926C93.868 107.245 94.3215 106.792 95.0017 106.792C95.2284 106.792 95.4551 106.792 95.6819 107.019C95.9086 107.245 96.3621 107.245 96.8156 107.019C97.269 106.792 97.4958 106.565 97.4958 106.112C97.7225 104.978 98.6294 104.298 99.7631 104.298C100.897 104.298 101.804 104.978 102.03 106.112C102.03 106.565 102.257 106.792 102.711 107.019C102.937 107.245 103.391 107.019 103.844 107.019C104.071 106.792 104.298 106.792 104.525 106.792C105.205 106.792 105.658 107.245 105.658 107.926V131.733H93.868ZM107.472 131.733V97.7225H114.274V131.733H107.472ZM116.541 131.733V97.7225H123.343V131.733H116.541ZM125.611 131.733V107.926C125.611 107.245 126.064 106.792 126.745 106.792C126.971 106.792 127.198 106.792 127.425 107.019C127.651 107.245 128.105 107.245 128.558 107.019C129.012 106.792 129.239 106.565 129.239 106.112C129.465 104.978 130.372 104.298 131.506 104.298C132.64 104.298 133.547 104.978 133.773 106.112C133.773 106.565 134 106.792 134.453 107.019C134.68 107.245 135.134 107.019 135.587 107.019C135.814 106.792 136.041 106.792 136.267 106.792C136.948 106.792 137.401 107.245 137.401 107.926V131.733H125.611ZM139.215 131.733V97.7225H146.017V131.733H139.215ZM141.482 48.9746L142.616 48.0677L143.75 48.9746C145.11 50.1083 146.017 51.6954 146.017 53.5093V63.9391L145.11 63.0322L143.296 61.6717C142.843 61.445 142.389 61.445 141.936 61.6717L140.122 63.0322C139.895 63.2589 139.442 63.4856 139.215 63.9391V53.5093C139.215 51.6954 140.122 50.1083 141.482 48.9746ZM127.878 38.5448L131.279 36.731L134.68 38.5448C136.041 39.4518 136.948 41.0389 136.948 42.6261V46.7073C136.494 46.2538 136.267 46.0271 135.814 45.8003L131.959 43.533C131.506 43.3063 131.279 43.3063 130.826 43.533L126.971 45.8003C126.518 46.0271 126.064 46.4805 125.838 46.7073V42.6261C125.611 41.0389 126.518 39.4518 127.878 38.5448ZM118.809 26.3012L119.942 25.3942L121.076 26.3012C122.437 27.4349 123.343 29.022 123.343 30.8359V41.2656L122.437 40.3587L120.623 38.9983C120.169 38.7716 119.716 38.7716 119.262 38.9983L117.448 40.3587C117.222 40.5855 116.768 40.8122 116.541 41.2656V30.8359C116.541 29.022 117.448 27.4349 118.809 26.3012ZM109.739 19.4992L110.873 18.5922L112.007 19.4992C113.367 20.6328 114.274 22.22 114.274 24.0338V38.9983L113.367 38.0914L111.553 36.731C111.1 36.5042 110.646 36.5042 110.193 36.731L108.379 38.0914C108.152 38.3181 107.699 38.5448 107.472 38.9983V24.0338C107.472 22.22 108.379 20.6328 109.739 19.4992ZM96.1354 15.8714L99.5364 14.0575L102.937 15.8714C104.298 16.7783 105.205 18.3655 105.205 19.9526V35.3706C104.751 34.9171 104.525 34.6904 104.071 34.4636L100.217 32.1963C99.7631 31.9695 99.5364 31.9695 99.0829 32.1963L95.2284 34.4636C94.775 34.6904 94.3215 35.1438 94.0947 35.3706V19.9526C93.868 18.3655 94.775 16.7783 96.1354 15.8714ZM87.066 10.4298L88.1997 9.52284L89.3333 10.4298C90.6937 11.5635 91.6007 13.1506 91.6007 14.9645V32.1963L90.6937 31.2893L88.8799 29.9289C88.4264 29.7022 87.9729 29.7022 87.5195 29.9289L85.7056 31.2893C85.4789 31.5161 85.0254 31.7428 84.7987 32.1963V14.9645C84.7987 13.1506 85.7056 11.5635 87.066 10.4298ZM71.1946 13.1506C71.1946 11.5635 72.1015 9.97631 73.4619 9.06937L76.8629 7.2555L80.264 9.06937C81.6244 9.97631 82.5313 11.5635 82.5313 13.1506V30.8359C82.0778 30.3824 81.8511 30.1557 81.3976 29.9289L77.5431 27.6616C77.0897 27.4349 76.8629 27.4349 76.4095 27.6616L72.555 29.9289C72.1015 30.1557 71.6481 30.6091 71.4213 30.8359V13.1506H71.1946ZM62.1252 14.9645C62.1252 13.1506 63.0321 11.5635 64.3926 10.4298L65.5262 9.52284L66.6599 10.4298C68.0203 11.5635 68.9272 13.1506 68.9272 14.9645V32.1963L68.0203 31.2893L66.2064 29.9289C65.753 29.7022 65.2995 29.7022 64.846 29.9289L63.0322 31.2893C62.8054 31.5161 62.3519 31.7428 62.1252 32.1963V14.9645ZM48.5211 19.9526C48.5211 18.3655 49.4281 16.7783 50.7885 15.8714L54.1895 14.0575L57.5905 15.8714C58.9509 16.7783 59.8579 18.3655 59.8579 19.9526V35.3706C59.4044 34.9171 59.1777 34.6904 58.7242 34.4636L54.8697 32.1963C54.4162 31.9695 54.1895 31.9695 53.736 32.1963L49.8816 34.4636C49.4281 34.6904 48.9746 35.1438 48.7479 35.3706V19.9526H48.5211ZM39.4518 24.0338C39.4518 22.22 40.3587 20.6328 41.7191 19.4992L42.8528 18.5922L43.9865 19.4992C45.3469 20.6328 46.2538 22.22 46.2538 24.0338V38.9983L45.3469 38.0914L43.533 36.731C43.0795 36.5042 42.6261 36.5042 42.1726 36.731L40.3587 38.0914C40.132 38.3181 39.6785 38.5448 39.4518 38.9983V24.0338ZM32.6497 26.3012L33.7834 25.3942L34.9171 26.3012C36.2775 27.4349 37.1844 29.022 37.1844 30.8359V41.2656L36.2775 40.3587L34.4636 38.9983C34.0102 38.7716 33.5567 38.7716 33.1032 38.9983L31.2893 40.3587C31.0626 40.5855 30.6091 40.8122 30.3824 41.2656V30.8359C30.3824 29.022 31.2893 27.4349 32.6497 26.3012ZM19.0457 38.5448L22.4467 36.731L25.8477 38.5448C27.2081 39.4518 28.1151 41.0389 28.1151 42.6261V46.7073C27.6616 46.2538 27.4349 46.0271 26.9814 45.8003L23.1269 43.533C22.6734 43.3063 22.4467 43.3063 21.9932 43.533L18.1387 45.8003C17.6853 46.0271 17.2318 46.4805 17.0051 46.7073V42.6261C16.7783 41.0389 17.6853 39.4518 19.0457 38.5448ZM9.97631 48.9746L11.11 48.0677L12.2437 48.9746C13.6041 50.1083 14.511 51.6954 14.511 53.5093V63.9391L13.6041 63.0322L11.7902 61.6717C11.3367 61.445 10.8832 61.445 10.4298 61.6717L8.61591 63.0322C8.38917 63.2589 7.9357 63.4856 7.70897 63.9391V53.5093C7.70897 51.6954 8.6159 50.1083 9.97631 48.9746ZM7.70897 101.124V97.7225H14.511V131.733H7.70897V101.124Z" fill="#4652DD"/>
<path d="M20.1794 56.9103H24.7141C25.3943 56.9103 25.8477 56.4568 25.8477 55.7766V51.4687C25.8477 50.335 25.1675 49.4281 24.2606 48.7479L22.9002 48.0677C22.4467 47.8409 22.22 47.8409 21.7665 48.0677L20.6328 48.7479C19.7259 49.2014 19.0457 50.335 19.0457 51.4687V55.7766C19.0457 56.4568 19.4992 56.9103 20.1794 56.9103ZM21.313 51.4687C21.313 51.242 21.5398 51.0152 21.7665 50.7885L22.4467 50.335L23.1269 50.7885C23.3536 51.0152 23.5804 51.242 23.5804 51.4687V54.643H21.313V51.4687ZM78.6768 78.2234L77.3164 77.5431C76.863 77.3164 76.6362 77.3164 76.1828 77.5431L75.0491 78.2234C74.1421 78.6768 73.4619 79.8105 73.4619 80.9442V85.2521C73.4619 85.9323 73.9154 86.3858 74.5956 86.3858H79.1303C79.8105 86.3858 80.264 85.9323 80.264 85.2521V80.9442C80.264 79.8105 79.5838 78.6768 78.6768 78.2234ZM77.9966 84.1184H75.7293V80.9442C75.7293 80.7174 75.956 80.4907 76.1828 80.264L76.863 79.8105L77.5432 80.264C77.7699 80.4907 77.9966 80.7174 77.9966 80.9442V84.1184ZM78.6768 32.8765L77.3164 32.1963C76.863 31.9695 76.6362 31.9695 76.1828 32.1963L75.0491 32.8765C74.1421 33.3299 73.4619 34.4636 73.4619 35.5973V39.9052C73.4619 40.5854 73.9154 41.0389 74.5956 41.0389H79.1303C79.8105 41.0389 80.264 40.5854 80.264 39.9052V35.5973C80.264 34.4636 79.5838 33.3299 78.6768 32.8765ZM77.9966 38.7716H75.7293V35.5973C75.7293 35.3705 75.956 35.1438 76.1828 34.9171L76.863 34.4636L77.5432 34.9171C77.7699 35.1438 77.9966 35.3705 77.9966 35.5973V38.7716ZM74.5956 18.3655H79.1303C79.8105 18.3655 80.264 17.912 80.264 17.2318V12.9238C80.264 11.7902 79.5838 10.8832 78.6768 10.203L77.3164 9.52283C76.863 9.2961 76.6362 9.2961 76.1828 9.52283L75.0491 10.203C74.1421 10.6565 73.4619 11.7902 73.4619 12.9238V17.2318C73.4619 17.912 73.9154 18.3655 74.5956 18.3655ZM75.7293 12.9238C75.7293 12.6971 75.956 12.4704 76.1828 12.2436L76.863 11.7902L77.5432 12.2436C77.7699 12.4704 77.9966 12.6971 77.9966 12.9238V16.0981H75.7293V12.9238ZM97.269 25.1675H101.804C102.484 25.1675 102.937 24.714 102.937 24.0338V19.7259C102.937 18.5922 102.257 17.6853 101.35 17.0051L99.9899 16.3249C99.5364 16.0981 99.3097 16.0981 98.8562 16.3249L97.7225 17.0051C96.8156 17.4585 96.1354 18.5922 96.1354 19.7259V24.0338C96.1354 24.714 96.5888 25.1675 97.269 25.1675ZM98.4027 19.7259C98.4027 19.4991 98.6295 19.2724 98.8562 19.0457L99.5364 18.5922L100.217 19.0457C100.443 19.2724 100.67 19.4991 100.67 19.7259V22.9002H98.4027V19.7259ZM101.35 37.4112L99.9899 36.731C99.5364 36.5042 99.3097 36.5042 98.8562 36.731L97.7225 37.4112C96.8156 37.8646 96.1354 38.9983 96.1354 40.132V44.4399C96.1354 45.1201 96.5888 45.5736 97.269 45.5736H101.804C102.484 45.5736 102.937 45.1201 102.937 44.4399V40.132C102.937 38.9983 102.257 37.8646 101.35 37.4112ZM100.67 43.3063H98.4027V40.132C98.4027 39.9052 98.6295 39.6785 98.8562 39.4518L99.5364 38.9983L100.217 39.4518C100.443 39.6785 100.67 39.9052 100.67 40.132V43.3063ZM101.35 78.2234L99.9899 77.5431C99.5364 77.3164 99.3097 77.3164 98.8562 77.5431L97.7225 78.2234C96.8156 78.6768 96.1354 79.8105 96.1354 80.9442V85.2521C96.1354 85.9323 96.5888 86.3858 97.269 86.3858H101.804C102.484 86.3858 102.937 85.9323 102.937 85.2521V80.9442C102.937 79.8105 102.257 78.6768 101.35 78.2234ZM100.67 84.1184H98.4027V80.9442C98.4027 80.7174 98.6295 80.4907 98.8562 80.264L99.5364 79.8105L100.217 80.264C100.443 80.4907 100.67 80.7174 100.67 80.9442V84.1184ZM51.9222 25.1675H56.4569C57.1371 25.1675 57.5905 24.714 57.5905 24.0338V19.7259C57.5905 18.5922 56.9103 17.6853 56.0034 17.0051L54.643 16.3249C54.1895 16.0981 53.9628 16.0981 53.5093 16.3249L52.3756 17.0051C51.4687 17.4585 50.7885 18.5922 50.7885 19.7259V24.0338C50.7885 24.714 51.242 25.1675 51.9222 25.1675ZM53.0558 19.7259C53.0558 19.4991 53.2826 19.2724 53.5093 19.0457L54.1895 18.5922L54.8697 19.0457C55.0965 19.2724 55.3232 19.4991 55.3232 19.7259V22.9002H53.0558V19.7259ZM56.0034 37.4112L54.643 36.731C54.1895 36.5042 53.9628 36.5042 53.5093 36.731L52.3756 37.4112C51.4687 37.8646 50.7885 38.9983 50.7885 40.132V44.4399C50.7885 45.1201 51.242 45.5736 51.9222 45.5736H56.4569C57.1371 45.5736 57.5905 45.1201 57.5905 44.4399V40.132C57.5905 38.9983 56.9103 37.8646 56.0034 37.4112ZM55.3232 43.3063H53.0558V40.132C53.0558 39.9052 53.2826 39.6785 53.5093 39.4518L54.1895 38.9983L54.8697 39.4518C55.0965 39.6785 55.3232 39.9052 55.3232 40.132V43.3063ZM56.0034 78.2234L54.643 77.5431C54.1895 77.3164 53.9628 77.3164 53.5093 77.5431L52.3756 78.2234C51.4687 78.6768 50.7885 79.8105 50.7885 80.9442V85.2521C50.7885 85.9323 51.242 86.3858 51.9222 86.3858H56.4569C57.1371 86.3858 57.5905 85.9323 57.5905 85.2521V80.9442C57.5905 79.8105 56.9103 78.6768 56.0034 78.2234ZM55.3232 84.1184H53.0558V80.9442C53.0558 80.7174 53.2826 80.4907 53.5093 80.264L54.1895 79.8105L54.8697 80.264C55.0965 80.4907 55.3232 80.7174 55.3232 80.9442V84.1184ZM133.093 80.4907L131.733 79.8105C131.279 79.5837 131.052 79.5837 130.599 79.8105L129.465 80.4907C128.558 80.9442 127.878 82.0778 127.878 83.2115V87.5194C127.878 88.1997 128.332 88.6531 129.012 88.6531H133.547C134.227 88.6531 134.68 88.1997 134.68 87.5194V83.2115C134.68 82.0778 134 80.9442 133.093 80.4907ZM132.413 86.3858H130.146V83.2115C130.146 82.9848 130.372 82.758 130.599 82.5313L131.279 82.0778L131.959 82.5313C132.186 82.758 132.413 82.9848 132.413 83.2115V86.3858ZM133.093 48.7479L131.733 48.0677C131.279 47.8409 131.052 47.8409 130.599 48.0677L129.465 48.7479C128.558 49.2014 127.878 50.335 127.878 51.4687V55.7766C127.878 56.4568 128.332 56.9103 129.012 56.9103H133.547C134.227 56.9103 134.68 56.4568 134.68 55.7766V51.4687C134.68 50.335 134 49.2014 133.093 48.7479ZM132.413 54.643H130.146V51.4687C130.146 51.242 130.372 51.0152 130.599 50.7885L131.279 50.335L131.959 50.7885C132.186 51.0152 132.413 51.242 132.413 51.4687V54.643ZM56.4569 111.327H51.9222C51.242 111.327 50.7885 111.78 50.7885 112.46V121.53C50.7885 122.21 51.242 122.663 51.9222 122.663H56.4569C57.1371 122.663 57.5905 122.21 57.5905 121.53V112.46C57.5905 111.78 57.1371 111.327 56.4569 111.327ZM55.3232 120.396H53.0558V113.594H55.3232V120.396ZM24.7141 111.327H20.1794C19.4992 111.327 19.0457 111.78 19.0457 112.46V121.53C19.0457 122.21 19.4992 122.663 20.1794 122.663H24.7141C25.3943 122.663 25.8477 122.21 25.8477 121.53V112.46C25.8477 111.78 25.3943 111.327 24.7141 111.327ZM23.5804 120.396H21.313V113.594H23.5804V120.396ZM79.1303 111.327H74.5956C73.9154 111.327 73.4619 111.78 73.4619 112.46V121.53C73.4619 122.21 73.9154 122.663 74.5956 122.663H79.1303C79.8105 122.663 80.264 122.21 80.264 121.53V112.46C80.264 111.78 79.8105 111.327 79.1303 111.327ZM77.9966 120.396H75.7293V113.594H77.9966V120.396ZM101.804 111.327H97.269C96.5888 111.327 96.1354 111.78 96.1354 112.46V121.53C96.1354 122.21 96.5888 122.663 97.269 122.663H101.804C102.484 122.663 102.937 122.21 102.937 121.53V112.46C102.937 111.78 102.484 111.327 101.804 111.327ZM100.67 120.396H98.4027V113.594H100.67V120.396ZM133.547 111.327H129.012C128.332 111.327 127.878 111.78 127.878 112.46V121.53C127.878 122.21 128.332 122.663 129.012 122.663H133.547C134.227 122.663 134.68 122.21 134.68 121.53V112.46C134.68 111.78 134.227 111.327 133.547 111.327ZM132.413 120.396H130.146V113.594H132.413V120.396ZM24.2606 80.4907L22.9002 79.8105C22.4467 79.5837 22.22 79.5837 21.7665 79.8105L20.6328 80.4907C19.7259 80.9442 19.0457 82.0778 19.0457 83.2115V87.5194C19.0457 88.1997 19.4992 88.6531 20.1794 88.6531H24.7141C25.3943 88.6531 25.8477 88.1997 25.8477 87.5194V83.2115C25.8477 82.0778 25.1675 80.9442 24.2606 80.4907ZM23.5804 86.3858H21.313V83.2115C21.313 82.9848 21.5398 82.758 21.7665 82.5313L22.4467 82.0778L23.1269 82.5313C23.3536 82.758 23.5804 82.9848 23.5804 83.2115V86.3858ZM20.1794 72.7817H24.7141C25.3943 72.7817 25.8477 72.3283 25.8477 71.648V67.3401C25.8477 66.2064 25.1675 65.2995 24.2606 64.6193L22.9002 63.9391C22.4467 63.7123 22.22 63.7123 21.7665 63.9391L20.6328 64.6193C19.7259 65.0728 19.0457 66.2064 19.0457 67.3401V71.648C19.0457 72.3283 19.4992 72.7817 20.1794 72.7817ZM21.313 67.3401C21.313 67.1134 21.5398 66.8866 21.7665 66.6599L22.4467 66.2064L23.1269 66.6599C23.3536 66.8866 23.5804 67.1134 23.5804 67.3401V70.5144H21.313V67.3401ZM78.6768 55.5499L77.3164 54.8697C76.863 54.643 76.6362 54.643 76.1828 54.8697L75.0491 55.5499C74.1421 56.0034 73.4619 57.137 73.4619 58.2707V62.5787C73.4619 63.2589 73.9154 63.7123 74.5956 63.7123H79.1303C79.8105 63.7123 80.264 63.2589 80.264 62.5787V58.2707C80.264 57.137 79.5838 56.0034 78.6768 55.5499ZM77.9966 61.445H75.7293V58.2707C75.7293 58.044 75.956 57.8172 76.1828 57.5905L76.863 57.137L77.5432 57.5905C77.7699 57.8172 77.9966 58.044 77.9966 58.2707V61.445ZM101.35 57.8173L99.9899 57.137C99.5364 56.9103 99.3097 56.9103 98.8562 57.137L97.7225 57.8173C96.8156 58.2707 96.1354 59.4044 96.1354 60.5381V64.846C96.1354 65.5262 96.5888 65.9797 97.269 65.9797H101.804C102.484 65.9797 102.937 65.5262 102.937 64.846V60.5381C102.937 59.4044 102.257 58.2707 101.35 57.8173ZM100.67 63.7123H98.4027V60.5381C98.4027 60.3113 98.6295 60.0846 98.8562 59.8579L99.5364 59.4044L100.217 59.8579C100.443 60.0846 100.67 60.3113 100.67 60.5381V63.7123ZM56.0034 57.8173L54.643 57.137C54.1895 56.9103 53.9628 56.9103 53.5093 57.137L52.3756 57.8173C51.4687 58.2707 50.7885 59.4044 50.7885 60.5381V64.846C50.7885 65.5262 51.242 65.9797 51.9222 65.9797H56.4569C57.1371 65.9797 57.5905 65.5262 57.5905 64.846V60.5381C57.5905 59.4044 56.9103 58.2707 56.0034 57.8173ZM55.3232 63.7123H53.0558V60.5381C53.0558 60.3113 53.2826 60.0846 53.5093 59.8579L54.1895 59.4044L54.8697 59.8579C55.0965 60.0846 55.3232 60.3113 55.3232 60.5381V63.7123ZM133.093 64.6193L131.733 63.9391C131.279 63.7123 131.052 63.7123 130.599 63.9391L129.465 64.6193C128.558 65.0728 127.878 66.2064 127.878 67.3401V71.648C127.878 72.3283 128.332 72.7817 129.012 72.7817H133.547C134.227 72.7817 134.68 72.3283 134.68 71.648V67.3401C134.68 66.2064 134 65.0728 133.093 64.6193ZM132.413 70.5144H130.146V67.3401C130.146 67.1134 130.372 66.8866 130.599 66.6599L131.279 66.2064L131.959 66.6599C132.186 66.8866 132.413 67.1134 132.413 67.3401V70.5144ZM88.1997 36.5042C87.5195 36.5042 87.066 36.9577 87.066 37.6379V46.7073C87.066 47.3875 87.5195 47.8409 88.1997 47.8409C88.8799 47.8409 89.3333 47.3875 89.3333 46.7073V37.6379C89.3333 36.9577 88.8799 36.5042 88.1997 36.5042ZM88.1997 56.9103C87.5195 56.9103 87.066 57.3638 87.066 58.044V69.3807C87.066 70.0609 87.5195 70.5144 88.1997 70.5144C88.8799 70.5144 89.3333 70.0609 89.3333 69.3807V58.044C89.3333 57.3638 88.8799 56.9103 88.1997 56.9103ZM65.5262 36.5042C64.846 36.5042 64.3926 36.9577 64.3926 37.6379V46.7073C64.3926 47.3875 64.846 47.8409 65.5262 47.8409C66.2064 47.8409 66.6599 47.3875 66.6599 46.7073V37.6379C66.6599 36.9577 66.2064 36.5042 65.5262 36.5042ZM88.1997 27.4348C88.8799 27.4348 89.3333 26.9814 89.3333 26.3012V14.9645C89.3333 14.2843 88.8799 13.8308 88.1997 13.8308C87.5195 13.8308 87.066 14.2843 87.066 14.9645V26.3012C87.066 26.9814 87.5195 27.4348 88.1997 27.4348ZM65.5262 27.4348C66.2064 27.4348 66.6599 26.9814 66.6599 26.3012V14.9645C66.6599 14.2843 66.2064 13.8308 65.5262 13.8308C64.846 13.8308 64.3926 14.2843 64.3926 14.9645V26.3012C64.3926 26.9814 64.846 27.4348 65.5262 27.4348ZM65.5262 56.9103C64.846 56.9103 64.3926 57.3638 64.3926 58.044V69.3807C64.3926 70.0609 64.846 70.5144 65.5262 70.5144C66.2064 70.5144 66.6599 70.0609 66.6599 69.3807V58.044C66.6599 57.3638 66.2064 56.9103 65.5262 56.9103ZM42.8528 43.3063C42.1726 43.3063 41.7191 43.7597 41.7191 44.4399V51.242C41.7191 51.9222 42.1726 52.3756 42.8528 52.3756C43.533 52.3756 43.9865 51.9222 43.9865 51.242V44.4399C43.9865 43.7597 43.533 43.3063 42.8528 43.3063ZM42.8528 61.445C42.1726 61.445 41.7191 61.8985 41.7191 62.5787V69.3807C41.7191 70.0609 42.1726 70.5144 42.8528 70.5144C43.533 70.5144 43.9865 70.0609 43.9865 69.3807V62.5787C43.9865 61.8985 43.533 61.445 42.8528 61.445ZM33.7834 45.5736C33.1032 45.5736 32.6498 46.0271 32.6498 46.7073V53.5093C32.6498 54.1895 33.1032 54.643 33.7834 54.643C34.4636 54.643 34.9171 54.1895 34.9171 53.5093V46.7073C34.9171 46.0271 34.4636 45.5736 33.7834 45.5736ZM42.8528 34.2369C43.533 34.2369 43.9865 33.7834 43.9865 33.1032V24.0338C43.9865 23.3536 43.533 22.9002 42.8528 22.9002C42.1726 22.9002 41.7191 23.3536 41.7191 24.0338V33.1032C41.7191 33.7834 42.1726 34.2369 42.8528 34.2369ZM33.7834 36.5042C34.4636 36.5042 34.9171 36.0508 34.9171 35.3705V30.8359C34.9171 30.1557 34.4636 29.7022 33.7834 29.7022C33.1032 29.7022 32.6498 30.1557 32.6498 30.8359V35.3705C32.6498 36.0508 33.1032 36.5042 33.7834 36.5042ZM33.7834 63.7123C33.1032 63.7123 32.6498 64.1658 32.6498 64.846V69.3807C32.6498 70.0609 33.1032 70.5144 33.7834 70.5144C34.4636 70.5144 34.9171 70.0609 34.9171 69.3807V64.846C34.9171 64.1658 34.4636 63.7123 33.7834 63.7123ZM11.11 59.1777C11.7902 59.1777 12.2437 58.7242 12.2437 58.044V53.5093C12.2437 52.8291 11.7902 52.3756 11.11 52.3756C10.4298 52.3756 9.97632 52.8291 9.97632 53.5093V58.044C9.97632 58.7242 10.4298 59.1777 11.11 59.1777ZM11.11 75.0491C11.7902 75.0491 12.2437 74.5956 12.2437 73.9154V69.3807C12.2437 68.7005 11.7902 68.247 11.11 68.247C10.4298 68.247 9.97632 68.7005 9.97632 69.3807V73.9154C9.97632 74.5956 10.4298 75.0491 11.11 75.0491ZM11.11 84.1184C10.4298 84.1184 9.97632 84.5719 9.97632 85.2521V92.0541C9.97632 92.7343 10.4298 93.1878 11.11 93.1878C11.7902 93.1878 12.2437 92.7343 12.2437 92.0541V85.2521C12.2437 84.5719 11.7902 84.1184 11.11 84.1184ZM33.7834 104.525C33.1032 104.525 32.6498 104.978 32.6498 105.658V123.797C32.6498 124.477 33.1032 124.931 33.7834 124.931C34.4636 124.931 34.9171 124.477 34.9171 123.797V105.658C34.9171 104.978 34.4636 104.525 33.7834 104.525ZM42.8528 104.525C42.1726 104.525 41.7191 104.978 41.7191 105.658V123.797C41.7191 124.477 42.1726 124.931 42.8528 124.931C43.533 124.931 43.9865 124.477 43.9865 123.797V105.658C43.9865 104.978 43.533 104.525 42.8528 104.525ZM65.5262 104.525C64.846 104.525 64.3926 104.978 64.3926 105.658V123.797C64.3926 124.477 64.846 124.931 65.5262 124.931C66.2064 124.931 66.6599 124.477 66.6599 123.797V105.658C66.6599 104.978 66.2064 104.525 65.5262 104.525ZM142.616 68.247C141.936 68.247 141.482 68.7005 141.482 69.3807V73.9154C141.482 74.5956 141.936 75.0491 142.616 75.0491C143.296 75.0491 143.75 74.5956 143.75 73.9154V69.3807C143.75 68.7005 143.296 68.247 142.616 68.247ZM142.616 84.1184C141.936 84.1184 141.482 84.5719 141.482 85.2521V92.0541C141.482 92.7343 141.936 93.1878 142.616 93.1878C143.296 93.1878 143.75 92.7343 143.75 92.0541V85.2521C143.75 84.5719 143.296 84.1184 142.616 84.1184ZM11.11 104.525C10.4298 104.525 9.97632 104.978 9.97632 105.658V123.797C9.97632 124.477 10.4298 124.931 11.11 124.931C11.7902 124.931 12.2437 124.477 12.2437 123.797V105.658C12.2437 104.978 11.7902 104.525 11.11 104.525ZM88.1997 104.525C87.5195 104.525 87.066 104.978 87.066 105.658V123.797C87.066 124.477 87.5195 124.931 88.1997 124.931C88.8799 124.931 89.3333 124.477 89.3333 123.797V105.658C89.3333 104.978 88.8799 104.525 88.1997 104.525ZM110.873 104.525C110.193 104.525 109.739 104.978 109.739 105.658V123.797C109.739 124.477 110.193 124.931 110.873 124.931C111.553 124.931 112.007 124.477 112.007 123.797V105.658C112.007 104.978 111.553 104.525 110.873 104.525ZM119.942 104.525C119.262 104.525 118.809 104.978 118.809 105.658V123.797C118.809 124.477 119.262 124.931 119.942 124.931C120.623 124.931 121.076 124.477 121.076 123.797V105.658C121.076 104.978 120.623 104.525 119.942 104.525ZM142.616 104.525C141.936 104.525 141.482 104.978 141.482 105.658V123.797C141.482 124.477 141.936 124.931 142.616 124.931C143.296 124.931 143.75 124.477 143.75 123.797V105.658C143.75 104.978 143.296 104.525 142.616 104.525ZM88.1997 79.5837C87.5195 79.5837 87.066 80.0372 87.066 80.7174V92.0541C87.066 92.7343 87.5195 93.1878 88.1997 93.1878C88.8799 93.1878 89.3333 92.7343 89.3333 92.0541V80.7174C89.3333 80.0372 88.8799 79.5837 88.1997 79.5837ZM65.5262 79.5837C64.846 79.5837 64.3926 80.0372 64.3926 80.7174V92.0541C64.3926 92.7343 64.846 93.1878 65.5262 93.1878C66.2064 93.1878 66.6599 92.7343 66.6599 92.0541V80.7174C66.6599 80.0372 66.2064 79.5837 65.5262 79.5837ZM42.8528 79.5837C42.1726 79.5837 41.7191 80.0372 41.7191 80.7174V92.0541C41.7191 92.7343 42.1726 93.1878 42.8528 93.1878C43.533 93.1878 43.9865 92.7343 43.9865 92.0541V80.7174C43.9865 80.0372 43.533 79.5837 42.8528 79.5837ZM33.7834 79.5837C33.1032 79.5837 32.6498 80.0372 32.6498 80.7174V92.0541C32.6498 92.7343 33.1032 93.1878 33.7834 93.1878C34.4636 93.1878 34.9171 92.7343 34.9171 92.0541V80.7174C34.9171 80.0372 34.4636 79.5837 33.7834 79.5837ZM142.616 59.1777C143.296 59.1777 143.75 58.7242 143.75 58.044V53.5093C143.75 52.8291 143.296 52.3756 142.616 52.3756C141.936 52.3756 141.482 52.8291 141.482 53.5093V58.044C141.482 58.7242 141.936 59.1777 142.616 59.1777ZM110.873 43.3063C110.193 43.3063 109.739 43.7597 109.739 44.4399V51.242C109.739 51.9222 110.193 52.3756 110.873 52.3756C111.553 52.3756 112.007 51.9222 112.007 51.242V44.4399C112.007 43.7597 111.553 43.3063 110.873 43.3063ZM110.873 61.445C110.193 61.445 109.739 61.8985 109.739 62.5787V69.3807C109.739 70.0609 110.193 70.5144 110.873 70.5144C111.553 70.5144 112.007 70.0609 112.007 69.3807V62.5787C112.007 61.8985 111.553 61.445 110.873 61.445ZM110.873 79.5837C110.193 79.5837 109.739 80.0372 109.739 80.7174V92.0541C109.739 92.7343 110.193 93.1878 110.873 93.1878C111.553 93.1878 112.007 92.7343 112.007 92.0541V80.7174C112.007 80.0372 111.553 79.5837 110.873 79.5837ZM119.942 45.5736C119.262 45.5736 118.809 46.0271 118.809 46.7073V53.5093C118.809 54.1895 119.262 54.643 119.942 54.643C120.623 54.643 121.076 54.1895 121.076 53.5093V46.7073C121.076 46.0271 120.623 45.5736 119.942 45.5736ZM110.873 34.2369C111.553 34.2369 112.007 33.7834 112.007 33.1032V24.0338C112.007 23.3536 111.553 22.9002 110.873 22.9002C110.193 22.9002 109.739 23.3536 109.739 24.0338V33.1032C109.739 33.7834 110.193 34.2369 110.873 34.2369ZM119.942 36.5042C120.623 36.5042 121.076 36.0508 121.076 35.3705V30.8359C121.076 30.1557 120.623 29.7022 119.942 29.7022C119.262 29.7022 118.809 30.1557 118.809 30.8359V35.3705C118.809 36.0508 119.262 36.5042 119.942 36.5042ZM119.942 63.7123C119.262 63.7123 118.809 64.1658 118.809 64.846V69.3807C118.809 70.0609 119.262 70.5144 119.942 70.5144C120.623 70.5144 121.076 70.0609 121.076 69.3807V64.846C121.076 64.1658 120.623 63.7123 119.942 63.7123ZM119.942 79.5837C119.262 79.5837 118.809 80.0372 118.809 80.7174V92.0541C118.809 92.7343 119.262 93.1878 119.942 93.1878C120.623 93.1878 121.076 92.7343 121.076 92.0541V80.7174C121.076 80.0372 120.623 79.5837 119.942 79.5837Z" fill="#4652DD"/>
</svg>
