<svg width="21" height="22" viewBox="0 0 21 22" fill="none" xmlns="http://www.w3.org/2000/svg">
<g id="map-pin" clip-path="url(#clip0_452_118)">
<path id="Vector" d="M17.7667 9.22702C17.7667 15.1492 10.1524 20.2254 10.1524 20.2254C10.1524 20.2254 2.53809 15.1492 2.53809 9.22702C2.53809 7.20758 3.3403 5.27086 4.76826 3.8429C6.19621 2.41495 8.13294 1.61273 10.1524 1.61273C12.1718 1.61273 14.1085 2.41495 15.5365 3.8429C16.9644 5.27086 17.7667 7.20758 17.7667 9.22702Z" stroke="white" stroke-width="1.26905" stroke-linecap="round" stroke-linejoin="round"/>
<path id="Vector_2" d="M10.1525 11.7652C11.5542 11.7652 12.6906 10.6288 12.6906 9.22706C12.6906 7.82531 11.5542 6.68896 10.1525 6.68896C8.75072 6.68896 7.61438 7.82531 7.61438 9.22706C7.61438 10.6288 8.75072 11.7652 10.1525 11.7652Z" stroke="white" stroke-width="1.26905" stroke-linecap="round" stroke-linejoin="round"/>
</g>
<defs>
<clipPath id="clip0_452_118">
<rect width="20.3048" height="20.3048" fill="white" transform="translate(0 0.766724)"/>
</clipPath>
</defs>
</svg>
