<svg width="179" height="139" viewBox="0 0 179 139" fill="none" xmlns="http://www.w3.org/2000/svg">
<path d="M176.63 135.53H169.565V76.2356H173.804C174.369 76.2356 174.934 75.9532 175.217 75.3885L178.043 66.9179C178.326 66.3532 178.043 66.0708 177.76 65.5061C177.478 65.2238 177.195 64.9414 176.63 64.9414H169.565V53.6473H170.978C171.826 53.6473 172.391 53.0826 172.391 52.2355V43.7649C172.391 42.9178 171.826 42.3531 170.978 42.3531H130V32.4707C130 31.6236 129.434 31.0589 128.587 31.0589H127.174V11.2942C127.174 8.75297 125.478 6.49414 122.934 5.92943V1.41177C122.934 0.564708 122.369 0 121.521 0C120.674 0 120.108 0.564708 120.108 1.41177V5.92943C117.565 6.49414 115.869 8.75297 115.869 11.2942V22.5883H62.1737V11.2942C62.1737 8.75297 60.4781 6.49414 57.9346 5.92943V1.41177C57.9346 0.564708 57.3694 0 56.5216 0C55.6737 0 55.1085 0.564708 55.1085 1.41177V5.92943C52.5651 6.49414 50.8694 8.75297 50.8694 11.2942V31.0589H49.4564C48.6085 31.0589 48.0433 31.6236 48.0433 32.4707V42.3531H7.0652C6.21737 42.3531 5.65216 42.9178 5.65216 43.7649V52.2355C5.65216 53.0826 6.21737 53.6473 7.0652 53.6473H8.47824V64.9414H1.41304C0.847824 64.9414 0.565217 65.2238 0.282609 65.5061C1.07385e-06 65.7885 0 66.3532 0 66.9179L2.82608 75.3885C3.10869 75.9532 3.6739 76.2356 4.23912 76.2356H8.47824V135.53H1.41304C0.565216 135.53 0 136.095 0 136.942C0 137.789 0.565216 138.353 1.41304 138.353H176.63C177.478 138.353 178.043 137.789 178.043 136.942C178.043 136.095 177.478 135.53 176.63 135.53ZM172.673 73.412H130V67.765H174.652L172.673 73.412ZM64.9998 33.8825H113.043V50.8237H64.9998V33.8825ZM127.174 33.8825V50.8237H115.869V33.8825H127.174ZM79.1302 53.6473V64.9414H73.478V53.6473H79.1302ZM81.9563 53.6473H87.6084V64.9414H81.9563V53.6473ZM90.4345 53.6473H96.0867V64.9414H90.4345V53.6473ZM98.9127 53.6473H104.565V64.9414H98.9127V53.6473ZM107.391 53.6473H113.043V64.9414H107.391V53.6473ZM115.869 64.9414V53.6473H127.174V64.9414H115.869ZM70.652 53.6473V64.9414H64.9998V53.6473H70.652ZM62.1737 64.9414H50.8694V53.6473H62.1737V64.9414ZM62.1737 67.765V73.412H50.8694V67.765H62.1737ZM115.869 67.765H127.174V73.412H115.869V67.765ZM166.739 64.9414H130V53.6473H166.739V64.9414ZM169.565 45.1766V50.8237H130V45.1766H169.565ZM118.695 31.0589V16.9412H124.347V31.0589H118.695ZM121.521 8.47062C123.217 8.47062 124.347 9.60004 124.347 11.2942V14.1177H118.695V11.2942C118.695 9.60004 119.826 8.47062 121.521 8.47062ZM115.869 25.4119V31.0589H62.1737V25.4119H115.869ZM56.5216 8.47062C58.2172 8.47062 59.3476 9.60004 59.3476 11.2942V14.1177H53.6955V11.2942C53.6955 9.60004 54.8259 8.47062 56.5216 8.47062ZM53.6955 16.9412H59.3476V31.0589H53.6955V16.9412ZM52.2825 33.8825H62.1737V50.8237H50.8694V33.8825H52.2825ZM8.47824 45.1766H48.0433V50.8237H8.47824V45.1766ZM11.3043 53.6473H48.0433V64.9414H11.3043V53.6473ZM3.3913 67.765H48.0433V73.412H5.36955L3.3913 67.765ZM11.3043 76.2356H48.0433V135.53H43.8042V103.342C43.8042 95.718 39.5651 88.9415 32.4999 85.5533C31.6521 84.9885 30.5216 84.9885 29.3912 85.5533C22.6086 88.9415 18.3695 95.718 18.0869 103.342V135.53H11.0217V76.2356H11.3043ZM24.0217 135.53H21.1956V104.471H40.9781V135.53H38.1521V117.177C38.1521 109.836 31.9347 107.577 31.6521 107.295H30.8043C30.5216 107.295 24.0217 109.836 24.0217 117.177V135.53ZM21.1956 101.647C21.7608 95.718 25.1521 90.3533 30.8043 87.5297H31.3695C36.739 90.3533 40.4129 95.4357 40.9781 101.647H21.1956ZM26.8477 135.53V117.177C26.8477 112.942 29.9564 110.965 31.0869 110.118C32.4999 110.965 35.326 112.942 35.326 117.177V135.53H26.8477ZM50.8694 135.53V76.2356H62.1737V135.53H50.8694ZM70.652 135.53V104.753C70.652 96.2827 74.8911 88.3768 82.2389 83.8591L89.0215 79.3415L95.8041 83.5768C103.152 88.0944 107.391 96.0004 107.391 104.753V135.812H70.652V135.53ZM97.2171 81.3179L89.5867 76.5179C89.0215 76.2356 88.4563 76.2356 88.1736 76.5179L80.5432 81.3179C72.6302 86.4003 67.8259 95.1533 67.8259 104.753V135.53H64.9998V67.765H113.043V135.53H110.217V104.471C110.217 95.1533 105.413 86.4003 97.2171 81.3179ZM115.869 135.53V76.2356H127.174V135.53H115.869ZM137.065 104.471H156.847V135.53H154.021V117.177C154.021 109.836 147.804 107.577 147.521 107.295H146.673C146.391 107.295 139.891 109.836 139.891 117.177V135.53H137.065V104.471ZM137.065 101.647C137.63 95.718 141.021 90.3533 146.673 87.5297H147.239C152.608 90.3533 156.282 95.4357 156.847 101.647H137.065ZM142.717 135.53V117.177C142.717 112.942 145.826 110.965 146.956 110.118C148.369 110.965 151.195 112.942 151.195 117.177V135.53H142.717ZM159.673 135.53V103.342C159.673 95.718 155.434 88.9415 148.369 85.2709C147.521 84.7062 146.391 84.7062 145.26 85.2709C138.478 88.6592 133.956 95.718 133.956 103.342V135.53H129.717V76.2356H166.456V135.53H159.673Z" fill="#4652DD"/>
</svg>
