<svg width="182" height="138" viewBox="0 0 182 138" fill="none" xmlns="http://www.w3.org/2000/svg">
<path d="M7.09029 136.893V124.676M7.09029 136.893H73.264M7.09029 136.893H2M175.07 136.893V124.676M175.07 136.893H109.914M175.07 136.893H180.16M7.09029 124.676H73.264M7.09029 124.676V112.714M109.914 124.676H175.07M175.07 124.676V112.714M175.07 112.714V100.751H162.853M175.07 112.714L109.914 112.968H73.264L7.09029 112.714M7.09029 112.714V100.751H19.307M73.264 100.751V136.893M73.264 100.751H109.914M73.264 100.751H19.307M73.264 136.893H85.9897M109.914 100.751V136.893M109.914 100.751H162.853M109.914 136.893H97.1883M85.9897 136.893V124.676C85.9897 121.113 89.5529 119.077 91.589 119.077C93.6251 119.077 97.1883 121.113 97.1883 124.676V136.893M85.9897 136.893H97.1883M14.7257 105.333V108.387M23.3792 105.333V108.387M32.0327 105.333V108.387M40.6862 105.333V108.387M49.3397 105.333V108.387M57.9931 105.333V108.387M66.6466 105.333V108.387M14.7257 129.766V132.82M23.3792 129.766V132.82M32.0327 129.766V132.82M40.6862 129.766V132.82M49.3397 129.766V132.82M57.9931 129.766V132.82M66.6466 129.766V132.82M116.022 129.766V132.82M124.676 129.766V132.82M133.329 129.766V132.82M141.983 129.766V132.82M150.636 129.766V132.82M159.29 129.766V132.82M167.943 129.766V132.82M116.022 105.333V108.387M124.676 105.333V108.387M133.329 105.333V108.387M141.983 105.333V108.387M150.636 105.333V108.387M159.29 105.333V108.387M167.943 105.333V108.387M19.307 100.751C21.4879 66.2931 39.3668 40.4312 73.264 31.4929M162.853 100.751C159.29 53.4119 128.748 29.9966 91.589 28.9785C84.4626 28.7833 78.9251 30.0001 73.264 31.4929M73.264 31.4929V22.8702M73.264 22.8702H68.6827V17.2709H112.968V22.8702H108.896M73.264 22.8702H108.896M108.896 22.8702V29.9966M87.5168 11.1625H95.6613M88.6803 6.58126H94.4978M89.8438 2H93.3343M86.4987 75.3001C86.3775 74.1496 86.3344 73.4975 86.4987 72.2459C86.7867 70.7013 87.4456 70.0258 89.5529 69.1917C90.9308 68.8586 91.5389 68.9675 92.6071 69.1917C94.3501 69.6289 95.0509 70.2924 95.6613 72.2459C95.8403 73.4381 95.8415 74.1068 95.6613 75.3001C95.6613 75.3001 95.1283 78.1701 92.6071 78.3542C90.0858 78.5383 89.5787 78.4636 89.5529 78.3542C87.7777 77.7859 86.9028 77.3386 86.4987 75.3001Z" stroke="#4652DD" stroke-width="2.03611" stroke-linecap="round"/>
<path d="M108.387 77.8453V87.0078M108.387 100.243V87.0078M73.773 77.8453V87.0078M73.773 100.243V87.0078M68.6828 87.0078H73.773M73.773 87.0078L76.3182 85.4807H77.8453L78.8633 84.4627H80.3904L81.4085 83.4446H82.9356L83.9536 82.4265H97.1884L98.2064 83.4446H99.7335L100.752 84.4627H102.279L103.806 85.4807H105.842L108.387 87.0078M108.387 87.0078H112.968M68.6828 94.1342H73.773L76.3182 92.6071H77.8453L78.8633 91.5891H80.3904L81.4085 90.571M82.9356 90.571L83.9536 89.5529H97.1884L98.2064 90.571M112.968 94.1342H108.387L105.842 92.6071H103.806L102.279 91.5891H100.752L99.7335 90.571M43.2313 47.3036H139.438M56.9751 37.632H125.694" stroke="#4652DD" stroke-width="2.03611" stroke-linecap="round"/>
<path d="M90.96 74.0623V73.9326" stroke="#4652DD" stroke-width="3.05417" stroke-linecap="round"/>
</svg>
