<svg width="178" height="130" viewBox="0 0 178 130" fill="none" xmlns="http://www.w3.org/2000/svg">
<path d="M61.41 0C61.2449 5.54174e-06 61.083 0.0459611 60.9424 0.132724C60.8019 0.219487 60.6883 0.343636 60.6143 0.491282L57.2982 7.12H54.29C54.1249 7.12001 53.963 7.16596 53.8224 7.25273C53.6819 7.33949 53.5683 7.46364 53.4943 7.61128L48.1543 18.2913C48.1508 18.2984 48.1543 18.3091 48.1508 18.3162C48.0931 18.4319 48.062 18.559 48.06 18.6882V22.2482C48.06 22.4843 48.1538 22.7106 48.3207 22.8776C48.4876 23.0445 48.714 23.1382 48.95 23.1382H51.62V36.5737L41.919 35.6036C41.9083 35.6036 41.8959 35.6089 41.8834 35.6071C41.8656 35.6071 41.8478 35.5982 41.83 35.5982H24.03C24.0122 35.5982 23.9944 35.6071 23.9766 35.6071L23.941 35.6036L6.141 37.3836C5.92116 37.4044 5.71708 37.5068 5.56886 37.6705C5.42065 37.8342 5.33901 38.0474 5.34 38.2682V128.196H1.32788C0.53044 128.196 0 128.552 0 129.086C0 129.62 0.53044 129.976 1.32788 129.976H176.672C177.47 129.976 178 129.62 178 129.086C178 128.552 177.47 128.196 176.672 128.196H174.44V38.2682C174.441 38.0474 174.359 37.8342 174.211 37.6705C174.063 37.5068 173.859 37.4044 173.639 37.3836L155.839 35.6036C155.828 35.6036 155.816 35.6089 155.803 35.6071C155.786 35.6071 155.768 35.5982 155.75 35.5982H137.95C137.932 35.5982 137.914 35.6071 137.897 35.6071L137.861 35.6036L128.16 36.5737V23.14H130.83C131.066 23.14 131.292 23.0462 131.459 22.8793C131.626 22.7124 131.72 22.486 131.72 22.25V18.69C131.72 18.6775 131.713 18.6686 131.713 18.658C131.713 18.6081 131.695 18.5618 131.684 18.512C131.672 18.4461 131.661 18.3803 131.633 18.3198C131.629 18.3109 131.631 18.302 131.626 18.2931L126.286 7.61306C126.212 7.46534 126.098 7.34106 125.958 7.25401C125.817 7.16697 125.655 7.12058 125.49 7.12H122.48L119.166 0.493061C119.092 0.345415 118.978 0.221266 118.838 0.134503C118.697 0.0477402 118.535 0.00178796 118.37 0.00178242H61.41V0ZM61.96 1.77822H117.818L120.565 7.26952C120.398 7.36856 120.268 7.52034 120.197 7.70097C120.125 7.8816 120.116 8.08084 120.17 8.26735C120.225 8.45386 120.339 8.61705 120.496 8.73125C120.653 8.84546 120.844 8.90419 121.038 8.89822H121.378L122.268 10.6782H57.5118L61.9618 1.77822H61.96ZM123.37 8.89822H124.94L129.39 17.7982H121.04V16.0182H123.71C123.946 16.0182 124.172 15.9245 124.339 15.7575C124.506 15.5906 124.6 15.3643 124.6 15.1282V11.5682C124.599 11.4385 124.568 11.3108 124.511 11.1944C124.506 11.1873 124.511 11.1784 124.506 11.1713L123.37 8.89822ZM54.84 8.9H56.41L55.2743 11.1713C55.2708 11.1784 55.2743 11.1891 55.2708 11.1962C55.2131 11.3119 55.182 11.439 55.18 11.5682V15.1282C55.18 15.3643 55.2738 15.5906 55.4407 15.7575C55.6076 15.9245 55.834 16.0182 56.07 16.0182H58.74V17.7982H50.39L54.84 8.9ZM56.96 12.46H122.82V14.24H56.96V12.46ZM60.52 16.02H67.64V23.4034C67.0652 23.2184 66.4638 23.1294 65.86 23.14C63.8967 23.14 62.3 24.4376 62.3 26.0325V26.7C62.064 26.7 61.8376 26.7938 61.6707 26.9607C61.5038 27.1276 61.41 27.354 61.41 27.59C61.41 27.826 61.5038 28.0524 61.6707 28.2193C61.8376 28.3862 62.064 28.48 62.3 28.48V37.38H60.52V16.02ZM69.42 16.02H110.36V26.7C110.124 26.7 109.898 26.7938 109.731 26.9607C109.564 27.1276 109.47 27.354 109.47 27.59C109.47 27.826 109.564 28.0524 109.731 28.2193C109.898 28.3862 110.124 28.48 110.36 28.48V37.38H108.58L108.587 21.36C108.587 19.3967 106.59 17.8 104.134 17.8C102.674 17.8 101.385 18.3714 100.574 19.2418C99.7601 18.3714 98.4732 17.8 97.0136 17.8C95.554 17.8 94.2652 18.3714 93.4536 19.2418C92.6401 18.3714 91.3532 17.8 89.8936 17.8C88.434 17.8 87.1452 18.3714 86.3336 19.2418C85.5201 18.3714 84.2332 17.8 82.7736 17.8C81.314 17.8 80.0252 18.3714 79.2136 19.2418C78.4001 18.3714 77.1132 17.8 75.6536 17.8C73.1989 17.8 71.2 19.3967 71.2 21.36V23.14C70.964 23.14 70.7376 23.2338 70.5707 23.4007C70.4038 23.5676 70.31 23.794 70.31 24.03C70.31 24.266 70.4038 24.4924 70.5707 24.6593C70.7376 24.8262 70.964 24.92 71.2 24.92V37.38H69.42V16.02ZM112.14 16.02H119.26V37.38H117.48V26.7C117.48 26.5852 117.458 26.4715 117.414 26.3654C117.457 26.2597 117.48 26.1467 117.48 26.0325C117.48 24.4394 115.883 23.14 113.92 23.14C113.304 23.1403 112.696 23.2777 112.14 23.5423V16.02ZM49.84 19.58H58.74V21.36H49.84V19.58ZM75.6536 19.58C77.0651 19.58 78.3022 20.3988 78.3236 21.3351L78.32 21.36V23.14C78.084 23.14 77.8576 23.2338 77.6907 23.4007C77.5238 23.5676 77.43 23.794 77.43 24.03C77.43 24.266 77.5238 24.4924 77.6907 24.6593C77.8576 24.8262 78.084 24.92 78.32 24.92V33.82H72.98V24.92C73.216 24.92 73.4424 24.8262 73.6093 24.6593C73.7762 24.4924 73.87 24.266 73.87 24.03C73.87 23.794 73.7762 23.5676 73.6093 23.4007C73.4424 23.2338 73.216 23.14 72.98 23.14V21.36C72.98 20.413 74.2296 19.58 75.6536 19.58ZM82.7736 19.58C84.1851 19.58 85.4222 20.3988 85.4436 21.3351L85.44 21.36V23.14C85.204 23.14 84.9776 23.2338 84.8107 23.4007C84.6438 23.5676 84.55 23.794 84.55 24.03C84.55 24.266 84.6438 24.4924 84.8107 24.6593C84.9776 24.8262 85.204 24.92 85.44 24.92V33.82H80.1036L80.1071 24.92C80.3432 24.92 80.5695 24.8262 80.7364 24.6593C80.9034 24.4924 80.9971 24.266 80.9971 24.03C80.9971 23.794 80.9034 23.5676 80.7364 23.4007C80.5695 23.2338 80.3432 23.14 80.1071 23.14V21.36L80.1036 21.3351C80.1249 20.3988 81.362 19.58 82.7736 19.58ZM89.8936 19.58C91.3051 19.58 92.5422 20.3988 92.5636 21.3351L92.56 21.36V23.14C92.324 23.14 92.0976 23.2338 91.9307 23.4007C91.7638 23.5676 91.67 23.794 91.67 24.03C91.67 24.266 91.7638 24.4924 91.9307 24.6593C92.0976 24.8262 92.324 24.92 92.56 24.92V33.82H87.2236L87.2271 24.92C87.4632 24.92 87.6895 24.8262 87.8564 24.6593C88.0233 24.4924 88.1171 24.266 88.1171 24.03C88.1171 23.794 88.0233 23.5676 87.8564 23.4007C87.6895 23.2338 87.4632 23.14 87.2271 23.14V21.36L87.2236 21.3351C87.2449 20.3988 88.482 19.58 89.8936 19.58ZM97.0136 19.58C98.4251 19.58 99.6622 20.3988 99.6836 21.3351L99.68 21.36V23.14C99.444 23.14 99.2176 23.2338 99.0507 23.4007C98.8838 23.5676 98.79 23.794 98.79 24.03C98.79 24.266 98.8838 24.4924 99.0507 24.6593C99.2176 24.8262 99.444 24.92 99.68 24.92V33.82H94.3436L94.3471 24.92C94.5832 24.92 94.8095 24.8262 94.9764 24.6593C95.1433 24.4924 95.2371 24.266 95.2371 24.03C95.2371 23.794 95.1433 23.5676 94.9764 23.4007C94.8095 23.2338 94.5832 23.14 94.3471 23.14V21.36L94.3436 21.3351C94.3649 20.3988 95.602 19.58 97.0136 19.58ZM104.134 19.58C105.558 19.58 106.807 20.4148 106.807 21.36V23.1525C106.69 23.1499 106.573 23.1711 106.464 23.2149C106.355 23.2586 106.256 23.324 106.173 23.407C106.089 23.4869 106.022 23.5836 105.976 23.6908C105.931 23.7981 105.908 23.9136 105.91 24.03C105.91 24.2614 105.995 24.4928 106.173 24.653C106.335 24.831 106.569 24.92 106.8 24.92H106.807L106.804 33.82H101.464L101.467 24.92C101.703 24.92 101.93 24.8262 102.096 24.6593C102.263 24.4924 102.357 24.266 102.357 24.03C102.357 23.794 102.263 23.5676 102.096 23.4007C101.93 23.2338 101.703 23.14 101.467 23.14V21.36L101.464 21.3351C101.485 20.3988 102.722 19.58 104.134 19.58ZM121.04 19.58H129.94V21.36H121.04V19.58ZM53.4 23.14H58.74V37.2892L53.4 36.7534V23.14ZM121.04 23.14H126.38V36.7534L121.04 37.2874V23.14ZM65.86 24.92C66.7162 24.92 67.64 25.1354 67.64 25.6142V26.7356C67.5248 26.7292 67.4095 26.7467 67.3013 26.7868C67.1931 26.827 67.0944 26.889 67.0112 26.969C66.928 27.049 66.8622 27.1452 66.8179 27.2518C66.7736 27.3583 66.7517 27.4728 66.7536 27.5882C66.7536 27.8196 66.839 28.051 67.017 28.2112C67.0882 28.2967 67.195 28.3714 67.3018 28.407C67.4086 28.4604 67.5154 28.4782 67.64 28.4782V33.8182H64.08V28.4782C64.316 28.4782 64.5424 28.3845 64.7093 28.2176C64.8762 28.0506 64.97 27.8243 64.97 27.5882C64.97 27.3522 64.8762 27.1258 64.7093 26.9589C64.5424 26.792 64.316 26.6982 64.08 26.6982V26.0307C64.08 25.5056 64.8418 24.92 65.86 24.92ZM113.92 24.92C114.938 24.92 115.7 25.5074 115.7 26.0325C115.7 26.15 115.723 26.2621 115.766 26.3654C115.722 26.4715 115.7 26.5852 115.7 26.7V26.7356C115.586 26.7288 115.472 26.7457 115.364 26.7852C115.257 26.8247 115.159 26.886 115.077 26.9652C114.992 27.0451 114.925 27.1418 114.88 27.249C114.834 27.3563 114.812 27.4718 114.814 27.5882C114.814 27.8196 114.899 28.051 115.077 28.2112C115.148 28.2967 115.255 28.3714 115.362 28.407C115.469 28.4604 115.575 28.4782 115.7 28.4782V33.8182H112.14V28.4782C112.376 28.4782 112.602 28.3845 112.769 28.2176C112.936 28.0506 113.03 27.8243 113.03 27.5882C113.03 27.3522 112.936 27.1258 112.769 26.9589C112.602 26.792 112.376 26.6982 112.14 26.6982V26.0307C112.14 25.5056 112.902 24.92 113.92 24.92ZM64.08 35.6H67.64V37.38H64.08V35.6ZM72.98 35.6H78.32V37.38H72.98V35.6ZM80.1 35.6H85.44V37.38H80.1V35.6ZM87.22 35.6H92.56V37.38H87.22V35.6ZM94.34 35.6H99.68V37.38H94.34V35.6ZM101.46 35.6H106.8V37.38H101.46V35.6ZM112.14 35.6H115.7V37.38H112.14V35.6ZM24.92 37.38H40.94V40.94H24.92V37.38ZM138.84 37.38H154.86V40.94H138.84V37.38ZM23.14 37.4726V40.94H7.12V39.0763L23.14 37.4726ZM42.72 37.4726L58.74 39.0746V40.94H42.72V37.469V37.4726ZM137.06 37.4726V40.94H121.04V39.0763L137.06 37.4726ZM156.64 37.4726L172.66 39.0746V40.94H156.64V37.469V37.4726ZM60.52 39.16H65.86V40.94H60.52V39.16ZM67.64 39.16H112.14V42.72H67.64V39.16ZM113.92 39.16H119.26V40.94H113.92V39.16ZM7.12 42.72H23.14V58.74H7.12V42.72ZM24.92 42.72H40.94V58.74H24.92V42.72ZM42.72 42.72H58.74V58.74H42.72V42.72ZM60.52 42.72H65.86V43.61C65.86 43.8461 65.9538 44.0724 66.1207 44.2393C66.2876 44.4062 66.514 44.5 66.75 44.5H67.64V58.7756H60.52V42.72ZM113.92 42.72H119.26V58.7756H112.14V44.4982H113.03C113.266 44.4982 113.492 44.4045 113.659 44.2376C113.826 44.0706 113.92 43.8443 113.92 43.6082V42.72ZM121.04 42.72H137.06V58.74H121.04V42.72ZM138.84 42.72H154.86V58.74H138.84V42.72ZM156.64 42.72H172.66V58.74H156.64V42.72ZM69.42 44.5H110.36V48.06H69.42V44.5ZM15.13 46.28C13.6579 46.28 12.46 47.4779 12.46 48.95V54.29C12.46 54.5261 12.5538 54.7524 12.7207 54.9193C12.8876 55.0862 13.114 55.18 13.35 55.18H16.91C17.146 55.18 17.3724 55.0862 17.5393 54.9193C17.7062 54.7524 17.8 54.5261 17.8 54.29V48.95C17.8 47.4779 16.6021 46.28 15.13 46.28ZM32.93 46.28C31.4579 46.28 30.26 47.4779 30.26 48.95V54.29C30.26 54.5261 30.3538 54.7524 30.5207 54.9193C30.6876 55.0862 30.914 55.18 31.15 55.18H34.71C34.946 55.18 35.1724 55.0862 35.3393 54.9193C35.5062 54.7524 35.6 54.5261 35.6 54.29V48.95C35.6 47.4779 34.4021 46.28 32.93 46.28ZM50.73 46.28C49.2579 46.28 48.06 47.4779 48.06 48.95V54.29C48.06 54.5261 48.1538 54.7524 48.3207 54.9193C48.4876 55.0862 48.714 55.18 48.95 55.18H52.51C52.746 55.18 52.9724 55.0862 53.1393 54.9193C53.3062 54.7524 53.4 54.5261 53.4 54.29V48.95C53.4 47.4779 52.2021 46.28 50.73 46.28ZM129.05 46.28C127.578 46.28 126.38 47.4779 126.38 48.95V54.29C126.38 54.5261 126.474 54.7524 126.641 54.9193C126.808 55.0862 127.034 55.18 127.27 55.18H130.83C131.066 55.18 131.292 55.0862 131.459 54.9193C131.626 54.7524 131.72 54.5261 131.72 54.29V48.95C131.72 47.4779 130.522 46.28 129.05 46.28ZM146.85 46.28C145.378 46.28 144.18 47.4779 144.18 48.95V54.29C144.18 54.5261 144.274 54.7524 144.441 54.9193C144.608 55.0862 144.834 55.18 145.07 55.18H148.63C148.866 55.18 149.092 55.0862 149.259 54.9193C149.426 54.7524 149.52 54.5261 149.52 54.29V48.95C149.52 47.4779 148.322 46.28 146.85 46.28ZM164.65 46.28C163.178 46.28 161.98 47.4779 161.98 48.95V54.29C161.98 54.5261 162.074 54.7524 162.241 54.9193C162.408 55.0862 162.634 55.18 162.87 55.18H166.43C166.666 55.18 166.892 55.0862 167.059 54.9193C167.226 54.7524 167.32 54.5261 167.32 54.29V48.95C167.32 47.4779 166.122 46.28 164.65 46.28ZM9.79 46.3156C9.55396 46.3156 9.32758 46.4094 9.16068 46.5763C8.99377 46.7432 8.9 46.9696 8.9 47.2056V54.3256C8.9 54.5617 8.99377 54.788 9.16068 54.9549C9.32758 55.1218 9.55396 55.2156 9.79 55.2156C10.026 55.2156 10.2524 55.1218 10.4193 54.9549C10.5862 54.788 10.68 54.5617 10.68 54.3256V47.2056C10.68 46.9696 10.5862 46.7432 10.4193 46.5763C10.2524 46.4094 10.026 46.3156 9.79 46.3156ZM20.47 46.3156C20.234 46.3156 20.0076 46.4094 19.8407 46.5763C19.6738 46.7432 19.58 46.9696 19.58 47.2056V54.3256C19.58 54.5617 19.6738 54.788 19.8407 54.9549C20.0076 55.1218 20.234 55.2156 20.47 55.2156C20.706 55.2156 20.9324 55.1218 21.0993 54.9549C21.2662 54.788 21.36 54.5617 21.36 54.3256V47.2056C21.36 46.9696 21.2662 46.7432 21.0993 46.5763C20.9324 46.4094 20.706 46.3156 20.47 46.3156ZM27.59 46.3156C27.354 46.3156 27.1276 46.4094 26.9607 46.5763C26.7938 46.7432 26.7 46.9696 26.7 47.2056V54.3256C26.7 54.5617 26.7938 54.788 26.9607 54.9549C27.1276 55.1218 27.354 55.2156 27.59 55.2156C27.826 55.2156 28.0524 55.1218 28.2193 54.9549C28.3862 54.788 28.48 54.5617 28.48 54.3256V47.2056C28.48 46.9696 28.3862 46.7432 28.2193 46.5763C28.0524 46.4094 27.826 46.3156 27.59 46.3156ZM38.27 46.3156C38.034 46.3156 37.8076 46.4094 37.6407 46.5763C37.4738 46.7432 37.38 46.9696 37.38 47.2056V54.3256C37.38 54.5617 37.4738 54.788 37.6407 54.9549C37.8076 55.1218 38.034 55.2156 38.27 55.2156C38.506 55.2156 38.7324 55.1218 38.8993 54.9549C39.0662 54.788 39.16 54.5617 39.16 54.3256V47.2056C39.16 46.9696 39.0662 46.7432 38.8993 46.5763C38.7324 46.4094 38.506 46.3156 38.27 46.3156ZM45.39 46.3156C45.154 46.3156 44.9276 46.4094 44.7607 46.5763C44.5938 46.7432 44.5 46.9696 44.5 47.2056V54.3256C44.5 54.5617 44.5938 54.788 44.7607 54.9549C44.9276 55.1218 45.154 55.2156 45.39 55.2156C45.626 55.2156 45.8524 55.1218 46.0193 54.9549C46.1862 54.788 46.28 54.5617 46.28 54.3256V47.2056C46.28 46.9696 46.1862 46.7432 46.0193 46.5763C45.8524 46.4094 45.626 46.3156 45.39 46.3156ZM56.07 46.3156C55.834 46.3156 55.6076 46.4094 55.4407 46.5763C55.2738 46.7432 55.18 46.9696 55.18 47.2056V54.3256C55.18 54.5617 55.2738 54.788 55.4407 54.9549C55.6076 55.1218 55.834 55.2156 56.07 55.2156C56.306 55.2156 56.5324 55.1218 56.6993 54.9549C56.8662 54.788 56.96 54.5617 56.96 54.3256V47.2056C56.96 46.9696 56.8662 46.7432 56.6993 46.5763C56.5324 46.4094 56.306 46.3156 56.07 46.3156ZM123.71 46.3156C123.474 46.3156 123.248 46.4094 123.081 46.5763C122.914 46.7432 122.82 46.9696 122.82 47.2056V54.3256C122.82 54.5617 122.914 54.788 123.081 54.9549C123.248 55.1218 123.474 55.2156 123.71 55.2156C123.946 55.2156 124.172 55.1218 124.339 54.9549C124.506 54.788 124.6 54.5617 124.6 54.3256V47.2056C124.6 46.9696 124.506 46.7432 124.339 46.5763C124.172 46.4094 123.946 46.3156 123.71 46.3156ZM134.39 46.3156C134.154 46.3156 133.928 46.4094 133.761 46.5763C133.594 46.7432 133.5 46.9696 133.5 47.2056V54.3256C133.5 54.5617 133.594 54.788 133.761 54.9549C133.928 55.1218 134.154 55.2156 134.39 55.2156C134.626 55.2156 134.852 55.1218 135.019 54.9549C135.186 54.788 135.28 54.5617 135.28 54.3256V47.2056C135.28 46.9696 135.186 46.7432 135.019 46.5763C134.852 46.4094 134.626 46.3156 134.39 46.3156ZM141.51 46.3156C141.274 46.3156 141.048 46.4094 140.881 46.5763C140.714 46.7432 140.62 46.9696 140.62 47.2056V54.3256C140.62 54.5617 140.714 54.788 140.881 54.9549C141.048 55.1218 141.274 55.2156 141.51 55.2156C141.746 55.2156 141.972 55.1218 142.139 54.9549C142.306 54.788 142.4 54.5617 142.4 54.3256V47.2056C142.4 46.9696 142.306 46.7432 142.139 46.5763C141.972 46.4094 141.746 46.3156 141.51 46.3156ZM152.19 46.3156C151.954 46.3156 151.728 46.4094 151.561 46.5763C151.394 46.7432 151.3 46.9696 151.3 47.2056V54.3256C151.3 54.5617 151.394 54.788 151.561 54.9549C151.728 55.1218 151.954 55.2156 152.19 55.2156C152.426 55.2156 152.652 55.1218 152.819 54.9549C152.986 54.788 153.08 54.5617 153.08 54.3256V47.2056C153.08 46.9696 152.986 46.7432 152.819 46.5763C152.652 46.4094 152.426 46.3156 152.19 46.3156ZM159.31 46.3156C159.074 46.3156 158.848 46.4094 158.681 46.5763C158.514 46.7432 158.42 46.9696 158.42 47.2056V54.3256C158.42 54.5617 158.514 54.788 158.681 54.9549C158.848 55.1218 159.074 55.2156 159.31 55.2156C159.546 55.2156 159.772 55.1218 159.939 54.9549C160.106 54.788 160.2 54.5617 160.2 54.3256V47.2056C160.2 46.9696 160.106 46.7432 159.939 46.5763C159.772 46.4094 159.546 46.3156 159.31 46.3156ZM169.99 46.3156C169.754 46.3156 169.528 46.4094 169.361 46.5763C169.194 46.7432 169.1 46.9696 169.1 47.2056V54.3256C169.1 54.5617 169.194 54.788 169.361 54.9549C169.528 55.1218 169.754 55.2156 169.99 55.2156C170.226 55.2156 170.452 55.1218 170.619 54.9549C170.786 54.788 170.88 54.5617 170.88 54.3256V47.2056C170.88 46.9696 170.786 46.7432 170.619 46.5763C170.452 46.4094 170.226 46.3156 169.99 46.3156ZM15.13 48.0582C15.6195 48.0582 16.02 48.4587 16.02 48.9482V53.3982H14.24V48.9482C14.24 48.4587 14.6405 48.0582 15.13 48.0582ZM32.93 48.0582C33.4195 48.0582 33.82 48.4587 33.82 48.9482V53.3982H32.04V48.9482C32.04 48.4587 32.4405 48.0582 32.93 48.0582ZM50.73 48.0582C51.2195 48.0582 51.62 48.4587 51.62 48.9482V53.3982H49.84V48.9482C49.84 48.4587 50.2405 48.0582 50.73 48.0582ZM129.05 48.0582C129.54 48.0582 129.94 48.4587 129.94 48.9482V53.3982H128.16V48.9482C128.16 48.4587 128.561 48.0582 129.05 48.0582ZM146.85 48.0582C147.339 48.0582 147.74 48.4587 147.74 48.9482V53.3982H145.96V48.9482C145.96 48.4587 146.361 48.0582 146.85 48.0582ZM164.65 48.0582C165.139 48.0582 165.54 48.4587 165.54 48.9482V53.3982H163.76V48.9482C163.76 48.4587 164.16 48.0582 164.65 48.0582ZM69.42 49.8382H110.36V52.5314C109.594 51.9425 108.656 51.6216 107.69 51.6182C106.997 51.6199 106.313 51.7843 105.695 52.0981C105.077 52.4118 104.541 52.8663 104.13 53.4249C103.719 52.8663 103.183 52.4118 102.565 52.0981C101.947 51.7843 101.263 51.6199 100.57 51.6182C99.8766 51.6199 99.1934 51.7843 98.5751 52.0981C97.9568 52.4118 97.4207 52.8663 97.01 53.4249C96.5993 52.8663 96.0632 52.4118 95.4449 52.0981C94.8266 51.7843 94.1434 51.6199 93.45 51.6182C92.7566 51.6199 92.0734 51.7843 91.4551 52.0981C90.8368 52.4118 90.3007 52.8663 89.89 53.4249C89.4793 52.8663 88.9432 52.4118 88.3249 52.0981C87.7066 51.7843 87.0234 51.6199 86.33 51.6182C85.6366 51.6199 84.9534 51.7843 84.3351 52.0981C83.7168 52.4118 83.1807 52.8663 82.77 53.4249C82.3593 52.8663 81.8232 52.4118 81.2049 52.0981C80.5866 51.7843 79.9034 51.6199 79.21 51.6182C78.5166 51.6199 77.8334 51.7843 77.2151 52.0981C76.5968 52.4118 76.0607 52.8663 75.65 53.4249C75.2393 52.8663 74.7032 52.4118 74.0849 52.0981C73.4666 51.7843 72.7834 51.6199 72.09 51.6182C71.0843 51.6182 70.1676 51.9671 69.42 52.5314V49.8382ZM72.09 53.3982C73.5621 53.3982 74.76 54.5962 74.76 56.0682V58.4428C74.76 58.5478 74.7849 58.6439 74.8187 58.7382H69.42V56.0682C69.42 54.5962 70.6179 53.3982 72.09 53.3982ZM79.21 53.3982C80.6821 53.3982 81.88 54.5962 81.88 56.0682V58.4428C81.88 58.5478 81.9049 58.6439 81.9387 58.7382H76.4813C76.518 58.6439 76.5379 58.5439 76.54 58.4428V56.0682C76.54 54.5962 77.7379 53.3982 79.21 53.3982ZM86.33 53.3982C87.8021 53.3982 89 54.5962 89 56.0682V58.4428C89 58.5478 89.0249 58.6439 89.0587 58.7382H83.6013C83.638 58.6439 83.6579 58.5439 83.66 58.4428V56.0682C83.66 54.5962 84.8579 53.3982 86.33 53.3982ZM93.45 53.3982C94.9221 53.3982 96.12 54.5962 96.12 56.0682V58.4428C96.12 58.5478 96.1449 58.6439 96.1787 58.7382H90.7213C90.758 58.6439 90.7779 58.5439 90.78 58.4428V56.0682C90.78 54.5962 91.9779 53.3982 93.45 53.3982ZM100.57 53.3982C102.042 53.3982 103.24 54.5962 103.24 56.0682V58.4428C103.24 58.5478 103.265 58.6439 103.299 58.7382H97.8413C97.878 58.6439 97.8979 58.5439 97.9 58.4428V56.0682C97.9 54.5962 99.0979 53.3982 100.57 53.3982ZM107.69 53.3982C109.162 53.3982 110.36 54.5962 110.36 56.0682V58.7382H104.961C104.998 58.6439 105.018 58.5439 105.02 58.4428V56.0682C105.02 54.5962 106.218 53.3982 107.69 53.3982ZM7.12 60.5182H23.14V62.2982H7.12V60.5182ZM24.92 60.5182H40.94V62.2982H24.92V60.5182ZM42.72 60.5182H58.74V62.2982H42.72V60.5182ZM69.42 60.5182H110.36V62.2982H69.42V60.5182ZM121.04 60.5182H137.06V62.2982H121.04V60.5182ZM138.84 60.5182H154.86V62.2982H138.84V60.5182ZM156.64 60.5182H172.66V62.2982H156.64V60.5182ZM60.52 60.5556H67.64V62.2982H60.52V60.5556ZM112.14 60.5556H119.26V62.2982H112.14V60.5556ZM7.12 64.0782H23.14V128.158H7.12V64.0782ZM24.92 64.0782H40.94V128.158H24.92V64.0782ZM42.72 64.0782H58.74V128.158H42.72V64.0782ZM60.52 64.0782H67.64V128.158H60.52V64.0782ZM69.42 64.0782H110.36V128.158H106.8V101.594C106.794 98.9602 106.104 96.3735 104.797 94.0874C103.491 91.8012 101.612 89.8941 99.3454 88.5532L91.2357 83.7828C91.0945 83.6994 90.9331 83.6565 90.7691 83.6591C90.6051 83.6616 90.4451 83.7093 90.3065 83.7971L81.8284 89.1371C79.6585 90.493 77.8706 92.3802 76.6337 94.6201C75.3968 96.86 74.7519 99.3784 74.76 101.937V128.156H69.42V64.0782ZM112.14 64.0782H119.26V128.158H112.14V64.0782ZM121.04 64.0782H137.06V128.158H121.04V64.0782ZM138.84 64.0782H154.86V128.158H138.84V64.0782ZM156.64 64.0782H172.66V128.158H156.64V64.0782ZM9.79 67.6756C9.55396 67.6756 9.32758 67.7694 9.16068 67.9363C8.99377 68.1032 8.9 68.3296 8.9 68.5656V79.2456C8.9 79.4817 8.99377 79.708 9.16068 79.8749C9.32758 80.0418 9.55396 80.1356 9.79 80.1356C10.026 80.1356 10.2524 80.0418 10.4193 79.8749C10.5862 79.708 10.68 79.4817 10.68 79.2456V68.5656C10.68 68.3296 10.5862 68.1032 10.4193 67.9363C10.2524 67.7694 10.026 67.6756 9.79 67.6756ZM15.13 67.6756C14.894 67.6756 14.6676 67.7694 14.5007 67.9363C14.3338 68.1032 14.24 68.3296 14.24 68.5656V79.2456C14.24 79.4817 14.3338 79.708 14.5007 79.8749C14.6676 80.0418 14.894 80.1356 15.13 80.1356C15.366 80.1356 15.5924 80.0418 15.7593 79.8749C15.9262 79.708 16.02 79.4817 16.02 79.2456V68.5656C16.02 68.3296 15.9262 68.1032 15.7593 67.9363C15.5924 67.7694 15.366 67.6756 15.13 67.6756ZM20.47 67.6756C20.234 67.6756 20.0076 67.7694 19.8407 67.9363C19.6738 68.1032 19.58 68.3296 19.58 68.5656V79.2456C19.58 79.4817 19.6738 79.708 19.8407 79.8749C20.0076 80.0418 20.234 80.1356 20.47 80.1356C20.706 80.1356 20.9324 80.0418 21.0993 79.8749C21.2662 79.708 21.36 79.4817 21.36 79.2456V68.5656C21.36 68.3296 21.2662 68.1032 21.0993 67.9363C20.9324 67.7694 20.706 67.6756 20.47 67.6756ZM27.59 67.6756C27.354 67.6756 27.1276 67.7694 26.9607 67.9363C26.7938 68.1032 26.7 68.3296 26.7 68.5656V79.2456C26.7 79.4817 26.7938 79.708 26.9607 79.8749C27.1276 80.0418 27.354 80.1356 27.59 80.1356C27.826 80.1356 28.0524 80.0418 28.2193 79.8749C28.3862 79.708 28.48 79.4817 28.48 79.2456V68.5656C28.48 68.3296 28.3862 68.1032 28.2193 67.9363C28.0524 67.7694 27.826 67.6756 27.59 67.6756ZM32.93 67.6756C32.694 67.6756 32.4676 67.7694 32.3007 67.9363C32.1338 68.1032 32.04 68.3296 32.04 68.5656V79.2456C32.04 79.4817 32.1338 79.708 32.3007 79.8749C32.4676 80.0418 32.694 80.1356 32.93 80.1356C33.166 80.1356 33.3924 80.0418 33.5593 79.8749C33.7262 79.708 33.82 79.4817 33.82 79.2456V68.5656C33.82 68.3296 33.7262 68.1032 33.5593 67.9363C33.3924 67.7694 33.166 67.6756 32.93 67.6756ZM38.27 67.6756C38.034 67.6756 37.8076 67.7694 37.6407 67.9363C37.4738 68.1032 37.38 68.3296 37.38 68.5656V79.2456C37.38 79.4817 37.4738 79.708 37.6407 79.8749C37.8076 80.0418 38.034 80.1356 38.27 80.1356C38.506 80.1356 38.7324 80.0418 38.8993 79.8749C39.0662 79.708 39.16 79.4817 39.16 79.2456V68.5656C39.16 68.3296 39.0662 68.1032 38.8993 67.9363C38.7324 67.7694 38.506 67.6756 38.27 67.6756ZM45.39 67.6756C45.154 67.6756 44.9276 67.7694 44.7607 67.9363C44.5938 68.1032 44.5 68.3296 44.5 68.5656V79.2456C44.5 79.4817 44.5938 79.708 44.7607 79.8749C44.9276 80.0418 45.154 80.1356 45.39 80.1356C45.626 80.1356 45.8524 80.0418 46.0193 79.8749C46.1862 79.708 46.28 79.4817 46.28 79.2456V68.5656C46.28 68.3296 46.1862 68.1032 46.0193 67.9363C45.8524 67.7694 45.626 67.6756 45.39 67.6756ZM50.73 67.6756C50.494 67.6756 50.2676 67.7694 50.1007 67.9363C49.9338 68.1032 49.84 68.3296 49.84 68.5656V79.2456C49.84 79.4817 49.9338 79.708 50.1007 79.8749C50.2676 80.0418 50.494 80.1356 50.73 80.1356C50.966 80.1356 51.1924 80.0418 51.3593 79.8749C51.5262 79.708 51.62 79.4817 51.62 79.2456V68.5656C51.62 68.3296 51.5262 68.1032 51.3593 67.9363C51.1924 67.7694 50.966 67.6756 50.73 67.6756ZM56.07 67.6756C55.834 67.6756 55.6076 67.7694 55.4407 67.9363C55.2738 68.1032 55.18 68.3296 55.18 68.5656V79.2456C55.18 79.4817 55.2738 79.708 55.4407 79.8749C55.6076 80.0418 55.834 80.1356 56.07 80.1356C56.306 80.1356 56.5324 80.0418 56.6993 79.8749C56.8662 79.708 56.96 79.4817 56.96 79.2456V68.5656C56.96 68.3296 56.8662 68.1032 56.6993 67.9363C56.5324 67.7694 56.306 67.6756 56.07 67.6756ZM64.08 67.6756C63.844 67.6756 63.6176 67.7694 63.4507 67.9363C63.2838 68.1032 63.19 68.3296 63.19 68.5656V79.2456C63.19 79.4817 63.2838 79.708 63.4507 79.8749C63.6176 80.0418 63.844 80.1356 64.08 80.1356C64.316 80.1356 64.5424 80.0418 64.7093 79.8749C64.8762 79.708 64.97 79.4817 64.97 79.2456V68.5656C64.97 68.3296 64.8762 68.1032 64.7093 67.9363C64.5424 67.7694 64.316 67.6756 64.08 67.6756ZM75.65 67.6756C75.414 67.6756 75.1876 67.7694 75.0207 67.9363C74.8538 68.1032 74.76 68.3296 74.76 68.5656V79.2456C74.76 79.4817 74.8538 79.708 75.0207 79.8749C75.1876 80.0418 75.414 80.1356 75.65 80.1356C75.886 80.1356 76.1124 80.0418 76.2793 79.8749C76.4462 79.708 76.54 79.4817 76.54 79.2456V68.5656C76.54 68.3296 76.4462 68.1032 76.2793 67.9363C76.1124 67.7694 75.886 67.6756 75.65 67.6756ZM82.77 67.6756C82.534 67.6756 82.3076 67.7694 82.1407 67.9363C81.9738 68.1032 81.88 68.3296 81.88 68.5656V79.2456C81.88 79.4817 81.9738 79.708 82.1407 79.8749C82.3076 80.0418 82.534 80.1356 82.77 80.1356C83.006 80.1356 83.2324 80.0418 83.3993 79.8749C83.5662 79.708 83.66 79.4817 83.66 79.2456V68.5656C83.66 68.3296 83.5662 68.1032 83.3993 67.9363C83.2324 67.7694 83.006 67.6756 82.77 67.6756ZM89.89 67.6756C89.654 67.6756 89.4276 67.7694 89.2607 67.9363C89.0938 68.1032 89 68.3296 89 68.5656V79.2456C89 79.4817 89.0938 79.708 89.2607 79.8749C89.4276 80.0418 89.654 80.1356 89.89 80.1356C90.126 80.1356 90.3524 80.0418 90.5193 79.8749C90.6862 79.708 90.78 79.4817 90.78 79.2456V68.5656C90.78 68.3296 90.6862 68.1032 90.5193 67.9363C90.3524 67.7694 90.126 67.6756 89.89 67.6756ZM97.01 67.6756C96.774 67.6756 96.5476 67.7694 96.3807 67.9363C96.2138 68.1032 96.12 68.3296 96.12 68.5656V79.2456C96.12 79.4817 96.2138 79.708 96.3807 79.8749C96.5476 80.0418 96.774 80.1356 97.01 80.1356C97.246 80.1356 97.4724 80.0418 97.6393 79.8749C97.8062 79.708 97.9 79.4817 97.9 79.2456V68.5656C97.9 68.3296 97.8062 68.1032 97.6393 67.9363C97.4724 67.7694 97.246 67.6756 97.01 67.6756ZM104.13 67.6756C103.894 67.6756 103.668 67.7694 103.501 67.9363C103.334 68.1032 103.24 68.3296 103.24 68.5656V79.2456C103.24 79.4817 103.334 79.708 103.501 79.8749C103.668 80.0418 103.894 80.1356 104.13 80.1356C104.366 80.1356 104.592 80.0418 104.759 79.8749C104.926 79.708 105.02 79.4817 105.02 79.2456V68.5656C105.02 68.3296 104.926 68.1032 104.759 67.9363C104.592 67.7694 104.366 67.6756 104.13 67.6756ZM115.7 67.6756C115.464 67.6756 115.238 67.7694 115.071 67.9363C114.904 68.1032 114.81 68.3296 114.81 68.5656V79.2456C114.81 79.4817 114.904 79.708 115.071 79.8749C115.238 80.0418 115.464 80.1356 115.7 80.1356C115.936 80.1356 116.162 80.0418 116.329 79.8749C116.496 79.708 116.59 79.4817 116.59 79.2456V68.5656C116.59 68.3296 116.496 68.1032 116.329 67.9363C116.162 67.7694 115.936 67.6756 115.7 67.6756ZM123.71 67.6756C123.474 67.6756 123.248 67.7694 123.081 67.9363C122.914 68.1032 122.82 68.3296 122.82 68.5656V79.2456C122.82 79.4817 122.914 79.708 123.081 79.8749C123.248 80.0418 123.474 80.1356 123.71 80.1356C123.946 80.1356 124.172 80.0418 124.339 79.8749C124.506 79.708 124.6 79.4817 124.6 79.2456V68.5656C124.6 68.3296 124.506 68.1032 124.339 67.9363C124.172 67.7694 123.946 67.6756 123.71 67.6756ZM129.05 67.6756C128.814 67.6756 128.588 67.7694 128.421 67.9363C128.254 68.1032 128.16 68.3296 128.16 68.5656V79.2456C128.16 79.4817 128.254 79.708 128.421 79.8749C128.588 80.0418 128.814 80.1356 129.05 80.1356C129.286 80.1356 129.512 80.0418 129.679 79.8749C129.846 79.708 129.94 79.4817 129.94 79.2456V68.5656C129.94 68.3296 129.846 68.1032 129.679 67.9363C129.512 67.7694 129.286 67.6756 129.05 67.6756ZM134.39 67.6756C134.154 67.6756 133.928 67.7694 133.761 67.9363C133.594 68.1032 133.5 68.3296 133.5 68.5656V79.2456C133.5 79.4817 133.594 79.708 133.761 79.8749C133.928 80.0418 134.154 80.1356 134.39 80.1356C134.626 80.1356 134.852 80.0418 135.019 79.8749C135.186 79.708 135.28 79.4817 135.28 79.2456V68.5656C135.28 68.3296 135.186 68.1032 135.019 67.9363C134.852 67.7694 134.626 67.6756 134.39 67.6756ZM141.51 67.6756C141.274 67.6756 141.048 67.7694 140.881 67.9363C140.714 68.1032 140.62 68.3296 140.62 68.5656V79.2456C140.62 79.4817 140.714 79.708 140.881 79.8749C141.048 80.0418 141.274 80.1356 141.51 80.1356C141.746 80.1356 141.972 80.0418 142.139 79.8749C142.306 79.708 142.4 79.4817 142.4 79.2456V68.5656C142.4 68.3296 142.306 68.1032 142.139 67.9363C141.972 67.7694 141.746 67.6756 141.51 67.6756ZM146.85 67.6756C146.614 67.6756 146.388 67.7694 146.221 67.9363C146.054 68.1032 145.96 68.3296 145.96 68.5656V79.2456C145.96 79.4817 146.054 79.708 146.221 79.8749C146.388 80.0418 146.614 80.1356 146.85 80.1356C147.086 80.1356 147.312 80.0418 147.479 79.8749C147.646 79.708 147.74 79.4817 147.74 79.2456V68.5656C147.74 68.3296 147.646 68.1032 147.479 67.9363C147.312 67.7694 147.086 67.6756 146.85 67.6756ZM152.19 67.6756C151.954 67.6756 151.728 67.7694 151.561 67.9363C151.394 68.1032 151.3 68.3296 151.3 68.5656V79.2456C151.3 79.4817 151.394 79.708 151.561 79.8749C151.728 80.0418 151.954 80.1356 152.19 80.1356C152.426 80.1356 152.652 80.0418 152.819 79.8749C152.986 79.708 153.08 79.4817 153.08 79.2456V68.5656C153.08 68.3296 152.986 68.1032 152.819 67.9363C152.652 67.7694 152.426 67.6756 152.19 67.6756ZM159.31 67.6756C159.074 67.6756 158.848 67.7694 158.681 67.9363C158.514 68.1032 158.42 68.3296 158.42 68.5656V79.2456C158.42 79.4817 158.514 79.708 158.681 79.8749C158.848 80.0418 159.074 80.1356 159.31 80.1356C159.546 80.1356 159.772 80.0418 159.939 79.8749C160.106 79.708 160.2 79.4817 160.2 79.2456V68.5656C160.2 68.3296 160.106 68.1032 159.939 67.9363C159.772 67.7694 159.546 67.6756 159.31 67.6756ZM164.65 67.6756C164.414 67.6756 164.188 67.7694 164.021 67.9363C163.854 68.1032 163.76 68.3296 163.76 68.5656V79.2456C163.76 79.4817 163.854 79.708 164.021 79.8749C164.188 80.0418 164.414 80.1356 164.65 80.1356C164.886 80.1356 165.112 80.0418 165.279 79.8749C165.446 79.708 165.54 79.4817 165.54 79.2456V68.5656C165.54 68.3296 165.446 68.1032 165.279 67.9363C165.112 67.7694 164.886 67.6756 164.65 67.6756ZM169.99 67.6756C169.754 67.6756 169.528 67.7694 169.361 67.9363C169.194 68.1032 169.1 68.3296 169.1 68.5656V79.2456C169.1 79.4817 169.194 79.708 169.361 79.8749C169.528 80.0418 169.754 80.1356 169.99 80.1356C170.226 80.1356 170.452 80.0418 170.619 79.8749C170.786 79.708 170.88 79.4817 170.88 79.2456V68.5656C170.88 68.3296 170.786 68.1032 170.619 67.9363C170.452 67.7694 170.226 67.6756 169.99 67.6756ZM79.21 81.8782C77.7379 81.8782 76.54 83.0762 76.54 84.5482C76.54 86.0203 77.7379 87.2182 79.21 87.2182C80.6821 87.2182 81.88 86.0203 81.88 84.5482C81.88 83.0762 80.6821 81.8782 79.21 81.8782ZM100.57 81.8782C99.0979 81.8782 97.9 83.0762 97.9 84.5482C97.9 86.0203 99.0979 87.2182 100.57 87.2182C102.042 87.2182 103.24 86.0203 103.24 84.5482C103.24 83.0762 102.042 81.8782 100.57 81.8782ZM79.21 83.6582C79.6995 83.6582 80.1 84.0587 80.1 84.5482C80.1 85.0377 79.6995 85.4382 79.21 85.4382C78.9741 85.4378 78.748 85.3438 78.5812 85.177C78.4144 85.0102 78.3205 84.7841 78.32 84.5482C78.32 84.0587 78.7205 83.6582 79.21 83.6582ZM100.57 83.6582C101.06 83.6582 101.46 84.0587 101.46 84.5482C101.46 85.0377 101.06 85.4382 100.57 85.4382C100.334 85.4378 100.108 85.3438 99.9412 85.177C99.7744 85.0102 99.6805 84.7841 99.68 84.5482C99.68 84.0587 100.08 83.6582 100.57 83.6582ZM90.7978 85.5895L98.4393 90.0858C100.44 91.269 102.098 92.9518 103.252 94.9693C104.405 96.9868 105.015 99.2695 105.02 101.594V128.158H101.46V101.686C101.455 99.9272 100.993 98.1997 100.12 96.673C99.2464 95.1462 97.9914 93.8725 96.4778 92.9765L91.2321 89.89H91.2286L90.7622 89.6159L90.303 89.9043L84.817 93.361C83.369 94.2673 82.176 95.5278 81.3506 97.0234C80.5253 98.519 80.0948 100.2 80.1 101.909V128.16H76.54V101.937C76.533 99.6787 77.102 97.4558 78.1934 95.4786C79.2848 93.5014 80.8624 91.8352 82.7771 90.6376L90.7978 85.5895ZM91.67 92.2129L95.5735 94.5109C96.3105 94.9452 96.9548 95.497 97.5137 96.1182H91.67V92.2129ZM89.89 92.2681V96.1182H84.2296C84.6907 95.641 85.207 95.2204 85.7675 94.8651L89.89 92.2681ZM98.7313 97.8662C99.1709 98.7153 99.4789 99.6373 99.607 100.599C99.6444 100.883 99.6586 101.168 99.6658 101.458H91.67V97.8982H98.5675C98.6245 97.8982 98.6761 97.8769 98.7313 97.8662ZM82.9088 97.8804H82.9124C82.9409 97.8822 82.9658 97.8982 82.9925 97.8982H89.89V101.458H81.9085C81.9676 100.205 82.3096 98.9822 82.9088 97.8804ZM81.88 103.238H89.89V106.798H81.88V103.238ZM91.67 103.238H99.68V106.798H91.67V103.238ZM81.88 108.578H89.89V112.138H81.88V108.578ZM91.67 108.578H99.68V112.138H91.67V108.578ZM81.88 113.918H89.89V117.478H81.88V113.918ZM91.67 113.918H99.68V117.478H91.67V113.918ZM81.88 119.258H89.89V122.818H81.88V119.258ZM91.67 119.258H99.68V122.818H91.67V119.258ZM81.88 124.598H89.89V128.158H81.88V124.598ZM91.67 124.598H99.68V128.158H91.67V124.598Z" fill="#4652DD"/>
</svg>
