<svg xmlns="http://www.w3.org/2000/svg" width="28" height="29" viewBox="0 0 28 29" fill="none">
  <path d="M21 2.52637V4.8597M6.99997 2.52637V4.8597" stroke="white" stroke-width="1.5" stroke-linecap="round" stroke-linejoin="round"/>
  <path d="M13.9947 15.3596H14.0052M13.9947 20.0263H14.0052M18.6561 15.3596H18.6666M9.33331 15.3596H9.34377M9.33331 20.0263H9.34377" stroke="white" stroke-width="1.5" stroke-linecap="round" stroke-linejoin="round"/>
  <path d="M4.0833 9.52637H23.9166" stroke="white" stroke-width="1.5" stroke-linecap="round" stroke-linejoin="round"/>
  <path d="M2.91664 14.4767C2.91664 9.39326 2.91664 6.85149 4.37744 5.27224C5.83825 3.69299 8.18937 3.69299 12.8916 3.69299H15.1083C19.8106 3.69299 22.1617 3.69299 23.6225 5.27224C25.0833 6.85149 25.0833 9.39326 25.0833 14.4767V15.0759C25.0833 20.1594 25.0833 22.7011 23.6225 24.2805C22.1617 25.8597 19.8106 25.8597 15.1083 25.8597H12.8916C8.18937 25.8597 5.83825 25.8597 4.37744 24.2805C2.91664 22.7011 2.91664 20.1594 2.91664 15.0759V14.4767Z" stroke="white" stroke-width="1.5" stroke-linecap="round" stroke-linejoin="round"/>
  <path d="M3.49997 9.52637H24.5" stroke="white" stroke-width="1.5" stroke-linecap="round" stroke-linejoin="round"/>
</svg>