<svg xmlns="http://www.w3.org/2000/svg" width="32" height="33" viewBox="0 0 32 33" fill="none">
  <path d="M16 14.8597C18.9455 14.8597 21.3333 12.4718 21.3333 9.52633C21.3333 6.58081 18.9455 4.19299 16 4.19299C13.0545 4.19299 10.6666 6.58081 10.6666 9.52633C10.6666 12.4718 13.0545 14.8597 16 14.8597Z" stroke="white" stroke-width="1.5"/>
  <path d="M16 14.8596V24.193" stroke="white" stroke-width="1.5" stroke-linecap="round"/>
  <path d="M21.1293 21.5264C23.3257 24.3437 24.4238 25.7524 23.8486 26.8677C23.7954 26.9706 23.7332 27.0701 23.6625 27.165C22.8964 28.193 20.9166 28.193 16.957 28.193H15.0429C11.0833 28.193 9.1035 28.193 8.33745 27.165C8.2667 27.0701 8.20449 26.9706 8.15137 26.8677C7.57605 25.7524 8.67425 24.3437 10.8706 21.5264" stroke="white" stroke-width="1.5" stroke-linecap="round" stroke-linejoin="round"/>
</svg>